<?xml version="1.0" encoding="utf-8"?>
<!-- Generator: Adobe Illustrator 24.1.0, SVG Export Plug-In . SVG Version: 6.00 Build 0)  -->
<svg version="1.1" id="Capa_1" xmlns="http://www.w3.org/2000/svg" xmlns:xlink="http://www.w3.org/1999/xlink" x="0px" y="0px"
	 viewBox="0 0 28.7 28.7" style="enable-background:new 0 0 28.7 28.7;" xml:space="preserve">
<style type="text/css">
	.st0{fill:#FFFFFF;}
</style>
<path d="M0,26.4c0-8,0-16,0-24c0,0,0-0.1,0-0.1c0.2-1.1,1-1.9,2.1-2.1c0.1,0,0.1,0,0.2,0c8,0,16,0,24,0c0.1,0,0.2,0,0.2,0
	c1,0.2,1.9,1.1,2,2.1c0,0,0,0,0,0.1c0,8.1,0,16.2,0,24.3c0,0.1,0,0.1,0,0.2c-0.3,1-0.9,1.7-2,1.9c-0.1,0-0.1,0-0.2,0
	c-8.1,0-16.2,0-24.2,0c0,0-0.1,0-0.1,0c-1.1-0.2-2-1-2.1-2.1C0,26.5,0,26.4,0,26.4z M28.2,20.9c0-0.1,0-0.1,0-0.2
	c0-4.7,0-9.5,0-14.2c0-1.3,0-2.6,0-4c0-0.6-0.3-1.2-0.7-1.6c-0.4-0.3-0.9-0.5-1.4-0.5c-7.8,0-15.6,0-23.4,0c-0.2,0-0.3,0-0.5,0
	C1.2,0.7,0.5,1.6,0.5,2.6c0,1.3,0,2.6,0,3.8c0,4.8,0,9.5,0,14.3c0,0.1,0,0.1,0,0.2C9.7,20.9,19,20.9,28.2,20.9z M8.7,27.1
	c-0.3-1.3-0.5-2.6-0.8-3.9c-0.5,0-0.9,0-1.4,0c-0.2,0.6-0.3,1.3-0.5,1.9c0,0,0,0,0,0c-0.2-0.6-0.3-1.2-0.5-1.8c-0.2,0-1.2,0-1.3,0
	c-0.3,1.3-0.6,2.6-0.8,3.9c0.4,0,0.8,0,1.3,0c0-0.2,0.1-0.4,0.1-0.7c0-0.2,0.1-0.4,0.1-0.7c0-0.2,0.1-0.4,0.1-0.6c0,0,0,0,0,0
	c0.2,0.7,0.4,1.3,0.6,2c0.3,0,0.6,0,0.8,0c0.2-0.7,0.4-1.3,0.6-2c0,0,0,0,0,0c0.1,0.7,0.3,1.3,0.4,2C7.8,27.1,8.2,27.1,8.7,27.1z
	 M12.7,25.4c0-0.5,0-0.9-0.2-1.3c-0.2-0.4-0.5-0.7-1-0.9c-0.4-0.1-0.7-0.1-1.1-0.1c-0.7,0.1-1.2,0.5-1.4,1.2c-0.2,0.5-0.2,1.1,0,1.6
	c0.1,0.4,0.4,0.8,0.8,1c0.7,0.4,1.4,0.4,2,0.1c0.5-0.2,0.8-0.5,0.9-1c0,0,0-0.1,0-0.1c0,0,0,0-0.1,0c-0.4,0-0.7,0-1.1,0
	c-0.1,0-0.1,0-0.1,0.1c-0.1,0.1-0.2,0.2-0.4,0.3c-0.2,0-0.4,0-0.6,0c-0.3-0.1-0.5-0.4-0.4-0.8c0.4,0,0.9,0,1.3,0
	C11.8,25.4,12.2,25.4,12.7,25.4z M21.4,25.1c0,0.1,0,0.2,0,0.3c0,0.1,0,0.2,0.1,0.3c0.4,1.3,1.9,1.9,3,1.2c1-0.6,1.3-1.8,0.7-2.8
	c-0.5-0.8-1.2-1.1-2.1-1C22.1,23.3,21.4,24.1,21.4,25.1z M12.4,23.2c0,0.1,0,0.1,0.1,0.1c0.3,0.6,0.7,1.1,1,1.7
	c0.1,0.2,0.1,0.1,0,0.3c-0.3,0.6-0.7,1.1-1,1.7c0,0,0,0.1-0.1,0.1c0.5,0,0.9,0,1.4,0c0.1-0.1,0.1-0.2,0.2-0.3
	c0.1-0.1,0.1-0.2,0.2-0.3c0.1-0.1,0.1-0.2,0.2-0.3c0.2,0.4,0.4,0.7,0.5,1.1c0.5,0,0.9,0,1.4,0c-0.4-0.7-0.8-1.3-1.2-2
	c0.4-0.6,0.8-1.3,1.2-2c0,0-0.1,0-0.1,0c-0.4,0-0.8,0-1.2,0c-0.1,0-0.1,0-0.1,0.1c-0.1,0.3-0.3,0.6-0.5,0.9c0,0,0,0.1-0.1,0.1
	c0,0,0-0.1-0.1-0.1c-0.1-0.3-0.3-0.5-0.4-0.8c0-0.1-0.1-0.1-0.2-0.1c-0.3,0-0.7,0-1,0C12.6,23.2,12.5,23.2,12.4,23.2z M21.4,23.3
	c-0.1,0-0.1,0-0.2-0.1c-0.4-0.1-0.9-0.2-1.3-0.1c-0.3,0.1-0.7,0.2-0.9,0.4c-0.6,0.4-0.8,0.9-0.8,1.6c0,0.3,0,0.5,0.1,0.8
	c0.2,0.6,0.7,1,1.3,1.2c0.4,0.1,0.8,0.2,1.2,0.1c0.2,0,0.4-0.1,0.6-0.1c0,0,0.1,0,0.1-0.1c-0.1-0.4-0.2-0.7-0.3-1
	C21,26,20.9,26,20.8,26c-0.3,0-0.5,0.1-0.8,0c-0.3-0.1-0.5-0.3-0.6-0.6c-0.1-0.2-0.1-0.4,0-0.5c0.1-0.3,0.3-0.5,0.6-0.6
	c0.3-0.1,0.6,0,0.8,0c0.1,0,0.2,0,0.3,0.1C21.2,24,21.3,23.7,21.4,23.3z M16.5,23.2C16.5,23.3,16.5,23.3,16.5,23.2
	c0,1.3,0,2.6,0,3.8c0,0,0,0.1,0,0.1c0.4,0,0.8,0,1.2,0c0-1.3,0-2.6,0-3.9C17.4,23.2,16.9,23.2,16.5,23.2z M10.7,23
	c0.3-0.1,1.2-0.6,1.3-0.7c-0.2-0.3-0.4-0.5-0.7-0.8c-0.4,0.3-0.7,0.7-1.1,1C10.3,22.7,10.5,22.9,10.7,23z"/>
<path class="st0" d="M28.2,20.9c-9.3,0-18.5,0-27.7,0c0-0.1,0-0.1,0-0.2c0-4.8,0-9.5,0-14.3c0-1.3,0-2.6,0-3.8c0-1,0.7-1.9,1.7-2.1
	c0.2,0,0.3,0,0.5,0c7.8,0,15.6,0,23.4,0c0.5,0,1,0.1,1.4,0.5c0.5,0.4,0.7,0.9,0.7,1.6c0,1.3,0,2.6,0,4c0,4.7,0,9.5,0,14.2
	C28.2,20.8,28.2,20.8,28.2,20.9z M11.5,10.6c0-0.1,0-0.2,0-0.2c0-0.5,0-1-0.1-1.5c0-0.2,0-0.3-0.1-0.5c0-0.1,0-0.1-0.1-0.1
	c-0.2,0-0.4,0-0.6,0c-0.9,0-1.8-0.1-2.7-0.1c-0.7,0-1.4,0-2.1,0c-0.9,0-1.9,0-2.8,0c-0.2,0-0.3,0.1-0.4,0.2C2.5,8.4,2.4,8.5,2.3,8.6
	C2.2,8.9,2.2,9.1,2.1,9.4c0,0.4,0,0.8,0,1.2c0,0.4,0.1,0.7,0.3,1.1c0.1,0.2,0.2,0.3,0.3,0.4c0.1,0.1,0.3,0.2,0.5,0.2
	c0.2,0,0.4-0.1,0.6-0.1c0.9-0.2,1.8-0.3,2.7-0.5c1.4-0.3,2.9-0.6,4.3-0.9C11.1,10.7,11.3,10.6,11.5,10.6z M3,14.1
	c0,0.3,0.1,0.6,0.2,0.9c0.2,0.5,0.4,0.9,0.7,1.3c0.1,0.2,0.3,0.3,0.5,0.5c0.2,0.1,0.4,0.1,0.6,0.1c0.1,0,0.2,0,0.2-0.1
	c0.4-0.2,0.7-0.3,1.1-0.5c1.8-0.8,3.5-1.7,5.3-2.6c0.3-0.2,0.6-0.3,0.9-0.5c0.1-0.1,0.2-0.2,0.2-0.3c0-0.1,0-0.2,0-0.3
	c-0.1-0.3-0.2-0.7-0.4-1c0,0-0.1-0.1-0.1-0.1c-0.1-0.1-0.1-0.1-0.2-0.1c-0.1,0-0.2,0-0.4,0c-0.5,0.1-1,0.1-1.5,0.2
	c-1.1,0.2-2.2,0.5-3.3,0.8c-1,0.2-1.9,0.5-2.9,0.6c-0.2,0-0.3,0.1-0.5,0.2c-0.1,0.1-0.2,0.2-0.2,0.3C3,13.8,3,14,3,14.1z M26.7,13.4
	c0-0.4,0-0.8,0-1.2c0-0.2,0-0.4-0.1-0.6c-0.1-0.5-0.4-0.9-0.9-1c0,0-0.1,0-0.1,0c-0.8-0.2-1.5-0.3-2.3-0.4c-0.8-0.1-1.6-0.2-2.4-0.2
	c-0.1,0-0.2,0-0.3,0.1c-0.6,0.4-1.1,0.9-1.6,1.5c-0.8,0.8-1.6,1.7-2.4,2.5c0,0-0.1,0.1-0.1,0.1c0,0.1,0,0.2,0.1,0.2
	c0.1,0,0.1,0.1,0.2,0.1c0.1,0,0.3,0,0.4,0c0.2,0,0.4-0.1,0.5-0.1c0.8-0.1,1.6-0.3,2.4-0.4c0.7-0.1,1.4-0.2,2.1-0.4
	c0.6-0.1,1.2-0.2,1.8-0.3c0.5-0.1,1-0.1,1.5-0.2c0.2,0,0.3,0,0.4,0.2c0,0,0,0,0.1,0.1C26.2,13.4,26.4,13.5,26.7,13.4z M8.1,19.4
	C8.1,19.4,8.1,19.4,8.1,19.4c0.4,0,0.9,0,1.3,0c0.3,0,0.5-0.1,0.7-0.2c0.2-0.2,0.5-0.4,0.7-0.6c1.1-1,2.1-2,3.1-3.1
	c0.1-0.1,0.2-0.3,0.3-0.4c0-0.1,0-0.1,0-0.2c-0.2-0.2-0.3-0.4-0.5-0.6c-0.1-0.1-0.3-0.3-0.5-0.4c-0.2-0.1-0.4-0.1-0.6,0
	c-0.3,0.2-0.7,0.4-1,0.5c-1.4,0.7-2.8,1.5-4.2,2.2c-0.8,0.4-1.6,0.9-2.4,1.4C5,18.1,5,18.2,5,18.4c0,0.1,0,0.1,0.1,0.2
	c0.1,0.2,0.2,0.3,0.3,0.5c0.1,0.1,0.3,0.2,0.5,0.3c0.3,0.1,0.6,0.1,0.9,0.1C7.2,19.4,7.6,19.4,8.1,19.4z M14.7,9.4
	c0.1,0,0.4,0,0.6,0c0.5,0,1.1-0.1,1.6-0.1c0.9,0,1.8,0,2.7-0.1c0.6,0,1.1,0,1.7-0.1c0.2,0,0.3,0,0.5-0.1C21.9,9,22,8.9,22,8.7
	c0-0.1,0-0.2-0.1-0.3c-0.2-0.5-0.6-0.8-1.1-1.1c-0.2-0.1-0.3-0.1-0.5-0.1c-0.9,0-1.8,0-2.7,0c-1.1,0-2.1,0-3.2,0
	c-0.5,0-1.1,0-1.6-0.1c-0.1,0-0.2-0.1-0.2-0.2c-0.1-0.1-0.2-0.3-0.2-0.4c-0.1-0.1-0.1-0.2-0.2-0.3c-0.1-0.1-0.2-0.1-0.3,0.1
	c0,0,0,0,0,0c-0.1,0.5-0.2,0.9-0.2,1.4c0.1,0.4,0.2,0.8,0.5,1c0.3,0.2,0.6,0.4,0.9,0.5C13.6,9.3,14.1,9.4,14.7,9.4z M15.1,9.8
	c-0.1,0-0.1,0-0.1,0c-0.2,0-0.4,0-0.6,0c-0.5,0-0.9,0-1.4,0c-0.1,0-0.1,0-0.2,0.1c-0.1,0.2-0.1,0.4-0.1,0.6c0,0.3,0.1,0.7,0.2,1
	c0.2,0.5,0.5,1,0.9,1.4c0.3,0.3,0.7,0.6,1.1,0.8c0.2,0.1,0.3,0.1,0.5,0.2c0.1,0,0.1,0,0.2,0c0.5-0.4,1-0.8,1.4-1.4
	c0,0,0-0.1,0.1-0.1c0,0-0.1-0.1-0.1-0.1c-0.2-0.1-0.4-0.3-0.6-0.4c-0.6-0.4-1-1-1.1-1.8C15.2,9.9,15.1,9.8,15.1,9.8z M14,16.8
	c0.1,0,0.1,0,0.1,0c0.1,0,0.3,0,0.4-0.1c2.1-0.6,4.1-1.3,6.2-1.9c0,0,0.1,0,0.1,0c0-0.1,0-0.2-0.1-0.2c-0.1,0-0.1,0-0.2,0
	c-0.3,0-0.6,0-0.9,0.1c-0.3,0-0.5,0.1-0.8,0.1c-0.6,0-1.2,0-1.8,0.1c-0.5,0.1-1,0.2-1.5,0.4c-0.4,0.1-0.7,0.3-1,0.6
	c-0.2,0.2-0.4,0.5-0.5,0.8C14,16.7,14,16.8,14,16.8z M17.7,11.4c0.1,0,0.2,0,0.3,0c0.4-0.1,0.7-0.3,1-0.6c0.1-0.1,0.2-0.2,0.3-0.3
	c0.1-0.2,0.1-0.4-0.1-0.6c-0.1-0.2-0.3-0.2-0.5-0.1c-0.1,0.1-0.2,0.1-0.3,0.2c-0.1,0.1-0.3,0.2-0.4,0.3c-0.3,0.1-0.5,0.1-0.7-0.1
	c-0.1-0.1-0.3-0.2-0.4-0.3c-0.1-0.1-0.2-0.1-0.3-0.1c-0.2-0.1-0.4,0-0.5,0.3c-0.1,0.4,0,0.7,0.3,0.9C16.7,11.2,17.1,11.3,17.7,11.4z
	 M22.1,4.7c0-0.8,0-1.6,0-2.4c-0.1,0-0.5,0-0.6,0c0,0.4,0,0.8,0,1.1c0,0,0,0,0,0c-0.2-0.3-0.4-0.7-0.6-1c0-0.1-0.1-0.1-0.1-0.1
	c-0.1,0-0.3,0-0.4,0c-0.1,0-0.1,0-0.2,0c0,0.8,0,1.6,0,2.4c0.2,0,0.6,0,0.7,0c0-0.4,0-0.8,0-1.2c0,0,0.1,0.1,0.1,0.2
	c0.2,0.3,0.4,0.6,0.5,1c0,0,0,0.1,0.1,0.1C21.7,4.7,21.9,4.7,22.1,4.7z M14.9,4.6c0-0.2,0-2.3,0-2.4c-0.1,0-0.2,0-0.3,0
	c-0.1,0-0.2,0-0.3,0c0,0.3,0,0.6,0,0.9c-0.1,0-0.6,0-0.7,0c0-0.3,0-0.6,0-0.9c-0.2,0-0.5,0-0.7,0c0,0.8,0,1.6,0,2.4
	c0.2,0,0.5,0,0.7,0c0-0.3,0-0.6,0-0.9c0.2,0,0.5,0,0.7,0c0,0.3,0,0.6,0,0.9C14.4,4.6,14.6,4.6,14.9,4.6z M6.6,2.2c0,0.1,0,2.3,0,2.4
	c0.2,0,0.6,0,0.7,0c0-0.3,0-0.6,0-0.9c0.2,0,0.5,0,0.7,0C8,4,8,4.3,8,4.6c0.2,0,0.5,0,0.7,0c0-0.1,0-2.3,0-2.4c-0.2,0-0.4,0-0.7,0
	c0,0.2,0,0.3,0,0.5C8,2.8,8,3,8,3.1c-0.2,0-0.6,0-0.7,0c0-0.3,0-0.6,0-0.9C7.1,2.2,6.9,2.2,6.6,2.2z M15.1,3.5c0,0.1,0,0.2,0,0.3
	c0.1,0.4,0.3,0.7,0.8,0.9c0.2,0,0.3,0.1,0.5,0c0.5,0,0.8-0.3,1-0.7c0.1-0.3,0.1-0.6,0-0.9c-0.1-0.4-0.3-0.6-0.7-0.8
	c-0.2-0.1-0.3-0.1-0.5-0.1c-0.4,0-0.7,0.2-0.9,0.5C15.1,3,15.1,3.2,15.1,3.5z M19.9,4.6c0-0.1,0-0.5,0-0.6c-0.1,0-0.2,0-0.3,0
	c-0.1,0-0.2,0-0.3,0c-0.1,0-0.2,0-0.3,0c0-0.1,0-0.2,0-0.3c0.3,0,0.5,0,0.8,0c0-0.2,0-0.4,0-0.6c-0.3,0-0.5,0-0.8,0
	c0-0.1,0-0.1,0-0.2c0.3,0,0.6,0,0.9,0c0-0.2,0-0.5,0-0.7c-0.5,0-1.1,0-1.6,0c0,0.1,0,2.3,0,2.4C18.8,4.6,19.3,4.6,19.9,4.6z
	 M10.6,2.9c0-0.1,0-0.2,0-0.4c0-0.1,0-0.2,0-0.3c-0.3,0-1.5,0-1.6,0C9,3,9,3.8,9,4.6c0.1,0,1.5,0,1.6,0c0-0.2,0-0.4,0-0.6
	c-0.3,0-0.6,0-0.9,0c0-0.1,0-0.2,0-0.3c0.3,0,0.5,0,0.8,0c0-0.2,0-0.4,0-0.6c-0.3,0-0.5,0-0.8,0c0-0.1,0-0.1,0-0.2
	C10,2.9,10.3,2.9,10.6,2.9z M12.5,2.9c0-0.2,0.1-0.4,0.1-0.6c-0.1,0-0.1-0.1-0.2-0.1c-0.3-0.1-0.6-0.1-0.9,0
	c-0.4,0.1-0.7,0.4-0.8,0.8c-0.1,0.2-0.1,0.4,0,0.6c0.1,0.5,0.4,0.8,0.8,0.9c0.2,0.1,0.5,0.1,0.7,0c0.1,0,0.3,0,0.4-0.1
	c0-0.2-0.1-0.4-0.1-0.6c-0.1,0-0.2,0.1-0.3,0.1c-0.1,0-0.2,0-0.3,0c-0.3,0-0.5-0.2-0.5-0.4c0-0.1,0-0.3,0-0.4
	c0.1-0.2,0.2-0.4,0.5-0.4c0.1,0,0.1,0,0.2,0C12.2,2.9,12.4,2.9,12.5,2.9z"/>
<path class="st0" d="M8.7,27.1c-0.4,0-0.8,0-1.3,0c-0.1-0.7-0.3-1.3-0.4-2c0,0,0,0,0,0c-0.2,0.7-0.4,1.3-0.6,2c-0.3,0-0.6,0-0.8,0
	c-0.2-0.7-0.4-1.3-0.6-2c0,0,0,0,0,0c-0.1,0.2-0.1,0.4-0.1,0.6c0,0.2-0.1,0.4-0.1,0.7c0,0.2-0.1,0.4-0.1,0.7c-0.4,0-0.8,0-1.3,0
	c0.3-1.3,0.6-2.6,0.8-3.9c0.1,0,1.2,0,1.3,0c0.2,0.6,0.3,1.2,0.5,1.8c0,0,0,0,0,0c0.2-0.6,0.3-1.2,0.5-1.9c0.4,0,0.9,0,1.4,0
	C8.1,24.5,8.4,25.8,8.7,27.1z"/>
<path class="st0" d="M12.7,25.4c-0.5,0-0.9,0-1.3,0c-0.4,0-0.9,0-1.3,0c0,0.3,0.1,0.7,0.4,0.8c0.2,0.1,0.4,0.1,0.6,0
	c0.2,0,0.3-0.1,0.4-0.3c0,0,0.1-0.1,0.1-0.1c0.4,0,0.7,0,1.1,0c0,0,0,0,0.1,0c0,0,0,0.1,0,0.1c-0.1,0.5-0.5,0.8-0.9,1
	c-0.7,0.3-1.4,0.2-2-0.1c-0.4-0.2-0.7-0.6-0.8-1c-0.2-0.5-0.2-1.1,0-1.6c0.2-0.7,0.7-1.1,1.4-1.2c0.4-0.1,0.8-0.1,1.1,0.1
	c0.5,0.2,0.8,0.4,1,0.9C12.6,24.5,12.7,24.9,12.7,25.4z M10,24.6c0.5,0,1,0,1.4,0c0-0.4-0.4-0.6-0.8-0.6C10.4,24,10,24.3,10,24.6z"
	/>
<path class="st0" d="M21.4,25.1c0-1,0.8-1.9,1.8-2c0.9-0.1,1.6,0.2,2.1,1c0.6,1,0.3,2.2-0.7,2.8c-1.2,0.7-2.7,0.1-3-1.2
	c0-0.1,0-0.2-0.1-0.3C21.4,25.3,21.4,25.2,21.4,25.1z M24.3,25.1c0-0.5-0.4-0.9-0.9-0.9c-0.5,0-0.9,0.4-0.9,0.9
	c0,0.5,0.4,0.9,0.9,0.9C23.9,26,24.3,25.6,24.3,25.1z"/>
<path class="st0" d="M12.4,23.2c0.1,0,0.2,0,0.2,0c0.3,0,0.7,0,1,0c0.1,0,0.1,0,0.2,0.1c0.1,0.3,0.3,0.5,0.4,0.8c0,0,0,0.1,0.1,0.1
	c0,0,0-0.1,0.1-0.1c0.2-0.3,0.3-0.6,0.5-0.9c0-0.1,0.1-0.1,0.1-0.1c0.4,0,0.8,0,1.2,0c0,0,0,0,0.1,0c-0.4,0.7-0.8,1.3-1.2,2
	c0.4,0.7,0.8,1.3,1.2,2c-0.5,0-0.9,0-1.4,0c-0.2-0.3-0.4-0.7-0.5-1.1c-0.1,0.1-0.1,0.2-0.2,0.3c-0.1,0.1-0.1,0.2-0.2,0.3
	c-0.1,0.1-0.1,0.2-0.2,0.3c-0.5,0-0.9,0-1.4,0c0,0,0-0.1,0.1-0.1c0.3-0.6,0.7-1.1,1-1.7c0.1-0.2,0.1-0.1,0-0.3
	c-0.3-0.6-0.7-1.1-1-1.7C12.5,23.3,12.4,23.3,12.4,23.2z"/>
<path class="st0" d="M21.4,23.3c-0.1,0.4-0.1,0.7-0.2,1.1c-0.1,0-0.2,0-0.3-0.1c-0.3-0.1-0.6-0.1-0.8,0c-0.3,0.1-0.6,0.3-0.6,0.6
	c0,0.2,0,0.4,0,0.5c0.1,0.3,0.3,0.5,0.6,0.6c0.3,0.1,0.5,0.1,0.8,0c0.1,0,0.2-0.1,0.4-0.1c0.1,0.3,0.2,0.7,0.3,1c0,0-0.1,0-0.1,0.1
	c-0.2,0.1-0.4,0.1-0.6,0.1c-0.4,0-0.8,0-1.2-0.1c-0.6-0.2-1-0.6-1.3-1.2c-0.1-0.2-0.1-0.5-0.1-0.8c0-0.7,0.3-1.2,0.8-1.6
	c0.3-0.2,0.6-0.3,0.9-0.4c0.5-0.1,0.9,0,1.3,0.1C21.3,23.3,21.3,23.3,21.4,23.3z"/>
<path class="st0" d="M16.5,23.2c0.4,0,0.8,0,1.2,0c0,1.3,0,2.6,0,3.9c-0.4,0-0.8,0-1.2,0c0,0,0-0.1,0-0.1
	C16.5,25.8,16.5,24.6,16.5,23.2C16.5,23.3,16.5,23.3,16.5,23.2z"/>
<path class="st0" d="M10.7,23c-0.2-0.2-0.3-0.4-0.5-0.5c0.4-0.3,0.7-0.7,1.1-1c0.2,0.3,0.4,0.6,0.7,0.8C11.9,22.4,11,22.9,10.7,23z"
	/>
<path d="M11.5,10.6c-0.2,0.1-0.4,0.1-0.7,0.2c-1.4,0.3-2.9,0.7-4.3,0.9c-0.9,0.2-1.8,0.3-2.7,0.5c-0.2,0-0.4,0.1-0.6,0.1
	c-0.2,0-0.4,0-0.5-0.2c-0.1-0.1-0.2-0.3-0.3-0.4c-0.2-0.3-0.2-0.7-0.3-1.1c0-0.4-0.1-0.8,0-1.2c0-0.3,0.1-0.5,0.2-0.7
	c0.1-0.1,0.1-0.2,0.2-0.3C2.7,8.2,2.8,8.1,3,8.1c0.9,0,1.9,0,2.8,0c0.7,0,1.4,0,2.1,0c0.9,0,1.8,0.1,2.7,0.1c0.2,0,0.4,0,0.6,0
	c0.1,0,0.1,0,0.1,0.1c0,0.2,0.1,0.3,0.1,0.5c0,0.5,0,1,0.1,1.5C11.5,10.4,11.5,10.5,11.5,10.6z"/>
<path d="M3,14.1C3,14,3,13.8,3.1,13.7c0-0.1,0.1-0.2,0.2-0.3c0.2-0.1,0.3-0.1,0.5-0.2c1-0.2,1.9-0.4,2.9-0.6
	c1.1-0.3,2.2-0.5,3.3-0.8c0.5-0.1,1-0.2,1.5-0.2c0.1,0,0.2,0,0.4,0c0.1,0,0.1,0,0.2,0.1c0,0,0.1,0.1,0.1,0.1c0.2,0.3,0.4,0.6,0.4,1
	c0,0.1,0,0.2,0,0.3c0,0.1-0.1,0.2-0.2,0.3c-0.3,0.2-0.6,0.3-0.9,0.5c-1.7,0.9-3.5,1.8-5.3,2.6c-0.4,0.2-0.7,0.3-1.1,0.5
	c-0.1,0-0.2,0.1-0.2,0.1c-0.2,0.1-0.4,0-0.6-0.1c-0.2-0.1-0.4-0.3-0.5-0.5c-0.3-0.4-0.5-0.8-0.7-1.3C3,14.7,3,14.4,3,14.1z"/>
<path d="M26.7,13.4c-0.3,0-0.5,0-0.7-0.2c0,0,0,0-0.1-0.1c-0.1-0.1-0.3-0.2-0.4-0.2c-0.5,0.1-1,0.1-1.5,0.2
	c-0.6,0.1-1.2,0.2-1.8,0.3c-0.7,0.1-1.4,0.2-2.1,0.4c-0.8,0.1-1.6,0.3-2.4,0.4c-0.2,0-0.4,0.1-0.5,0.1c-0.1,0-0.3,0-0.4,0
	c-0.1,0-0.1,0-0.2-0.1c-0.1-0.1-0.1-0.1-0.1-0.2c0-0.1,0.1-0.1,0.1-0.1c0.8-0.8,1.6-1.7,2.4-2.5c0.5-0.5,1.1-1,1.6-1.5
	c0.1-0.1,0.2-0.1,0.3-0.1c0.8,0,1.6,0.1,2.4,0.2c0.8,0.1,1.5,0.2,2.3,0.4c0,0,0.1,0,0.1,0c0.5,0.1,0.8,0.5,0.9,1
	c0,0.2,0.1,0.4,0.1,0.6C26.7,12.6,26.7,13,26.7,13.4z"/>
<path d="M8.1,19.4c-0.4,0-0.9,0-1.3,0c-0.3,0-0.6,0-0.9-0.1c-0.2,0-0.3-0.1-0.5-0.3c-0.1-0.1-0.2-0.3-0.3-0.5c0-0.1,0-0.1-0.1-0.2
	C5,18.2,5,18.1,5.2,18c0.8-0.5,1.6-0.9,2.4-1.4c1.4-0.7,2.8-1.5,4.2-2.2c0.3-0.2,0.7-0.4,1-0.5c0.2-0.1,0.4-0.1,0.6,0
	c0.2,0.1,0.3,0.2,0.5,0.4c0.2,0.2,0.3,0.4,0.5,0.6c0,0.1,0,0.1,0,0.2c-0.1,0.1-0.2,0.3-0.3,0.4c-1,1.1-2,2.2-3.1,3.1
	c-0.2,0.2-0.5,0.4-0.7,0.6c-0.2,0.2-0.5,0.2-0.7,0.2C9,19.3,8.5,19.3,8.1,19.4C8.1,19.4,8.1,19.4,8.1,19.4z"/>
<path d="M14.7,9.4c-0.6,0-1.1,0-1.6-0.2c-0.3-0.1-0.6-0.2-0.9-0.5c-0.3-0.3-0.5-0.6-0.5-1c-0.1-0.5,0-0.9,0.2-1.4c0,0,0,0,0,0
	c0.1-0.2,0.2-0.2,0.3-0.1c0.1,0.1,0.1,0.2,0.2,0.3c0.1,0.1,0.2,0.3,0.2,0.4c0.1,0.1,0.1,0.1,0.2,0.2c0.5,0.1,1.1,0.1,1.6,0.1
	c1.1,0,2.1,0,3.2,0c0.9,0,1.8,0,2.7,0c0.2,0,0.4,0,0.5,0.1c0.5,0.3,0.8,0.6,1.1,1.1C21.9,8.4,22,8.5,22,8.7c0,0.2-0.1,0.3-0.3,0.4
	c-0.1,0-0.3,0.1-0.5,0.1c-0.6,0-1.1,0.1-1.7,0.1c-0.9,0-1.8,0-2.7,0.1c-0.5,0-1.1,0.1-1.6,0.1C15,9.4,14.8,9.4,14.7,9.4z"/>
<path d="M15.1,9.8c0,0.1,0,0.2,0,0.2c0.1,0.7,0.5,1.3,1.1,1.8c0.2,0.1,0.4,0.3,0.6,0.4c0,0,0.1,0,0.1,0.1c0,0,0,0.1-0.1,0.1
	c-0.4,0.6-0.8,1-1.4,1.4c-0.1,0-0.1,0-0.2,0c-0.2,0-0.4-0.1-0.5-0.2c-0.4-0.2-0.8-0.5-1.1-0.8c-0.4-0.4-0.7-0.9-0.9-1.4
	c-0.1-0.3-0.2-0.6-0.2-1c0-0.2,0.1-0.4,0.1-0.6c0-0.1,0.1-0.1,0.2-0.1c0.5,0,0.9,0,1.4,0c0.2,0,0.4,0,0.6,0
	C15,9.7,15.1,9.7,15.1,9.8z"/>
<path d="M14,16.8c0-0.1,0-0.1,0-0.1c0.1-0.3,0.2-0.6,0.5-0.8c0.3-0.3,0.7-0.5,1-0.6c0.5-0.2,1-0.3,1.5-0.4c0.6-0.1,1.2-0.1,1.8-0.1
	c0.3,0,0.5-0.1,0.8-0.1c0.3,0,0.6-0.1,0.9-0.1c0.1,0,0.1,0,0.2,0c0.1,0,0.1,0.1,0.1,0.2c0,0-0.1,0-0.1,0c-2.1,0.6-4.1,1.3-6.2,1.9
	c-0.1,0-0.3,0.1-0.4,0.1C14.1,16.9,14.1,16.9,14,16.8z"/>
<path d="M17.7,11.4c-0.5,0-1-0.2-1.4-0.6c-0.3-0.2-0.4-0.6-0.3-0.9c0-0.2,0.2-0.3,0.5-0.3c0.1,0,0.2,0.1,0.3,0.1
	c0.1,0.1,0.3,0.2,0.4,0.3c0.2,0.2,0.5,0.2,0.7,0.1c0.1-0.1,0.3-0.2,0.4-0.3c0.1-0.1,0.2-0.1,0.3-0.2c0.2-0.1,0.4-0.1,0.5,0.1
	c0.1,0.2,0.2,0.4,0.1,0.6c-0.1,0.1-0.2,0.2-0.3,0.3c-0.3,0.3-0.7,0.5-1,0.6C17.8,11.4,17.7,11.4,17.7,11.4z"/>
<path d="M22.1,4.7c-0.2,0-0.4,0-0.6,0c-0.1,0-0.1,0-0.1-0.1c-0.2-0.3-0.4-0.6-0.5-1c0-0.1-0.1-0.1-0.1-0.2c0,0.4,0,0.8,0,1.2
	c-0.1,0-0.5,0-0.7,0c0-0.8,0-1.6,0-2.4c0.1,0,0.1,0,0.2,0c0.1,0,0.3,0,0.4,0c0.1,0,0.1,0,0.1,0.1c0.2,0.4,0.4,0.7,0.6,1c0,0,0,0,0,0
	c0-0.4,0-0.8,0-1.1c0.1,0,0.4,0,0.6,0C22.1,3,22.1,3.8,22.1,4.7z"/>
<path d="M14.9,4.6c-0.2,0-0.4,0-0.7,0c0-0.3,0-0.6,0-0.9c-0.2,0-0.4,0-0.7,0c0,0.3,0,0.6,0,0.9c-0.2,0-0.5,0-0.7,0
	c0-0.8,0-1.6,0-2.4c0.2,0,0.4,0,0.7,0c0,0.3,0,0.6,0,0.9c0.1,0,0.6,0,0.7,0c0-0.3,0-0.6,0-0.9c0.1,0,0.2,0,0.3,0c0.1,0,0.2,0,0.3,0
	C14.9,2.3,14.9,4.4,14.9,4.6z"/>
<path d="M6.6,2.2c0.2,0,0.4,0,0.7,0c0,0.3,0,0.6,0,0.9c0.1,0,0.5,0,0.7,0C8,3,8,2.8,8,2.7c0-0.1,0-0.3,0-0.5c0.2,0,0.5,0,0.7,0
	c0,0.1,0,2.3,0,2.4c-0.2,0-0.4,0-0.7,0C8,4.3,8,4,8,3.7c-0.2,0-0.5,0-0.7,0c0,0.3,0,0.6,0,0.9c-0.1,0-0.5,0-0.7,0
	C6.6,4.6,6.6,2.4,6.6,2.2z"/>
<path d="M15.1,3.5c0-0.3,0.1-0.5,0.2-0.8c0.2-0.3,0.5-0.5,0.9-0.5c0.2,0,0.3,0,0.5,0.1c0.4,0.1,0.6,0.4,0.7,0.8
	c0.1,0.3,0.1,0.6,0,0.9c-0.2,0.4-0.5,0.7-1,0.7c-0.2,0-0.3,0-0.5,0c-0.4-0.1-0.7-0.4-0.8-0.9C15.1,3.7,15.1,3.6,15.1,3.5z M16.7,3.4
	c0-0.1,0-0.3-0.1-0.4c-0.2-0.3-0.5-0.3-0.7,0c-0.2,0.3-0.2,0.6,0,0.9c0.1,0.1,0.2,0.2,0.4,0.2c0.2,0,0.3-0.1,0.3-0.2
	C16.7,3.8,16.7,3.6,16.7,3.4z"/>
<path d="M19.9,4.6c-0.5,0-1.1,0-1.6,0c0-0.1,0-2.3,0-2.4c0.5,0,1.1,0,1.6,0c0,0.2,0,0.5,0,0.7c-0.3,0-0.6,0-0.9,0c0,0.1,0,0.1,0,0.2
	c0.3,0,0.5,0,0.8,0c0,0.2,0,0.4,0,0.6c-0.3,0-0.5,0-0.8,0c0,0.1,0,0.2,0,0.3c0.1,0,0.2,0,0.3,0c0.1,0,0.2,0,0.3,0c0.1,0,0.2,0,0.3,0
	C19.9,4.2,19.9,4.5,19.9,4.6z"/>
<path d="M10.6,2.9c-0.3,0-0.6,0-0.9,0c0,0.1,0,0.1,0,0.2c0.3,0,0.5,0,0.8,0c0,0.2,0,0.4,0,0.6c-0.3,0-0.5,0-0.8,0c0,0.1,0,0.2,0,0.3
	c0.3,0,0.6,0,0.9,0c0,0.2,0,0.4,0,0.6c-0.1,0-1.5,0-1.6,0C9,3.8,9,3,9,2.2c0.1,0,1.3,0,1.6,0c0,0.1,0,0.2,0,0.3
	C10.6,2.7,10.6,2.8,10.6,2.9z"/>
<path d="M12.5,2.9c-0.2,0-0.3-0.1-0.4-0.1c-0.1,0-0.1,0-0.2,0c-0.2,0-0.4,0.2-0.5,0.4c0,0.1,0,0.3,0,0.4c0.1,0.3,0.2,0.4,0.5,0.4
	c0.1,0,0.2,0,0.3,0c0.1,0,0.2,0,0.3-0.1c0,0.2,0.1,0.4,0.1,0.6c-0.1,0.1-0.2,0.1-0.4,0.1c-0.2,0-0.5,0-0.7,0
	c-0.4-0.1-0.7-0.5-0.8-0.9c0-0.2,0-0.4,0-0.6c0.1-0.4,0.4-0.7,0.8-0.8c0.3-0.1,0.6-0.1,0.9,0c0.1,0,0.1,0.1,0.2,0.1
	C12.6,2.6,12.6,2.7,12.5,2.9z"/>
<path d="M10,24.6c0-0.3,0.3-0.6,0.7-0.6c0.4,0,0.7,0.2,0.8,0.6C11,24.6,10.5,24.6,10,24.6z"/>
<path d="M24.3,25.1c0,0.5-0.4,0.9-0.9,0.9c-0.5,0-0.9-0.4-0.9-0.9c0-0.5,0.4-0.9,0.9-0.9C23.9,24.2,24.3,24.6,24.3,25.1z"/>
<path class="st0" d="M16.7,3.4c0,0.2,0,0.3-0.1,0.4c-0.1,0.1-0.2,0.2-0.3,0.2c-0.2,0-0.3-0.1-0.4-0.2c-0.1-0.3-0.1-0.6,0-0.9
	c0.1-0.3,0.5-0.3,0.7,0C16.7,3.1,16.7,3.3,16.7,3.4z"/>
</svg>
