<?xml version="1.0" encoding="UTF-8"?>
<svg id="Layer_1" xmlns="http://www.w3.org/2000/svg" version="1.1" viewBox="0 0 544.3 195.6" fill="#7B1A2E">
  <!-- Generator: Adobe Illustrator 29.0.0, SVG Export Plug-In . SVG Version: 2.1.0 Build 186)  -->
  <defs>
    <style>
      .st0 {
        fill: #231f20;
      }

      .st1 {
        fill: #6f1d46;
      }

      .st2 {
        fill: #762042;
      }
    </style>
  </defs>
  <g>
    <g>
      <path class="st1" d="M-1607,87h0l7.8-18.9-4.7,1-1.5,3.5-13.2,2.8-1.1-2.7h-.6c0,0,4.9,11.7,4.9,11.7,3.1.3,5.8,1,8.2,2.7M-1605.5,73.3l-4.5,10.7c-2.4-.2-4.8,0-4.8,0l-3.3-8,12.7-2.6h0Z"/>
      <path class="st1" d="M-1596.1,137.5c.5-.8,1-1.7,1.4-2.5l-8.2-19.3-1.1-2.6c-.5.7-1,1.3-1.5,2l.9,2.2,8.5,20.2h0Z"/>
      <polygon class="st1" points="-1650.4 74.8 -1650.4 67.2 -1650.7 67.1 -1652.5 71.9 -1651.8 73.2 -1650.4 74.8"/>
      <path class="st1" d="M-1568.8,105.9h-.5c0,1.6,0,3.2-.2,4.9l-7-1.2c0-1.7.2-3.4.3-5.2l6.9,1.4v-.5l-6.5-1.5,3.6-.3,2.9-.8h.7l5.4,1.3-6.4,1.3.4.7.6-.2,7.2-1.7v-4.7l-7.3-2h0c0-1.4,0-2.7-.2-4l2.9-1.3,3.9-2.5-.5-4.8-7.5-2.9h0c0-.3,0-.5,0-.8l2.4-1.7,4-4.4-1.8-4.5-7.7-3.4-1.2.5.7-1,7.2-1.5v-5.1l-3.8-2v-27.9h0l-6.7-4.5-5.8,2.1v6.7l-6.8-4.2-5.5,2v28.7l-8.3,2v-4.9l4.5-1.3c2.7-.8,2.8-2.4,2.8-3.2v-11.2c0-2.5-1.5-3.3-1.5-3.3l-3.5-2.1c-2.9-1.7-4.7-.9-4.7-.9l-8.9,3.2v5.3l-1.1-.6v-8.6l-13.5-7v.7l3.9,2v10l-3.9-1.9v-10.2h0v-.7l-5.5,2.3v10.5l5.1-1.8v1l-5.1,1.8v10.8l5.1-1.6v1l-5.1,1.6v11.1l5.1-1.3v1l-5.1,1.3v10.7l5.5-1.2v-10.2h0v-.7l3.2,1.6v2.2l-1.9.5v4.7l53.6-12.1,6.8,3.2-6.8,1.4-5-2.4-16,3.6c.5.8.9,1.7,1.3,2.6,0,0,0,.2.2.3h-.6s-.2-.6-.4-.8l-8.4,19.9h-.6c0,0,1.2-3.1,1.2-3.1l4.6-10.9,1.2-2.8.6-1.4.3-.7.9-1.9c-.3-.5-.6-1-.7-1.3l-2.4.5-1.5,3.5-.3.7-.5,1.1v.3c0,0-4.5,10.6-4.5,10.6l-1.3,3.2-.2.5-.3.6h-.3l-.4-.2.4-.9c-2.3-1.7-5.1-2.7-8-3h-.8l-2-4.8-2.9-6.8-2.1.5,1.7,4c-.3-.3-.6-.5-1-.5h0c0,0-1.3-3.4-1.3-3.4l-4.3.9v1.7l1.8,4.1c-.2.3-.4.7-.4,1.2s.4,1.4,1,1.8v4.4l-4,.6h-.2l-1.2.6-3.7.6v1.3l-1,.5v-1.6l-4.2.7v3.1l-1,.5v-3.5l-3.6.6v4.7l-1,.5v-5l-4.1.7v6.4l-.7.4v-17.6l-2.1-.8h-2.7l-1.1,4.4,2.1,2,3.6,1.9c-.2,1.5-.4,3-.6,4.5l-2.5-.3-4,.8-.4,4.2,3.7,2,1.6.3-4.3,2.2c-.3,0-.4.4-.3.7,0,.3.4.5.6.4l4.9-.5v1.6l1.4-1.7,4.7,5.9v29c.3.8.7,1.6,1.1,2.4h-1.1v-2.4c-.2-.4-.4-.9-.6-1.3,0-.3-.2-.6-.4-.9v-26.6l-3.7-4.9-3.7,4.5v5.3l2.7.4c0,1.4.3,2.9.5,4.2l.5,3.9.8,3.1c.2.8.4,1.6.6,2.4l-4.1-.2,3.6-2.3c-.5-2.2-.9-4.5-1.3-6.9l-3.2,2.1v7.7l5.2.3c0,.5.3,1,.4,1.5l-3.2,3.3-1.6,3.3,1.7,4h4.9v4.6l.9-2h0v-2.7h1.6v.2c0,0-1.7,2.5-1.7,2.5v4.1c-.3,0-.6-.2-.9-.3v-1.8l-.8,1.7c-.9-.2-2-.3-3-.3s-2.6.1-3.7.4v-18.8h-.8v19.1c-1.9.6-3.2,1.7-3.2,2.8,0,1.9,3.5,3.5,7.8,3.5s6-.9,7.2-2.1l5-.2-1.1,2.7v4.6l2.1,2,7.2-.6v.2l.3,5.6,2.8,1.4,7-.7,1,2.8,3.3.6,8.1-.8v.3c0,0,.2.1.2.1v.3h3l5-.7,3.4-1,.5-2.3,6.9-.7,3.4-2.6c4.6-.4,8.1-2.2,8.1-4.3s-.2-1-.6-1.5l2.5-2.9-1.2-5.2-1.4-2.3,7.2-.3,2.1-3.6-2-4.7-2.6-3.2c.2-.5.3-1.1.5-1.6l7,.2,1.1-4.5-2.8-3.2-3-2.3c.2-1.3.5-2.7.7-4.1l2.3.4,4.8-.4.8-4.2-3.7-2.5-3.4-1.3c0-1.7.2-3.4.2-5.1h-.3v.5ZM-1568.6,98.1l6.8,1.8v3.7l-6.7-1.6h0v-4c0,0,0,0,0,0h-.1ZM-1582.8,43.5l-6.3-12.1,6.3,3.8v8.2h0ZM-1589.5,44.3l6.8,13.6h0l-6.8,1.7v-15.4h0ZM-1609.2,43.3l1.9,1v4.2c0,.3-.2.6-.5.6l-1.4.4v-6.3h0ZM-1604.8,57.5c1.1.5,1,1.6,1,1.6v4l-5.3,1.3v-8.7c1.3.5,3.5,1.5,4.3,1.8M-1603.7,53.7c2.1-.7,2-2.8,2-2.8v-12.4c0-1-.6-1.5-.6-1.5,0,0,2.4,1.4,4.1,2.3,1.7.9,1.6,3.2,1.6,3.2v11c0,1.9-2.4,2.7-2.4,2.7l-4.5,1.3-5.2-2.3s2.8-.9,4.9-1.6M-1607.7,42.3h0c.3,0,.5,0,.5.4v1.1l-1.9-1h0l1.4-.5ZM-1616.3,43.8l-3.2-1.6v-8l3.2,1.7s0,7.9,0,7.9ZM-1622.1,42v-9.2l2.1,1.1v8l-.8-.4-1.3.5h0ZM-1624.8,31.4l2.1,1.1v9.6h-.4c0,0-1.8-.7-1.8-.7v-10h.1ZM-1629.2,40.2l5.2,2.5-1.9.7v9.5l-3.2-1.6v-.7h0v-9.7h0v-.8h0ZM-1629.2,63.6v-.7h0v-10h0v-.7l3.2,1.5v11.4l-3.2-1.6h0ZM-1620.8,42.3l6.2,3.1v20.3l-6.2,1.5s0-24.9,0-24.9ZM-1577,56.7v-29.9l6,3.9v27.2l-3.3-1.8-2.7.6ZM-1574.3,56.6l7.1,3.7v4.1l-7.1-3.5v-4.3ZM-1653.7,113.4l2-.3v.6s-2-.3-2-.3ZM-1646.8,140.1h-4.2l2.9-2,1.3-1.4v3.4h0ZM-1574.2,118.1l4,.7c-.2,1.4-.4,2.8-.7,4.1l-7.4-.7c.4-1.7.7-3.4,1-5.1l3.1,1ZM-1580.5,134h0v-4.1c-.3.9-.6,1.8-.9,2.6v1.4h-.5c.2-.5.4-1,.5-1.4v-28.1l-4.8-6.5-.7-.9-.8,1.2-2.2,3.3,2.2-.2v.8h0c0,0-2.9.4-2.9.4l-1.3,2v.5l4.1-.4c-.2,8.3-1.7,16.1-4,22.9l.2,22.6c0,.2-.8.9-.9,1.1h0l-.2-21.1c-.5,1.2-1,2.4-1.5,3.5l-8.1-18.8c2.2-2.6,3.9-5.8,4.6-9.3l4.7-.4v-.6l1.3-2-14.5,1.2c-.2,1.6-.5,3.2-1.1,4.6-.2.6-.4,1.1-.7,1.6l.7,1.7,1.2,2.8c.5-.6,1-1.3,1.5-2,.2-.2.3-.5.5-.7,1-1.8,1.8-3.7,2.4-5.8h.7c-.6,2.3-1.5,4.6-2.7,6.6l1.2,2.8,8.1,19h0c-.7,1.5-1.4,2.9-2.2,4.2h0c0-.1-8.6-20.6-8.6-20.6l-1.2-2.8h0l-.7-1.6-1.1-2.7s-1.1-.2-2.1.5c-.7.5-1.2,1.2-1.4,1.5-.4-.5-.9-1-1.4-1.4,2-1.7,3.4-4.4,3.9-7.4,0-.3,0-.6,0-.9v-1.5c0-1,0-2-.3-3l2.3-.2v.2c-.2.6-.5,1.9,0,3.1.2.4.4.8.9,1.2l9.2-.8,6.2-.5,3.1-4.7.3-.5h.9c0,0,.6.7.6.7l5.4,7.5v25.5c0-.3.2-.5.3-.8l3.5,2.7,3.4.9c-.2.6-.3,1.2-.5,1.7l-6.7-.4v-.2ZM-1589.7,153.7c-.6,0-1.1.1-1.6.2v-2.7l1.6,2.5ZM-1594.4,153.9l2.1-2.3v2.3h-2.1ZM-1593,154.3c-.8.2-1.5.5-2.2.9l1-.9h1.2ZM-1631.9,132.2h1c.9.5,1.8.9,2.8,1.2.2,0,.5.1.7.2.4-.1.8-.3,1.2-.7.4-.4.8-1,1-1.8,1-2.9.8-2.6,2-3.3.8-.5.7-1.3.9-2.1h1c0,.4-.2.9-.2,1.2,0,1.1-1.2,1.2-1.8,1.5-.7.4-.5,1-.7,1.8s-.9,1.9-1.2,2.4c0,.1,0,.2-.2.3-.3.3-.6.7-.8.9.5,0,1,.2,1.5.2.3-.3.7-.6,1-1,.6-.6,1.1-1.2,1.3-1.6.4-.9.4-1.4,2.1-2.2,2.8-1.2,1.4-2.9,2.3-3.7h0c.2,0,.4,0,.6,0-.3.5-.2.9-.4,1.4-.3.6-.4,1.7-1,2.1-.6.4-.9,1.1-1.6,1.4-.6.2-1.1.6-1.4,1.5,0,.4-.8.9-1.3,1.4-.4.4-.7.8-.4,1.1h.4c5.7-.2,10.8-3.5,12.4-8.7,0-.3.2-.6.2-.9-1.6,4.8-6.2,7.9-11.7,8.4.2-.2.4-.5.5-.7.6-.8,1.8-1.7,2.5-2.4s1.1-1.6,1.5-2.2c.4-.6.2-1.6,1-2.3.3,0,.7,0,1,0-.2.5-.4.9-.8,1.8.7-.7,1.1-1.2,1.4-1.9.3,0,.6,0,1,0-.4,1.4-.8,2.7-1.4,3.7.8-.9,1.5-2.3,1.9-3.7,2.4-.4,4.1-.9,4.4-1.6h0c-.9,6.7-6.8,11.8-14.1,11.8s-6.5-1.1-8.9-3M-1636.4,111.1v-2.7h.8v4.3c0,.4,0,.8,0,1.2-.3.4-.5.7-.7,1.1,0-.6-.3-2-.4-4M-1634.8,108.6v-.3l4.9-.4c-.2.5-.3,1-.3,1.6-1.7.9-3.2,2.1-4.4,3.6,0-1-.2-3.2-.2-4.5M-1626,103.5c0-.2-.2-.3-.5-.3h-.3c0,0-.2-.2-.4-.2s-.5.2-.5.4,0,0,0,0c-1,0-2,0-2.7-.4-1.2-.5-.4-.5,0-.8.3-.3-1.3-.3-1.3-.9s.3-.6.5-.7l3.2-.3c.6.2,1.8.4,2.1.6.4.2,4.9.6,6,.8,1.1.2,2.5.8,2.5,3s-2.2,2.2-3.1,2.2v-.9c0,0,0,0,0,0,.2,0,.4,0,.4-.3s0,0,0,0h.2c.2,0,.3,0,.3-.2s0-.2-.2-.2h0c0-.2,0-.3-.2-.3s-.2,0-.2.2,0,0,0,0c0,0-.2,0-.2.2s0,0,0,0h-.3v-.3c.3-.3.3-.6.2-.8.2,0,.3,0,.3-.3s-.2-.3-.5-.3-.3,0-.4,0h0c0,0-.2,0-.4,0,0,0,.2,0,.2,0s0,0,0,0h0c0-.2-.2-.3-.3-.3s-.4,0-.4.2,0,0,0,0h-1.1c0,0-.2-.2-.5-.2s-.4,0-.5.2h0v-.2c0-.2-.2-.3-.4-.3s-.4,0-.4.3,0,0,0,.2h-.3c0,0,0-.2-.3-.2v-.2c0,0,0-.3-.3-.3s-.3,0-.3.3,0,.3.3.3c0,0,0,0,0,.2h-.5M-1636.1,126.9c-.7-1.6-1.1-3.3-1.1-5.1,0-5,2.8-9.3,7-11.6.2,1.7,1.8,3.6,6,5.7-.2.2-.6.7-.8,1.1-.2.5-.7.5-1.1.8-.5.3-1.3,1.1-1.2,1.9,0,.5,0,.9-.2,1.2-.7,0-1.3,0-1.9,0,0-1.6.4-3.1.9-4.4-.8,1.2-1.3,2.8-1.4,4.5h-1c0-2.3.6-4.5,1.5-6.3-1.1,1.7-1.8,3.9-1.9,6.3-.5,0-1.1,0-1.6.2,0-2.5.7-4.8,1.7-6.7-1.4,1.8-2.3,4.2-2.3,6.8-.3,0-.5,0-.8.2h0c0-2.7.8-5.2,2.1-7.2-1.7,1.9-2.7,4.4-2.7,7.1s0,.2,0,.2c-1.4.4-2.2.8-2.2,1.3s1,1,2.6,1.4c.4,1.5,1.2,2.9,2.2,4.1-.8-1.2-1.3-2.5-1.7-4,.3,0,.6,0,.8.2.4,1.4,1.1,2.7,1.9,3.8-.6-1.1-1.1-2.4-1.4-3.7.5,0,1.1.2,1.7.2.3,1.3.8,2.4,1.5,3.4-.5-1-.9-2.1-1.1-3.3h.9v1.3c.4,1.7.8,1.8,0,2.6-.5.5-.2,1.2,0,1.6-1.7-.5-3.7-1.2-5.1-2.3-.7-.6-1.2-1.1-1.6-1.6M-1613.1,120.3v1.1c-.3,0-.5,0-.8,0,0-.6-.2-1.3-.3-1.5.4.2.8.4,1.2.5M-1614.8,119.6c.2.8,0,1.3,0,1.6h-.5c-.2-.3-.2-.8,0-1.7h0c.2,0,.5,0,.7.2M-1616.2,121.1h-.6c0-.9.5-1.5.3-2.1.2,0,.4.2.6.2,0,.2-.3,1.1-.3,1.9M-1620.1,120.8h-.5c0-.9-.2-1.8,1-3,.3,0,.6.2.9.3h0c-.2.3-1.3,1.7-1.6,2.6M-1627.9,122.5c.5,1.1,0,1.5-.7,1.8-.2,0-.4.2-.5.3-.2-.9-.3-1.8-.3-2.7h1.4v.7M-1634.3,122.3c.2,0,.5,0,.8,0,0,.7,0,1.4.2,2-.3,0-.5,0-.8,0,0-.6-.2-1.2-.2-1.8M-1634.6,124c-1.2-.2-2-.5-2-.8s.7-.5,1.8-.7c0,.5,0,1.1.2,1.6M-1632.9,122.1c.5,0,1,0,1.6-.2,0,.9,0,1.7.2,2.5-.6,0-1.1,0-1.6-.2,0-.7-.2-1.4-.2-2.2M-1630.8,121.9h1c0,1,0,1.9.4,2.7h-1.1c0-.8-.2-1.7-.2-2.6M-1621.4,124c.8-.9,1-1.6,1-2.3h.5c.3.6.5,1.3,0,1.8-.3.3-.6.7-.9,1.3h-1c0-.3.3-.5.6-.8M-1616.8,121.9h0c.3,0,.5,0,.8,0,0,0,0,.2,0,.2.5.7.4,1.8-.3,2.5h-1c.4-.7.6-1.6.4-2.6M-1614.7,124.4l.2-.7v-1.3c0,0,.2-.3.4-.5h.9c0,.7-.2,1.5-.4,2.2-.3,0-.7,0-1.1,0M-1612.7,122.2c2.1.3,3.3.6,3.3,1s-1.4.8-3.8,1.1c.2-.7.3-1.4.4-2.1M-1612.6,121.5v-.9c.3.2.6.3.8.5.6.4,1.1.7,1.5,1.1-.6-.2-1.4-.5-2.4-.6M-1609.7,117.2c-1.2-.8-2.7-1.6-4.6-2.4-.5-1-1.1-1.9-2-2.7.6.8,1.1,1.5,1.4,2.4-.5-.2-1-.4-1.5-.6h-.2c-.4-.8-.9-1.4-1.7-2,.5.6.9,1.1,1.2,1.9-8.3-3.2-8.7-4.1-8.4-5.1h.5v-4.1h.8v.6c0,0,0,.2.2.2s.2,0,.2-.2v-.7h1.1c.5,0,1,.2,1.3.3v3.9h.5c5.1.8,9.3,4.2,11,8.7M-1621.2,101.2h-.4c-.8,0-1.5-.2-2.1-.3v-.9l2.5-.3v1.5ZM-1624.1,100.8c-.3,0-.6,0-.8,0v-.6h.8v.7ZM-1625.6,100.6c-.5,0-.9-.2-1.1-.3h1.1c0,0,0,.3,0,.3ZM-1625.6,107.6c-.3.4-.8,1.3-.4,2.1.4,1.1,2.4,2.2,9.7,4.9,3.5,1.3,11.6,4.1,9.9,9.4-.3,1-1.7,1.9-2.6,2.2v-.2h0s0-.5.2-.9c0,0,.2,0,.3,0,.2,0,.2-.3.2-.4,0,0-.2,0-.3,0v-.7c.2,0,.3.2.4,0v-.3h0c0,0,.3,0,.5,0s.2-.3,0-.5c0,0-.3,0-.5,0,0,0-.2.2-.2.3,0,0,0-.2-.2-.3-.2-.3-.5-.4-.6-.3-.2-.3-.4-.6-.8-1h0c.2-.2.3-.5,0-.8-.2-.3-.6-.3-.8,0,0,0,0,0,0,.2-.2,0-.4-.3-.6-.4,0,0,.2,0,.3,0,.3-.2.3-.6.2-.9-.2-.2-.6-.3-.9,0-.2.2-.3.4-.2.6-.3-.2-.6-.3-.9-.5v-.3h.2c0,0,.2-.2.2-.4h.3c0,0,0-.3,0-.4,0-.2-.3-.2-.4,0h0c-.3-.4-.7-.5-1-.3-.2.2-.2.5,0,.8h0s0,0,0,.2c-.5-.3-1-.5-1.6-.8,0-.2,0-.6-.4-.8-.3-.3-.8-.4-1.1-.2,0,0,0,.2,0,.3-.2,0-.3,0-.5-.2,0,0,0-.3,0-.4h0c.3-.2.3-.6,0-.8-.2-.3-.6-.4-.8-.2-.2.2-.3.6,0,.8,0,0,0,.2,0,.3h0c0,0-.2,0-.3,0,0-.3,0-.6-.4-.8-.2,0-.3-.2-.5-.2h0c0,0,0-.3,0-.4h0c.2,0,.2-.4,0-.7-.2-.2-.5-.3-.7-.2-.2,0-.2.4,0,.7,0,0,0,0,.2,0v.4h0c0,0-.2,0-.3.2v.3c0,0-.3,0-.4-.2,0-.3-.2-.6-.6-.9-.2,0-.5-.2-.7-.2,0,0,.2,0,.2-.2,0-.2,0-.5-.2-.7-.3-.2-.6,0-.7,0,0,.2,0,.5.2.7h.2c0,0-.2,0-.2.2v.2c-.3,0-.6-.3-.9-.4,0-.2,0-.4-.3-.6-.2-.2-.4-.4-.6-.4.2-.2.2-.6,0-.9-.2-.2-.4-.3-.6-.3h0c0,0-.2-.2-.3-.2,0,0,0-.3-.2-.4-.2-.3-.5-.3-.7-.2-.2,0-.2.5,0,.7s.4.3.6.3v.2s0,0,.2,0c0,.2,0,.3.2.5,0,.2.3.3.4.3v.3c-.4-.2-.8-.4-1.1-.6,0-.2,0-.4-.3-.6-.3-.4-.7-.6-.9-.4v.2c-.5-.3-.9-.7-1.2-1,0-.2,0-.6-.3-.9s-.6-.5-.8-.4c0-.2-.2-.3-.2-.5,0,0,.3-.2.3-.3.2-.3,0-.7-.2-.8h-.3c0-.3,0-.5,0-.7,0,.2,0,.3.2.4s.5,0,.7-.4c.2-.3,0-.7,0-.8-.2,0-.4,0-.6.3.2-.4.4-.8.7-1.1,0,0,0,.3.2.3.3,0,.6,0,.7-.3s0-.6-.2-.8c.7-.6,1.5-1,2.2-1.2v2.5h.2ZM-1638.3,126.8h-.2v-.5s0,0,0,0,.2,0,.2-.3,0-.3,0-.3c.3-.7.8-.9.8-.9v.2c0,0-.2,0-.2.3s0,.3.2.3h.2c.3.9,1,2.3,2.5,3.3,3.1,2.1,7.2,2.6,7.2,2.6-.8.2-1.6.2-2.4.2,0-.1-.3-.2-.6-.2h0c0-.2,0-.4-.3-.4s-.3.1-.3.2h-.9v-.2c0-.2,0-.3-.2-.3s-.2,0-.2.1h-.3c-.1,0-.3,0-.4.1,0,0-.2-.2-.4-.2v-.3c0-.3,0-.5-.2-.5s-.3.2-.3.5,0,0,0,0h-.7v-.3c0-.3-.2-.6-.4-.6s-.2,0-.3.2c0,0-.2-.1-.3-.1h-.6c0-.2,0-.3-.3-.3v-.2c0-.2,0-.4-.2-.6,0,0,.2-.2.2-.4s0-.4-.3-.4-.3.2-.3.4v.2c0,0-.3,0-.3.2h0c0,0-.2,0-.2.1h0s0-.3,0-.4v-.3c.2,0,.3-.2.3-.4s-.2-.4-.3-.4-.4.2-.4.4,0,0,0,.2c0,0-.2,0-.2,0,0,0,0-.3,0-.5v-.3h.2c.2,0,.4-.2.4-.4s-.2-.4-.4-.4M-1623.7,135.9h.5c-.9,1.9-1.7,5.3,2.1,7.7,3,1.9,6.5,2.9,9.7,2.9,5.1,0,9.3-2.2,9.3-2.2,0,0-5.6,4.1-12.8,2.4-12.8-3.1-9.4-9.7-8.8-10.8M-1613.9,145.6c-8-1.1-10.3-5.7-9.3-8.5.3-.6.4-1,.5-1.3,6.1-.1,11.3-3.8,13.4-8.9.5-.2,1.7-.6,2.6-1.6l5.6,13.6s.8,2.5-.8,3.9c-2.2,2.1-7.4,3.3-12.1,2.6M-1579.1,78.7l8.2,3.2h0v.3l-2.7.2-4.5,1.6c-.4-1.8-.8-3.5-1.2-5.2M-1572.6,96.7h-3.7c0-1.7-.2-3.5-.4-5.2l7.2,2.1c0,1.2,0,2.5.2,3.7l-3.2-.7h0ZM-1562.8,85.5l.3,4-6.7-2.2h0l-.3-2.5-.2-2,7,2.7h-.1ZM-1570,87.8h.7c0,0,6.1,2.1,6.1,2.1l-2.8,1.8-2.9,1.2-.4.2h-.3l-6.7-2.1,3.2-1.1,3-2h.1ZM-1565.9,71.2l1.3,3.7-7.2-3-1-3.9,7,3.1h-.1ZM-1572,72.4l7.1,3.1-3.5,3.8-2.6,2-7.6-3.1,3.8-2.8,2.7-2.9h0ZM-1579.6,64.1l5.1,2.4-1.2,1.8-1.5.6-4.1,2.9c-.5-1.4-1.1-2.8-1.7-4.2l3.4-3.5h0ZM-1601.7,87.5l7-16.5,1.1-.2c2.8,6.3,4.8,14,5.6,22.3l-11.8-2.8c-.6-1-1.2-1.9-1.9-2.8M-1617.5,86.5h-.7l-1.6-4c.2-.3.2-.6.2-1s0,0,0,0l2.1,5.1ZM-1620.2,80.2c-.2-.3-.5-.5-.9-.6,0-.3.2-.5.2-.8v-.3l.7,1.8h0ZM-1621.4,78.8c0,.3,0,.5-.3.7h-2.9c0-.2-.2-.4-.2-.7,0-.6.4-1.1,1-1.1h1.3c.6,0,1,.5,1,1.1M-1626,81.6c0-.8.8-1.5,1.8-1.5h2.2c1,0,1.8.7,1.8,1.5s0,.6-.3.9h0s-1.3-.5-2.5-.5-2.5.5-2.5.5h0c-.2-.2-.4-.5-.4-.8M-1624.9,83s.3-.2.8-.3v.4c0,0,0,.2.2.2s.2,0,.2-.2v-.4h.6c1.2,0,1.9.4,1.9.4v4.1l-2.5.4v-.7c0,0,0-.2-.2-.2s-.2,0-.2.2v.7h-.8c0,0,0-4.5,0-4.5h0ZM-1656.9,102.8l27.3-13.9,12.7-1.9,9.6,2.2.9.2h.2l1.1.3h0l23,5.4-74.8,7.7h0ZM-1643.5,151c0,.2-.3.4-.6.6-1.3,1-3.7,1.6-6.5,1.6-4.1,0-7.4-1.4-7.4-3s3.3-3,7.4-3,2,0,2.9.2c.3,0,.6.1.9.2v.5c-.3,0-.7-.2-1.1-.2-.8-.1-1.6-.2-2.6-.2-3.2,0-5.8.8-5.8,1.8s2.6,1.8,5.8,1.8,3.2-.2,4.3-.6c.9-.3,1.5-.7,1.5-1.2s-.4-.8-1.2-1.1v-.5c1.3.4,2.2,1.1,2.5,1.8,0,.2,0,.4,0,.6,0,.3,0,.6-.3.9M-1648.7,149.3c-4.3-.7-6.4,0-6.9.3v-.2c0-.8,2.4-1.4,5.2-1.4s1.9,0,2.7.2c.4,0,.7.1,1,.2v2c-.9.3-2.2.4-3.7.4s-3.2-.2-4.2-.5c1-.8,4.9-.5,5.7-.6.8,0,.2-.4.2-.4M-1645.9,148.7c.4.2.7.4.7.7s-.3.5-.7.7v-1.4ZM-1638.2,150.8l-4.8.2c.2-.3.2-.5.2-.8s0-.6-.3-.9l.3-.4,1.6-2.5c1,1.4,2,2.8,3.1,4v.4h0ZM-1630,159.4l-6.7.7,2.1-2.6,1.2-2.6c1.2,1,2.5,2,3.9,2.8l-.4,1.8h0ZM-1620.1,165.9l-6,.7,1.2-3.1.5-3.4c1.5.6,3,1,4.5,1.3v4.4h-.2ZM-1615.6,169.3l.9-3v-4.2h.3c1.5,0,3-.1,4.5-.4l.5,3.7,1.3,3-7.6.9h0ZM-1614.3,151.2c-20.2,0-30.7-22.6-29.5-49.1l2.7-.3c-.6,2.2,0,3.8,0,4l15.1-1.3c-.5.2-1.2.5-1.8.9l-13.3,1.2v2.5c0,5.8.9,11.4,2.5,16.4-.3.6-.4,1.4-.2,2.3.2,1.1,1,2,2.1,2.7,1,2.2,2.1,4.3,3.3,6.2l1.7-3.7c.4.2.3.2.5.3l-1.7,4.1s-.4,1.6,1.2,3.3c.7.7,1.2.7,1.6.6l2.6-6.3c.2,0,.3,0,.5.1l-2.6,6.5c4.6,5.2,10.2,8.2,15.8,8.2s7-1.3,10.2-3.6c1.4-1,2.8-2.3,4.1-3.6-4.2,5.2-9.3,8.4-14.7,8.4M-1599,159.6l-5.1.3c1.5-.6,2.9-1.4,4.3-2.3l.8,2.1h0ZM-1601,168.8l-3.2.4.9-.7,4.2-.3-2,.6h0ZM-1596.5,167.3l-5.4.6h-1.1c0,.1-.5.2-.5.2v-4.3l-.6-3.4,5.2-.3.8,2.1,1.9,3.2-.4,2h0ZM-1589,164.4l-5.5.5,2.3-1.7,5.7-.5-2.5,1.7ZM-1592.8,161.7c.3,0,.6.1.9.2.2,0,.4,0,.6.1.6.1,1.2.2,1.9.3l-2.9.2-.5-.8ZM-1577.7,157.9c0,2.2-4.3,3.9-9.6,3.9s-2.3,0-3.4-.3c-.2,0-.4,0-.6-.1-3.3-.6-5.6-2-5.6-3.5s4.3-3.9,9.5-3.9,2.1,0,3.1.2c.2,0,.5,0,.7.1.8.1,1.5.3,2.1.5v.7c-.7-.3-1.6-.5-2.7-.6h-.7c-.8,0-1.6-.1-2.5-.1-4.2,0-7.5,1-7.5,2.2s2.6,1.9,6.1,2.1h1.4c2.3,0,4.4-.3,5.8-.8.4-.1.7-.3.9-.4v-.9h0v-.5c.2,0,.3.2.5.5,0,0,0,.2.2.1,0,0,0-.6-.7-1.1h0v-.8c1.7.7,2.8,1.7,2.8,2.7M-1583.1,153.7h-.2v-.5c0,0-1.1-3.2-1.1-3.2l-2.7-4.9,5.7-.2v8.6h-1.7v.2ZM-1581.4,154.1v.3c-.3,0-.6-.2-.9-.2h.9ZM-1585.4,156.5c-.2,0-.4,0-.6-.1h-1.1c-3.1,0-5.6.6-6.3,1.3-.4-.2-.5-.4-.5-.7,0-1,3-1.8,6.7-1.8s1.4,0,2.1,0h.7c1.3.2,2.3.4,3,.7v1.8c-1.2.5-3.3.9-5.8.9h-1c-1.3,0-2.5-.2-3.4-.4-.4-.1-.6-.3-.6-.4,0-.5,2.6-1,5.8-1h.8c.8,0,.9-.2.3-.4M-1578.2,156c-.6-.5-1.3-1-2.3-1.3v-.6h4.1c0-.1-1.8,2-1.8,2h0ZM-1576.9,148.7l1,4.7-4.5.2v-8.6h1.3l.9,1.5,1.4,2.2h-.1ZM-1571.1,145.5l-6.5.2,1.5-3h6.8l-1.7,2.8h-.1ZM-1571,137.9l1.6,4.1h-6.5l-.6-.8-1.7-2.7-2.3-2.6v8.6h0l-.9-.8v.8l-6,.2c.9-1.4,1.8-3,2.6-4.5l3.3,3.4h0c0,.1,0-8.8,0-8.8l.9,1.1v-1.2l6.8.3,2.7,3h0ZM-1565.9,132.3h-6.4c0-.1,1-3.7,1-3.7h0c0-.1,6.2.4,6.2.4l-.8,3.4h0ZM-1568.3,125.2l2.9,3.1-5.8-.3h0l-.5-.5-2.2-2.2-3.9-2.5,7.5.8s2.1,1.6,2.1,1.6ZM-1567.3,118.9l-2.3-.4.6-.3,3.6.6h-1.9ZM-1562.9,118.6l-6.5-.9.4-3.8,6.6,1.1-.6,3.6h0ZM-1565.9,112.5l2.8,1.8-5.8-.9-3.1-2.4,3.2.4,2.9,1h0Z"/>
      <polygon class="st1" points="-1591.4 102.4 -1590.4 102.4 -1589.8 101.4 -1590.8 101.5 -1591.4 102.4"/>
      <polygon class="st1" points="-1654.3 120.6 -1654.3 113.9 -1654.6 113.9 -1655.1 113.7 -1655.2 121.3 -1655 121.1 -1654.3 120.6"/>
      <path class="st1" d="M-1651.9,104.5l-.7.9h.7v-.9"/>
      <polygon class="st1" points="-1657.2 123.9 -1656.2 128 -1655.2 128.2 -1655.2 121.3 -1657.2 123.9"/>
      <polygon class="st1" points="-1652.7 105.4 -1652.9 105.4 -1658 108.7 -1657.9 113 -1655.1 113.7 -1655.1 108.4 -1652.7 105.4"/>
      <path class="st1" d="M-1592.5,130c.3-.8.6-1.7.9-2.5l-.2-22.6h-.9l.2,25.1Z"/>
      <polygon class="st1" points="-1635.8 31.1 -1640 32.9 -1640 43.1 -1635.8 41.6 -1635.8 31.1"/>
      <polygon class="st1" points="-1635.8 77.9 -1640 78.8 -1640 89.5 -1635.8 88.8 -1635.8 77.9"/>
      <polygon class="st1" points="-1635.8 66.3 -1640 67.4 -1640 77.8 -1635.8 76.9 -1635.8 66.3"/>
      <polygon class="st1" points="-1635.8 42.5 -1640 44 -1640 54.6 -1635.8 53.3 -1635.8 42.5"/>
      <polygon class="st1" points="-1635.8 54.3 -1640 55.6 -1640 66.4 -1635.8 65.3 -1635.8 54.3"/>
      <polygon class="st1" points="-1641 67.6 -1644.6 68.5 -1644.6 78.8 -1641 78 -1641 67.6"/>
      <polygon class="st1" points="-1641 55.9 -1644.6 57 -1644.6 67.6 -1641 66.6 -1641 55.9"/>
      <polygon class="st1" points="-1641 79 -1644.6 79.7 -1644.6 90.2 -1641 89.6 -1641 79"/>
      <polygon class="st1" points="-1641 44.4 -1644.6 45.7 -1644.6 56 -1641 54.9 -1641 44.4"/>
      <polygon class="st1" points="-1641 33.3 -1644.6 34.8 -1644.6 44.7 -1641 43.4 -1641 33.3"/>
      <polygon class="st1" points="-1645.6 68.8 -1649.6 69.8 -1649.6 79.8 -1645.6 79 -1645.6 68.8"/>
      <polygon class="st1" points="-1645.6 46 -1649.6 47.4 -1649.6 57.6 -1645.6 56.3 -1645.6 46"/>
      <polygon class="st1" points="-1645.6 80 -1649.6 80.8 -1649.6 91 -1645.6 90.4 -1645.6 80"/>
      <polygon class="st1" points="-1645.6 35.2 -1649.6 36.9 -1649.6 46.5 -1645.6 45 -1645.6 35.2"/>
      <polygon class="st1" points="-1645.6 57.3 -1649.6 58.5 -1649.6 68.9 -1645.6 67.8 -1645.6 57.3"/>
      <polygon class="st1" points="-1629.3 76.5 -1634.8 77.7 -1634.8 88.6 -1629.3 87.7 -1629.3 76.5"/>
      <path class="st1" d="M-1628.1,89.5l5,8.6,4.4-10-9.4,1.4ZM-1625.6,89.8v2.9l-1.5-2.6,1.5-.2h0ZM-1623.3,96.7l-.5-.8v-.4c0,0,0-.2-.2-.2s0,0,0,0l-.8-1.5v-4.1h.8c0,0,0,4,0,4,0,0,0,.2.2.2s.2,0,.2-.2v-4.2l2.5-.4v3l-2,4.6h0Z"/>
      <path class="st1" d="M-1652.9,101.8l28.9-3.1-14.6-4.2s-14.3,7.3-14.3,7.3ZM-1645.6,98.7l1-.5v2h-1c0,0,0-1.5,0-1.5ZM-1641,96.4l1-.5v3.9h-1c0,0,0-3.4,0-3.4ZM-1635.8,96l1,.3v3h-1c0,0,0-3.2,0-3.2h0ZM-1629.3,98.6v-.8l1.9.6s-1.9.2-1.9.2Z"/>
      <path class="st1" d="M-1607.5,90l-9.4-2.1h-1c0,0-4.2,9.6-4.2,9.6l14.6-7.4h0ZM-1616.7,88.5l.2.6h2.4l1.6.4c0,0,.2,1.2,1,1.8l-1.4.7c-1.5-1.3-3.3-2.1-5.2-2.1h0c0,0,.8-.5.8-.5,0,0-.2-.5-.3-.8h.9Z"/>
      <path class="st1" d="M-1629,89.6h-.3l-8.4,4.3,13.5,3.9-4.8-8.3h0ZM-1625.5,96.8l-3.8-1.1v-5.3l3.8,6.4ZM-1635.8,93.7l1-.5v.9l-1-.3h0Z"/>
      <path class="st1" d="M-1606.3,90.3l-16.2,8.3,35.9-3.8-19.7-4.5h0ZM-1611.3,93.5l3-1.6c.5.8.9,1.7,1.3,2.7.2.5.3,1,.5,1.6l-3.2.3c-.4-1.1-.9-2.1-1.5-3M-1603.4,91.6l.8.2c.7,1.2,1.3,2.5,1.7,3.8h-.6c-.4-1.4-1.1-2.8-1.9-4M-1598.6,92.7l8.2,1.9-7.2.8c-.2-.9-.5-1.8-.9-2.6"/>
      <path class="st1" d="M-1629.7,100.8c-.2,0-.4,0-.4.3s.2.3.4.3.4,0,.4-.3-.2-.3-.4-.3"/>
      <path class="st1" d="M-1609,121.1c.2,0,.2-.3,0-.5,0,0-.3,0-.5,0s-.2.3,0,.5c0,0,.3,0,.5,0"/>
      <path class="st1" d="M-1609.2,122h0v.5c.2.2.5.3.6,0,.2-.2.2-.5,0-.7,0,0-.2,0-.3-.2v-.3c0-.2-.4-.2-.5,0-.2,0-.2.4,0,.5"/>
      <path class="st1" d="M-1628.7,109.1c-.3,0-.4.5-.2.8,0,.3.5.5.8.4s.4-.5.2-.8c0-.3-.5-.5-.7-.4"/>
      <path class="st1" d="M-1627.7,110.3c0,0-.2.4,0,.5.2.2.4.2.5,0,.2,0,.2-.4,0-.5,0-.2-.4-.2-.5,0"/>
      <path class="st1" d="M-1627.5,111.6c-.2,0,0,.5,0,.8.2.3.5.4.7.3s0-.5,0-.8c-.2-.3-.5-.4-.7-.3"/>
      <path class="st1" d="M-1622.7,114.1c0,0,0-.3,0-.4s-.3-.2-.4,0,0,.3,0,.4.3.2.4,0"/>
      <path class="st1" d="M-1620.9,114.2c0,0,0-.3,0-.4s-.3-.2-.4,0v.4c0,0,.3,0,.4,0"/>
      <path class="st1" d="M-1616.3,116.5v-.3c0,0-.3-.2-.3,0v.4c0,0,.2.2.3,0"/>
      <path class="st1" d="M-1612.8,117.7v-.2h-.2v.2h.2"/>
      <path class="st1" d="M-1614.2,118.2c.2-.2.2-.6,0-.9-.3-.3-.7-.3-.9,0-.2.2-.2.6,0,.9.3.3.7.3.9,0"/>
      <path class="st1" d="M-1623.6,102.8c0,0,.2,0,.2-.2s0-.2-.2-.2-.2,0-.2.2,0,.2.2.2"/>
      <path class="st1" d="M-1628.6,103s-.2,0-.2,0,0,0,.2,0,.2,0,.2,0,0,0-.2,0"/>
      <path class="st1" d="M-1621.4,102.7c0,0,.2,0,.2-.2s0-.2-.2-.2-.2,0-.2.2,0,.2.2.2"/>
      <path class="st1" d="M-1618.6,105c.2,0,.3,0,.3-.2s0-.2-.3-.2-.3,0-.3.2,0,.2.3.2"/>
      <path class="st1" d="M-1619.7,104.5h0c0,0-.2,0-.2.2s0,.2.2.2.2,0,.2,0c0,0,0,0,0,0s0,0-.2,0,0,0,0,0"/>
      <path class="st1" d="M-1619.9,103.8c0,0,.2,0,.2-.2s0-.2-.2-.2-.2,0-.2.2,0,.2.2.2"/>
      <path class="st1" d="M-1622.4,103.1s0,0,.2,0,.2,0,.2-.2,0,0,0,0h0c0,0,0-.2-.3-.2s-.3,0-.3.2,0,.2.2.2"/>
      <path class="st1" d="M-1625.2,102.3c0,0,.2,0,.2-.2s0-.2-.2-.2-.2,0-.2.2,0,.2.2.2"/>
      <path class="st1" d="M-1637.5,126.8c0,0,.2,0,.2-.3s0-.3-.2-.3-.2,0-.2.3,0,.3.2.3"/>
      <path class="st1" d="M-1636.1,129.7c.2,0,.3-.1.3-.3s0-.3-.3-.3-.3.1-.3.3,0,.3.3.3"/>
      <path class="st1" d="M-1635.4,129.7s0-.1,0-.2,0-.3,0-.3-.2.1-.2.3,0,.2.2.2"/>
      <path class="st1" d="M-1623.9,105.5c0,0-.2,0-.2.2v.4c0,0,0,.2.2.2s.2,0,.2-.2v-.4c0,0,0-.2-.2-.2"/>
      <path class="st1" d="M-1623.9,106.5c0,0-.2,0-.2.2v.2c0,0,0,.2.2.2s.2,0,.2-.2v-.2c0,0,0-.2-.2-.2"/>
      <path class="st1" d="M-1623.9,107.4c0,0-.2,0-.2.2v.2c0,0,0,.2.2.2s.2,0,.2-.2v-.2c0,0,0-.2-.2-.2"/>
      <path class="st1" d="M-1623.9,85.5c0,0,.2,0,.2-.2v-1.3c0,0,0-.2-.2-.2s-.2,0-.2.2v1.3c0,0,0,.2.2.2"/>
    </g>
    <g>
      <path class="st0" d="M-1547.9,117.1h3.2v20.1h-3.2v-20.1Z"/>
      <path class="st0" d="M-1528.3,128.2v9h-3.1v-9.3c0-2.1-1.3-3.3-3-3.3s-3.3,1.5-3.3,3.5v9.1h-3.1v-15h3.1v2c.7-1.2,2.2-2.3,4.2-2.3,3.9,0,5.2,3.1,5.2,6.4h0Z"/>
      <path class="st0" d="M-1524,133.1c.7,1,1.7,2,3.6,2s2.3-.7,2.3-1.9c0-2.9-7.3-1.8-7.3-7.1s2.2-4.3,5.2-4.3,4.3,1.6,4.9,2.8l-2.2,1.4c-.4-.7-1.2-1.7-2.9-1.7s-2,.6-2,1.6c0,2.9,7.3,1.7,7.3,7s-2.4,4.6-5.4,4.6-4.7-1.6-5.4-3l2-1.6v.2Z"/>
      <path class="st0" d="M-1512.3,119.1h3.1v3.1h3.1v2.6h-3.1v7c0,2.3.9,2.8,2.6,2.8s.6,0,.6,0v2.7s-.5.1-1.5.1c-3.7,0-4.7-2.4-4.7-6.1v-6.5h-1.7v-2.6h1.7v-3.1h0Z"/>
      <path class="st0" d="M-1502,116.6c1.1,0,2,.9,2,2s-.9,2-2,2-2-.9-2-2,.9-2,2-2ZM-1503.6,122.3h3.1v15h-3.1v-15Z"/>
      <path class="st0" d="M-1496.7,119.1h3.1v3.1h3.1v2.6h-3.1v7c0,2.3.9,2.8,2.6,2.8s.6,0,.6,0v2.7s-.5.1-1.5.1c-3.7,0-4.7-2.4-4.7-6.1v-6.5h-1.7v-2.6h1.7v-3.1h0Z"/>
      <path class="st0" d="M-1488,131.3v-9h3.1v9.3c0,2.1,1.3,3.3,3,3.3s3.3-1.4,3.3-3.5v-9.1h3.1v15h-3.1v-2c-.7,1.2-2.2,2.3-4.2,2.3-3.9,0-5.2-3.1-5.2-6.4h0Z"/>
      <path class="st0" d="M-1471.8,119.1h3.1v3.1h3.1v2.6h-3.1v7c0,2.3.9,2.8,2.6,2.8s.6,0,.6,0v2.7s-.5.1-1.5.1c-3.7,0-4.7-2.4-4.7-6.1v-6.5h-1.7v-2.6h1.7v-3.1h0Z"/>
      <path class="st0" d="M-1456,121.9c4.6,0,8,3.4,8,7.9s-3.4,7.9-8,7.9-7.9-3.3-7.9-7.9,3.4-7.9,7.9-7.9ZM-1456,134.9c2.8,0,4.8-2.2,4.8-5.1s-2-5.1-4.8-5.1-4.8,2.2-4.8,5.1,2,5.1,4.8,5.1Z"/>
      <path class="st0" d="M-1437.9,117.1h5.8c3.8,0,6.4,2.4,6.4,6s-2.8,6.1-6.4,6.1h-2.7v8h-3.2v-20.1h0ZM-1432.4,126.5c2.1,0,3.5-1.3,3.5-3.3s-1.4-3.3-3.5-3.3h-2.3v6.6s2.3,0,2.3,0Z"/>
      <path class="st0" d="M-1416.1,121.9c4.6,0,8,3.4,8,7.9s-3.4,7.9-8,7.9-7.9-3.3-7.9-7.9,3.4-7.9,7.9-7.9ZM-1416.1,134.9c2.8,0,4.8-2.2,4.8-5.1s-2-5.1-4.8-5.1-4.8,2.2-4.8,5.1,2,5.1,4.8,5.1Z"/>
      <path class="st0" d="M-1405.5,116.5h3.1v20.8h-3.1v-20.8Z"/>
      <path class="st0" d="M-1397.3,116.6c1.1,0,2,.9,2,2s-.9,2-2,2-2-.9-2-2,.9-2,2-2ZM-1398.9,122.3h3.1v15h-3.1v-15Z"/>
      <path class="st0" d="M-1392,119.1h3.1v3.1h3.1v2.6h-3.1v7c0,2.3.9,2.8,2.6,2.8s.6,0,.6,0v2.7s-.5.1-1.5.1c-3.7,0-4.7-2.4-4.7-6.1v-6.5h-1.7v-2.6h1.7v-3.1h0Z"/>
      <path class="st0" d="M-1376.8,121.9c4.5,0,7.2,3.1,7.2,7.9s0,.5,0,.8h-11.3c0,2.7,2,4.4,4.7,4.4s3.6-1.3,4.1-2.1l2.1,1.6c-.7,1.2-2.7,3.3-6.3,3.3s-7.8-3.3-7.8-7.8,3.2-7.9,7.3-7.9v-.2ZM-1372.7,128.4c0-2.5-1.8-3.9-4-3.9s-3.8,1.5-4,3.9h8ZM-1376.5,116.4h3.3l-2.7,4.1h-2.6l2-4.1h0Z"/>
      <path class="st0" d="M-1356,126.4c-.7-.7-2.1-1.6-4-1.6-2.8,0-4.7,2.2-4.7,5s2.1,5.1,4.9,5.1,3.3-1.1,3.9-1.7l.9,2.6c-.7.7-2.5,1.9-5,1.9-4.6,0-7.9-3.4-7.9-7.9s3.4-7.9,7.8-7.9,4.1,1.1,5,1.8l-.9,2.6h0Z"/>
      <path class="st0" d="M-1340,128.2v9h-3.1v-9.3c0-2.1-1.3-3.3-3-3.3s-3.3,1.5-3.3,3.5v9.1h-3.1v-15h3.1v2c.7-1.2,2.2-2.3,4.2-2.3,3.9,0,5.2,3.1,5.2,6.4h0Z"/>
      <path class="st0" d="M-1335.1,116.6c1.1,0,2,.9,2,2s-.9,2-2,2-2-.9-2-2,.9-2,2-2ZM-1336.7,122.3h3.1v15h-3.1v-15Z"/>
      <path class="st0" d="M-1319,126.4c-.7-.7-2.1-1.6-4-1.6-2.8,0-4.7,2.2-4.7,5s2.1,5.1,4.9,5.1,3.3-1.1,3.9-1.7l.9,2.6c-.7.7-2.5,1.9-5,1.9-4.6,0-7.9-3.4-7.9-7.9s3.4-7.9,7.8-7.9,4.1,1.1,5,1.8l-.9,2.6h0Z"/>
      <path class="st0" d="M-1308.6,121.9c4.6,0,8,3.4,8,7.9s-3.4,7.9-8,7.9-7.9-3.3-7.9-7.9,3.4-7.9,7.9-7.9ZM-1308.6,134.9c2.8,0,4.8-2.2,4.8-5.1s-2-5.1-4.8-5.1-4.8,2.2-4.8,5.1,2,5.1,4.8,5.1Z"/>
      <path class="st0" d="M-1290.5,117.1h3.2l9.9,15.1v-15.1h3.1v20.1h-3.2l-9.9-15.1v15.1h-3.2v-20.1h0Z"/>
      <path class="st0" d="M-1265.5,127.7c1.7,0,3,.6,3.6,1.1v-1.4c0-1.7-1.2-2.8-3.2-2.8s-3.1.6-4.2,1.2l-1.2-2.2c1.2-.8,3.2-1.7,5.7-1.7,4.5,0,6,2.4,6,5.7v9.7h-2.7l-.3-1.1c-.8.9-2,1.5-3.9,1.5-3.2,0-5.7-2-5.7-5s2.4-5,5.8-5h0ZM-1265,135.2c1.8,0,3.2-1,3.2-2.6s-1.3-2.6-3.2-2.6-3.2,1.1-3.2,2.6,1.3,2.6,3.2,2.6Z"/>
      <path class="st0" d="M-1244.5,126.4c-.7-.7-2.1-1.6-4-1.6-2.8,0-4.7,2.2-4.7,5s2.1,5.1,4.9,5.1,3.3-1.1,3.9-1.7l.9,2.6c-.7.7-2.5,1.9-5,1.9-4.6,0-7.9-3.4-7.9-7.9s3.4-7.9,7.8-7.9,4.1,1.1,5,1.8l-.9,2.6h0Z"/>
      <path class="st0" d="M-1239.5,116.6c1.1,0,2,.9,2,2s-.9,2-2,2-2-.9-2-2,.9-2,2-2ZM-1241.1,122.3h3.1v15h-3.1v-15Z"/>
      <path class="st0" d="M-1227.4,121.9c4.6,0,8,3.4,8,7.9s-3.4,7.9-8,7.9-7.9-3.3-7.9-7.9,3.4-7.9,7.9-7.9ZM-1227.4,134.9c2.8,0,4.8-2.2,4.8-5.1s-2-5.1-4.8-5.1-4.8,2.2-4.8,5.1,2,5.1,4.8,5.1Z"/>
      <path class="st0" d="M-1204.3,128.2v9h-3.1v-9.3c0-2.1-1.3-3.3-3-3.3s-3.3,1.5-3.3,3.5v9.1h-3.1v-15h3.1v2c.7-1.2,2.2-2.3,4.2-2.3,3.9,0,5.2,3.1,5.2,6.4h0Z"/>
      <path class="st0" d="M-1196,127.7c1.7,0,3,.6,3.6,1.1v-1.4c0-1.7-1.2-2.8-3.2-2.8s-3.1.6-4.2,1.2l-1.2-2.2c1.2-.8,3.2-1.7,5.7-1.7,4.5,0,6,2.4,6,5.7v9.7h-2.7l-.3-1.1c-.8.9-2,1.5-3.9,1.5-3.2,0-5.7-2-5.7-5s2.4-5,5.8-5h0ZM-1195.5,135.2c1.8,0,3.2-1,3.2-2.6s-1.3-2.6-3.2-2.6-3.2,1.1-3.2,2.6,1.3,2.6,3.2,2.6Z"/>
      <path class="st0" d="M-1186,116.5h3.1v20.8h-3.1v-20.8Z"/>
      <path class="st0" d="M-1526.1,153.6c-.9,0-1.6-.6-1.6-1.6,0-1.7.9-3.1,2-4l1,1c-.4.3-1.1,1-1.2,1.6.8.1,1.3.8,1.3,1.5s-.7,1.5-1.5,1.5h0ZM-1522.4,153.6c-.9,0-1.6-.6-1.6-1.6,0-1.7.9-3.1,2-4l1,1c-.4.3-1.1,1-1.2,1.6.8.1,1.3.8,1.3,1.5s-.7,1.5-1.5,1.5h0Z"/>
      <path class="st0" d="M-1518.6,148.5h2.4v12.8h5.2v2.1h-7.6v-14.9h0Z"/>
      <path class="st0" d="M-1505.6,156.3c1.3,0,2.2.4,2.7.8v-1c0-1.3-.9-2-2.4-2s-2.3.4-3.1.9l-.9-1.6c.9-.6,2.4-1.3,4.2-1.3,3.3,0,4.4,1.8,4.4,4.2v7.2h-2l-.2-.8c-.6.6-1.5,1.1-2.9,1.1-2.3,0-4.2-1.5-4.2-3.7s1.7-3.7,4.3-3.7h0ZM-1505.2,161.8c1.4,0,2.3-.8,2.3-1.9s-1-1.9-2.4-1.9-2.3.8-2.3,1.9,1,1.9,2.4,1.9Z"/>
      <path class="st0" d="M-1490,150.6h-3.8v-2.1h9.9v2.1h-3.8v12.8h-2.4v-12.8h.1Z"/>
      <path class="st0" d="M-1477.2,152c3.4,0,5.3,2.3,5.3,5.8s0,.4,0,.6h-8.4c0,2,1.5,3.3,3.5,3.3s2.6-.9,3.1-1.6l1.5,1.2c-.5.9-2,2.4-4.6,2.4s-5.8-2.4-5.8-5.8,2.4-5.9,5.4-5.9ZM-1474.2,156.8c0-1.8-1.4-2.9-3-2.9s-2.8,1.1-3,2.9h6ZM-1477,147.9h2.5l-2,3h-2l1.5-3Z"/>
      <path class="st0" d="M-1461.9,155.3c-.5-.5-1.5-1.2-2.9-1.2-2.1,0-3.5,1.6-3.5,3.7s1.5,3.8,3.6,3.8,2.4-.8,2.9-1.2l.7,1.9c-.6.5-1.8,1.4-3.7,1.4-3.4,0-5.8-2.5-5.8-5.8s2.5-5.8,5.8-5.8,3.1.8,3.7,1.4l-.7,2v-.2Z"/>
      <path class="st0" d="M-1450,156.7v6.7h-2.3v-6.9c0-1.5-1-2.4-2.2-2.4s-2.4,1.1-2.4,2.6v6.7h-2.3v-11.1h2.3v1.4c.5-.9,1.6-1.7,3.1-1.7,2.9,0,3.9,2.3,3.9,4.7h0Z"/>
      <path class="st0" d="M-1446.3,148.1c.8,0,1.4.6,1.4,1.4s-.6,1.4-1.4,1.4-1.4-.6-1.4-1.4.6-1.4,1.4-1.4ZM-1447.5,152.3h2.3v11.1h-2.3v-11.1Z"/>
      <path class="st0" d="M-1434.5,155.3c-.5-.5-1.5-1.2-2.9-1.2-2.1,0-3.5,1.6-3.5,3.7s1.5,3.8,3.6,3.8,2.4-.8,2.9-1.2l.7,1.9c-.6.5-1.8,1.4-3.7,1.4-3.4,0-5.8-2.5-5.8-5.8s2.5-5.8,5.8-5.8,3.1.8,3.7,1.4l-.7,2v-.2Z"/>
      <path class="st0" d="M-1428.3,156.3c1.3,0,2.2.4,2.7.8v-1c0-1.3-.9-2-2.4-2s-2.3.4-3.1.9l-.9-1.6c.9-.6,2.4-1.3,4.2-1.3,3.3,0,4.4,1.8,4.4,4.2v7.2h-2l-.2-.8c-.6.6-1.5,1.1-2.9,1.1-2.3,0-4.2-1.5-4.2-3.7s1.7-3.7,4.3-3.7h0ZM-1427.9,161.8c1.4,0,2.3-.8,2.3-1.9s-1-1.9-2.4-1.9-2.3.8-2.3,1.9,1,1.9,2.4,1.9Z"/>
      <path class="st0" d="M-1411.9,156.3c1.3,0,2.2.4,2.7.8v-1c0-1.3-.9-2-2.4-2s-2.3.4-3.1.9l-.9-1.6c.9-.6,2.4-1.3,4.2-1.3,3.3,0,4.4,1.8,4.4,4.2v7.2h-2l-.2-.8c-.6.6-1.5,1.1-2.9,1.1-2.3,0-4.2-1.5-4.2-3.7s1.7-3.7,4.3-3.7h0ZM-1411.5,161.8c1.4,0,2.3-.8,2.3-1.9s-1-1.9-2.4-1.9-2.3.8-2.3,1.9,1,1.9,2.4,1.9Z"/>
      <path class="st0" d="M-1404.5,148h2.3v15.4h-2.3v-15.4Z"/>
      <path class="st0" d="M-1392.9,159.4c.4,1.1,1.3,2.1,2.9,2.1s2.2-.7,2.2-2c0-3.2-6.7-2.5-6.7-7.2s1.7-4,4.5-4,4,2,4.4,3l-2,.9c-.3-.7-1-1.7-2.5-1.7s-2.1.8-2.1,1.8c0,2.9,6.8,2.4,6.8,7.1s-1.8,4.4-4.8,4.4-4.4-2-4.8-3.4l2-.9h0Z"/>
      <path class="st0" d="M-1378.5,152c3.4,0,5.3,2.3,5.3,5.8s0,.4,0,.6h-8.4c0,2,1.5,3.3,3.5,3.3s2.6-.9,3.1-1.6l1.5,1.2c-.5.9-2,2.4-4.6,2.4s-5.8-2.4-5.8-5.8,2.4-5.9,5.4-5.9ZM-1375.5,156.8c0-1.8-1.4-2.9-3-2.9s-2.8,1.1-3,2.9h6Z"/>
      <path class="st0" d="M-1365.8,154.3c-2.4,0-3.1,1.9-3.1,4.3v4.8h-2.3v-11.1h2.3v1.7c.4-1.1,1.6-2,3.2-2v2.3h0Z"/>
      <path class="st0" d="M-1360.5,163.4l-4.1-11.1h2.5l3,8.6,3-8.6h2.4l-4.1,11.1h-2.7Z"/>
      <path class="st0" d="M-1351.2,148.1c.8,0,1.4.6,1.4,1.4s-.6,1.4-1.4,1.4-1.4-.6-1.4-1.4.6-1.4,1.4-1.4ZM-1352.3,152.3h2.3v11.1h-2.3v-11.1Z"/>
      <path class="st0" d="M-1339.3,155.3c-.5-.5-1.5-1.2-2.9-1.2-2.1,0-3.5,1.6-3.5,3.7s1.5,3.8,3.6,3.8,2.4-.8,2.9-1.2l.7,1.9c-.6.5-1.8,1.4-3.7,1.4-3.4,0-5.8-2.5-5.8-5.8s2.5-5.8,5.8-5.8,3.1.8,3.7,1.4l-.7,2v-.2Z"/>
      <path class="st0" d="M-1335.6,148.1c.8,0,1.4.6,1.4,1.4s-.6,1.4-1.4,1.4-1.4-.6-1.4-1.4.6-1.4,1.4-1.4ZM-1336.7,152.3h2.3v11.1h-2.3v-11.1Z"/>
      <path class="st0" d="M-1326.6,152c3.4,0,5.9,2.5,5.9,5.8s-2.5,5.8-5.9,5.8-5.9-2.5-5.9-5.8,2.5-5.9,5.9-5.9h0ZM-1326.6,161.6c2.1,0,3.6-1.6,3.6-3.8s-1.5-3.8-3.6-3.8-3.5,1.6-3.5,3.8,1.5,3.8,3.5,3.8Z"/>
      <path class="st0" d="M-1302.9,163.4h-2.2v-1.4c-.3.4-1.4,1.7-3.6,1.7-3.2,0-5.4-2.4-5.4-5.8s2.1-5.9,5.3-5.9,3.3,1.3,3.6,1.8v-5.8h2.3v15.4h0ZM-1308.5,154c-1.9,0-3.3,1.6-3.3,3.8s1.4,3.8,3.3,3.8,3.3-1.7,3.3-3.8-1.5-3.8-3.3-3.8Z"/>
      <path class="st0" d="M-1295.5,152c3.4,0,5.3,2.3,5.3,5.8s0,.4,0,.6h-8.4c0,2,1.5,3.3,3.5,3.3s2.6-.9,3.1-1.6l1.5,1.2c-.5.9-2,2.4-4.6,2.4s-5.8-2.4-5.8-5.8,2.4-5.9,5.4-5.9ZM-1292.6,156.8c0-1.8-1.4-2.9-3-2.9s-2.8,1.1-3,2.9h6Z"/>
      <path class="st0" d="M-1283,148h2.3v15.4h-2.3v-15.4Z"/>
      <path class="st0" d="M-1274.4,156.3c1.3,0,2.2.4,2.7.8v-1c0-1.3-.9-2-2.4-2s-2.3.4-3.1.9l-.9-1.6c.9-.6,2.4-1.3,4.2-1.3,3.3,0,4.4,1.8,4.4,4.2v7.2h-2l-.2-.8c-.6.6-1.5,1.1-2.9,1.1-2.3,0-4.2-1.5-4.2-3.7s1.7-3.7,4.3-3.7h0ZM-1274,161.8c1.4,0,2.3-.8,2.3-1.9s-1-1.9-2.4-1.9-2.3.8-2.3,1.9,1,1.9,2.4,1.9Z"/>
      <path class="st0" d="M-1261.4,148.5h4.3c2.8,0,4.8,1.8,4.8,4.5s-2,4.5-4.8,4.5h-2v5.9h-2.4v-14.9h0ZM-1257.3,155.4c1.6,0,2.6-1,2.6-2.5s-1.1-2.4-2.6-2.4h-1.7v4.9h1.7Z"/>
      <path class="st0" d="M-1246.8,156.3c1.3,0,2.2.4,2.7.8v-1c0-1.3-.9-2-2.4-2s-2.3.4-3.1.9l-.9-1.6c.9-.6,2.4-1.3,4.2-1.3,3.3,0,4.4,1.8,4.4,4.2v7.2h-2l-.2-.8c-.6.6-1.5,1.1-2.9,1.1-2.3,0-4.2-1.5-4.2-3.7s1.7-3.7,4.3-3.7h0ZM-1246.5,161.8c1.4,0,2.3-.8,2.3-1.9s-1-1.9-2.4-1.9-2.3.8-2.3,1.9,1,1.9,2.4,1.9Z"/>
      <path class="st0" d="M-1239.2,149.9h2.3v2.3h2.3v1.9h-2.3v5.2c0,1.7.7,2.1,1.9,2.1s.4,0,.4,0v2h-1.1c-2.7,0-3.5-1.8-3.5-4.5v-4.8h-1.2v-1.9h1.2v-2.3h0Z"/>
      <path class="st0" d="M-1227.3,154.3c-2.4,0-3.1,1.9-3.1,4.3v4.8h-2.3v-11.1h2.3v1.7c.4-1.1,1.6-2,3.2-2v2.3h0Z"/>
      <path class="st0" d="M-1224.4,148.1c.8,0,1.4.6,1.4,1.4s-.6,1.4-1.4,1.4-1.4-.6-1.4-1.4.6-1.4,1.4-1.4ZM-1225.5,152.3h2.3v11.1h-2.3v-11.1Z"/>
      <path class="st0" d="M-1217,156.3c1.3,0,2.2.4,2.7.8v-1c0-1.3-.9-2-2.4-2s-2.3.4-3.1.9l-.9-1.6c.9-.6,2.4-1.3,4.2-1.3,3.3,0,4.4,1.8,4.4,4.2v7.2h-2l-.2-.8c-.6.6-1.5,1.1-2.9,1.1-2.3,0-4.2-1.5-4.2-3.7s1.7-3.7,4.3-3.7h0ZM-1216.6,161.8c1.4,0,2.3-.8,2.3-1.9s-1-1.9-2.4-1.9-2.3.8-2.3,1.9,1,1.9,2.4,1.9Z"/>
      <path class="st0" d="M-1208.7,147.9c.9,0,1.6.6,1.6,1.6,0,1.7-.8,3.1-2,4l-1-1c.4-.3,1.1-1,1.2-1.6-.8-.1-1.2-.8-1.2-1.5s.6-1.5,1.5-1.5h0ZM-1205,147.9c.9,0,1.6.6,1.6,1.6,0,1.7-.8,3.1-2,4l-1-1c.4-.3,1.1-1,1.2-1.6-.8-.1-1.2-.8-1.2-1.5s.6-1.5,1.5-1.5h0Z"/>
    </g>
  </g>
  <g>
    <g>
      <path class="st2" d="M93,85.9s0,0,0,0l7.8-18.9-4.7,1-1.5,3.5-13.2,2.8-1.1-2.7h-.6c0,.1,4.9,11.7,4.9,11.7,3.1.3,5.8,1,8.2,2.7M94.5,72.2l-4.5,10.7c-2.4-.2-4.8-.1-4.8-.1l-3.3-8,12.7-2.6Z"/>
      <path class="st2" d="M103.9,136.5c.5-.8,1-1.7,1.4-2.5l-8.2-19.3-1.1-2.6c-.5.7-1,1.3-1.5,2l.9,2.2,8.5,20.2Z"/>
      <polygon class="st2" points="49.7 73.7 49.7 66.2 49.4 66 47.5 70.9 48.2 72.1 49.7 73.7"/>
      <path class="st2" d="M131.3,104.9h-.5c0,1.6-.1,3.2-.2,4.9l-7-1.2c.1-1.7.2-3.4.3-5.2l6.9,1.4c0-.2,0-.3,0-.5l-6.5-1.5,3.6-.3,2.9-.8h.3c0,0,.4,0,.4,0l5.4,1.3-6.4,1.3.4.7.6-.2,7.2-1.7v-4.7c0,0-7.3-2-7.3-2h0c0-1.4,0-2.7-.2-4l2.9-1.3,3.9-2.5-.5-4.8-7.5-2.9h0c0-.3-.1-.5-.1-.8l2.4-1.7,4-4.4-1.8-4.5-7.7-3.4-1.2.5.7-1,7.2-1.5v-5.1l-3.8-2v-27.9h0s-6.7-4.5-6.7-4.5l-5.8,2.1v6.7l-6.8-4.2-5.5,2v28.7l-8.3,2v-4.9l4.5-1.3c2.7-.8,2.8-2.4,2.8-3.2v-11.2c0-2.5-1.5-3.3-1.5-3.3l-3.5-2.1c-2.9-1.7-4.7-.9-4.7-.9l-8.9,3.2v5.3l-1.1-.6v-8.6l-13.5-7v.7l3.9,2v10l-3.9-1.9v-10.2h0v-.7l-5.5,2.3v10.5l5.1-1.8v1l-5.1,1.8v10.8l5.1-1.6v1l-5.1,1.6v11.1l5.1-1.3v1l-5.1,1.3v10.7l5.5-1.2v-10.2h0v-.7l3.2,1.6v2.2l-1.9.5v4.7l53.6-12.1,6.8,3.2-6.8,1.4-5-2.4-16,3.6c.5.8.9,1.7,1.3,2.6,0,.1,0,.2.2.3h-.6c0,0,0,0,0,0,0,0-.2-.6-.4-.8l-8.4,19.9h-.6c0-.1,1.2-3.1,1.2-3.1l4.6-10.9,1.2-2.8.6-1.4.3-.7.9-1.9c-.3-.5-.6-1-.7-1.3l-2.4.5-1.5,3.5-.3.7-.5,1.1v.3c-.1,0-4.5,10.6-4.5,10.6l-1.3,3.2-.2.5-.3.6h-.3c0,0-.4-.2-.4-.2l.4-.9c-2.3-1.7-5.1-2.7-8-3-.3,0-.5,0-.8,0l-2-4.8-2.9-6.8-2.1.5,1.7,4c-.3-.3-.6-.5-1-.5h-.1c0-.1-1.3-3.4-1.3-3.4l-4.3.9v1.7l1.8,4.1c-.2.3-.4.7-.4,1.2,0,.7.4,1.4,1,1.8v4.4l-4,.6c0,0-.1,0-.2,0l-1.2.6-3.7.6v1.3l-1,.5v-1.6l-4.2.7v3.1l-1,.5v-3.5l-3.6.6v4.7l-1,.5v-5l-4.1.7v6.4l-.7.4v-17.6l-2.1-.8h-2.7c0,0-1.1,4.4-1.1,4.4l2.1,2,3.6,1.9c-.2,1.5-.4,3-.6,4.5l-2.5-.3-4,.8-.4,4.2,3.7,2,1.6.3-4.3,2.2c-.3.1-.4.4-.3.7,0,.3.4.5.6.4l4.9-.5c0,.5,0,1.1,0,1.6l1.4-1.7,4.7,5.9v29c.3.8.7,1.6,1.1,2.4h-1.1s0-2.4,0-2.4c-.2-.4-.4-.9-.6-1.3-.1-.3-.2-.6-.4-.9v-26.6s-3.7-4.9-3.7-4.9l-3.7,4.5v5.3s2.7.4,2.7.4c.1,1.4.3,2.9.5,4.2l.5,3.9.8,3.1c.2.8.4,1.6.6,2.4l-4.1-.2,3.6-2.3c-.5-2.2-.9-4.5-1.3-6.9l-3.2,2.1v7.7s5.2.3,5.2.3c.1.5.3,1,.4,1.5l-3.2,3.3-1.6,3.3,1.7,4h4.9s0,4.6,0,4.6l.9-2h0v-2.7h1.4s.2,0,.2,0v.2c-.1,0-1.7,2.5-1.7,2.5v4.1c-.3,0-.6-.2-.9-.3v-1.8l-.8,1.7c-.9-.2-2-.3-3-.3s-2.6.1-3.7.4v-18.8s-.5,0-.5,0h-.3c0,0,0,19.1,0,19.1-1.9.6-3.2,1.7-3.2,2.8,0,1.9,3.5,3.5,7.8,3.5s6-.9,7.2-2.1l5-.2-1.1,2.7v4.6c0,0,2.1,2,2.1,2l7.2-.6v.2s.3,5.6.3,5.6l2.8,1.4,7-.7,1,2.8,3.3.6,8.1-.8v.3c.1,0,.2.1.2.1v.3c.1,0,3,0,3,0l5-.7,3.4-1,.5-2.3,6.9-.7,3.4-2.6c4.6-.4,8.1-2.2,8.1-4.3s-.2-1-.6-1.5l2.5-2.9-1.2-5.2-1.4-2.3,7.2-.3,2.1-3.6-2-4.7-2.6-3.2c.2-.5.3-1.1.5-1.6l7,.2,1.1-4.5-2.8-3.2-3-2.3c.2-1.3.5-2.7.7-4.1l2.3.4,4.8-.4.8-4.2-3.7-2.5-3.4-1.3c0-1.7.2-3.4.2-5.1h-.3ZM131.5,97.1l6.8,1.8v3.7c0,0-6.7-1.6-6.7-1.6h0v-4c-.1,0,0,0,0,0ZM117.3,42.5l-6.3-12.1,6.3,3.8v8.2ZM110.5,43.2l6.8,13.6h0c0,0-6.8,1.7-6.8,1.7v-15.4ZM90.9,42.3l1.9,1v4.2c0,.3-.2.6-.5.6l-1.4.4v-6.3ZM95.2,56.4c1.1.5,1,1.6,1,1.6v4l-5.3,1.3v-8.7c1.3.5,3.5,1.5,4.3,1.8M96.3,52.6c2.1-.7,2-2.8,2-2.8,0,0,0-11.4,0-12.4s-.6-1.5-.6-1.5c0,0,2.4,1.4,4.1,2.3,1.7.9,1.6,3.2,1.6,3.2v11c0,1.9-2.4,2.7-2.4,2.7l-4.5,1.3-5.2-2.3s2.8-.9,4.9-1.6M92.3,41.2h0c.3,0,.5,0,.5.4v1.1l-1.9-1h0s1.4-.5,1.4-.5ZM83.8,42.7l-3.2-1.6v-8l3.2,1.7v7.9ZM77.9,40.9v-9.2l2.1,1.1v8l-.8-.4-1.3.5ZM75.3,30.4l2.1,1.1v9.6h-.4c0,.1-1.8-.7-1.8-.7v-10ZM70.8,39.2l5.2,2.5-1.9.7v9.5l-3.2-1.6v-.7h0v-9.7h0v-.8ZM70.8,62.6v-.7h0v-10h0s0-.7,0-.7l3.2,1.5v11.4l-3.2-1.6ZM79.2,41.2l6.2,3.1v20.3l-6.2,1.5v-24.9ZM123,55.6v-29.9l6,3.9v27.2l-3.3-1.8-2.7.6ZM125.7,55.5l7.1,3.7v4.1l-7.1-3.5v-4.3ZM46.3,112.4l2-.3v.6c0,0-2-.3-2-.3ZM53.2,139h-4.2c0,0,2.9-2,2.9-2l1.3-1.4v3.4ZM125.8,117.1l4,.7c-.2,1.4-.4,2.8-.7,4.1l-7.4-.7c.4-1.7.7-3.4,1-5.1l3.1,1ZM119.6,132.9h0s0,0,0,0h0v-4.1c-.3.9-.6,1.8-.9,2.6v1.4h0s0,0,0,0h-.5c.2-.5.4-1,.5-1.4v-28.1l-4.8-6.5-.7-.9-.8,1.2-2.2,3.3,2.2-.2c0,.3,0,.5,0,.8h0c0,.1-2.9.4-2.9.4l-1.3,2v.5l4.1-.4c-.2,8.3-1.7,16.1-4,22.9l.2,22.6c-.1.2-.8.9-.9,1.1h0l-.2-21.1c-.5,1.2-1,2.4-1.5,3.5l-8.1-18.8c2.2-2.6,3.9-5.8,4.6-9.3l4.7-.4v-.6l1.3-2-14.5,1.2c-.2,1.6-.5,3.2-1.1,4.6-.2.6-.4,1.1-.7,1.6l.7,1.7,1.2,2.8c.5-.6,1-1.3,1.5-2,.2-.2.3-.5.5-.7,1-1.8,1.8-3.7,2.4-5.8h.7c-.6,2.3-1.5,4.6-2.7,6.6l1.2,2.8,8.1,19s0,0,0,0h0c0,0,0,0,0,0-.7,1.5-1.4,2.9-2.2,4.2h0c0-.1-8.6-20.6-8.6-20.6l-1.2-2.8s0,0,0,0l-.7-1.6-1.1-2.7s-1.1-.2-2.1.5c-.7.5-1.2,1.2-1.4,1.5-.4-.5-.9-1-1.4-1.4,2-1.7,3.4-4.4,3.9-7.4,0-.3,0-.6.1-.9,0-.5,0-1,0-1.5,0-1-.1-2-.3-3l2.3-.2c0,0,0,.1,0,.2-.2.6-.5,1.9,0,3.1.2.4.4.8.9,1.2l9.2-.8,6.2-.5,3.1-4.7.3-.5h.9c0-.1.6.7.6.7l5.4,7.5v25.5c0-.3.2-.5.3-.8l3.5,2.7,3.4.9c-.2.6-.3,1.2-.5,1.7l-6.7-.4ZM110.3,152.6c-.6,0-1.1.1-1.6.2v-2.7s1.6,2.5,1.6,2.5ZM105.7,152.8l2.1-2.3v2.3s-2.1,0-2.1,0ZM107.1,153.3c-.8.2-1.5.5-2.2.9l1-.9h1.2ZM68.1,131.2s0,0,.1,0c0,0,.2,0,.3,0,.2,0,.4,0,.6,0,.9.5,1.8.9,2.8,1.2.2,0,.5.1.7.2.4-.1.8-.3,1.2-.7.4-.4.8-1,1-1.8,1-2.9.8-2.6,2-3.3.8-.5.7-1.3.9-2.1.3,0,.7,0,1,0-.1.4-.2.9-.2,1.2,0,1.1-1.2,1.2-1.8,1.5-.7.4-.5,1-.7,1.8-.2.8-.9,1.9-1.2,2.4,0,.1-.1.2-.2.3-.3.3-.6.7-.8.9.5,0,1,.2,1.5.2.3-.3.7-.6,1-1,.6-.6,1.1-1.2,1.3-1.6.4-.9.4-1.4,2.1-2.2,2.8-1.2,1.4-2.9,2.3-3.7,0,0,0,0,.1-.1.2,0,.4,0,.6,0-.3.5-.2.9-.4,1.4-.3.6-.4,1.7-1,2.1-.6.4-.9,1.1-1.6,1.4-.6.2-1.1.6-1.4,1.5-.1.4-.8.9-1.3,1.4-.4.4-.7.8-.4,1.1.1,0,.3,0,.4,0,5.7-.2,10.8-3.5,12.4-8.7.1-.3.2-.6.2-.9-1.6,4.8-6.2,7.9-11.7,8.4.2-.2.4-.5.5-.7.6-.8,1.8-1.7,2.5-2.4.7-.7,1.1-1.6,1.5-2.2.4-.6.2-1.6,1-2.3.3,0,.7,0,1-.1-.2.5-.4.9-.8,1.8.7-.7,1.1-1.2,1.4-1.9.3,0,.6,0,1-.1-.4,1.4-.8,2.7-1.4,3.7.8-.9,1.5-2.3,1.9-3.7,2.4-.4,4.1-.9,4.4-1.6h0c-.9,6.7-6.8,11.8-14.1,11.8s-6.5-1.1-8.9-3M63.7,110c0-.8,0-1.7,0-2.7h.8c0,.6,0,2.5,0,4.3,0,.4,0,.8.1,1.2-.3.4-.5.7-.7,1.1-.1-.6-.3-2-.4-4M65.3,107.5c0-.1,0-.2,0-.3l4.9-.4c-.2.5-.3,1-.3,1.6-1.7.9-3.2,2.1-4.4,3.6,0-1-.2-3.2-.2-4.5M74,102.5c0-.2-.2-.3-.5-.3s-.2,0-.3,0c0-.1-.2-.2-.4-.2s-.5.2-.5.4,0,0,0,.1c-1,0-2-.1-2.7-.4-1.2-.5-.4-.5,0-.8.3-.3-1.3-.3-1.3-.9s.3-.6.5-.7l3.2-.3c.6.2,1.8.4,2.1.6.4.2,4.9.6,6,.8,1.1.2,2.5.8,2.5,3s-2.2,2.2-3.1,2.2v-.7c0,0,0-.1,0-.2s0,0,0,0c.2,0,.4-.1.4-.3s0,0,0,0c0,0,.1,0,.2,0,.2,0,.3,0,.3-.2s0-.2-.2-.2c0,0,0,0,0-.1s0-.2-.2-.2-.2,0-.2.2,0,0,0,.1c-.1,0-.2.1-.2.2s0,0,0,0c0,0-.2,0-.3,0v-.3c.3-.3.3-.6.2-.8.2,0,.3-.1.3-.3s-.2-.3-.5-.3-.3,0-.4.1h0c-.1,0-.2,0-.4-.1.1,0,.2,0,.2-.1s0,0-.1-.1c0,0,0,0,0-.1,0-.1-.2-.2-.3-.2s-.4,0-.4.2,0,0,0,0c0,0-.1,0-.2,0-.3,0-.5,0-.7,0,0,0-.1,0-.2,0,0,0,0,0,0,0,0-.1-.2-.2-.5-.2s-.4,0-.5.2c0,0,0,0-.1,0,0,0,0-.1,0-.2,0-.2-.2-.3-.4-.3s-.4.1-.4.3,0,.1,0,.2h-.3c0-.1-.1-.2-.3-.2,0,0,0-.1,0-.2,0-.1-.1-.3-.3-.3s-.3.1-.3.3.1.3.3.3c0,0-.1.1-.1.2h0c-.2,0-.3,0-.5,0M63.9,125.9c-.7-1.6-1.1-3.3-1.1-5.1,0-5,2.8-9.3,7-11.6.2,1.7,1.8,3.6,6,5.7-.2.2-.6.7-.8,1.1-.2.5-.7.5-1.1.8-.5.3-1.3,1.1-1.2,1.9,0,.5,0,.9-.2,1.2-.7,0-1.3,0-1.9.1,0-1.6.4-3.1.9-4.4-.8,1.2-1.3,2.8-1.4,4.5-.3,0-.7,0-1,0,0-2.3.6-4.5,1.5-6.3-1.1,1.7-1.8,3.9-1.9,6.3-.5,0-1.1.1-1.6.2,0-2.5.7-4.8,1.7-6.7-1.4,1.8-2.3,4.2-2.3,6.8-.3,0-.5.1-.8.2h0c0-2.7.8-5.2,2.1-7.2-1.7,1.9-2.7,4.4-2.7,7.1s0,.2,0,.2c-1.4.4-2.2.8-2.2,1.3s1,1,2.6,1.4c.4,1.5,1.2,2.9,2.2,4.1-.8-1.2-1.3-2.5-1.7-4,.3,0,.6.1.8.2.4,1.4,1.1,2.7,1.9,3.8-.6-1.1-1.1-2.4-1.4-3.7.5,0,1.1.2,1.7.2.3,1.3.8,2.4,1.5,3.4-.5-1-.9-2.1-1.1-3.3.3,0,.6,0,.9,0,0,.3,0,.7,0,1.3.4,1.7.8,1.8,0,2.6-.5.5-.2,1.2,0,1.6-1.7-.5-3.7-1.2-5.1-2.3-.7-.6-1.2-1.1-1.6-1.6M86.9,119.3c0,.4,0,.7,0,1.1-.3,0-.5,0-.8-.1,0-.6-.2-1.3-.3-1.5.4.2.8.4,1.2.5M85.3,118.5c.2.8,0,1.3,0,1.6-.2,0-.3,0-.5,0-.2-.3-.2-.8,0-1.7h0c.2,0,.5.1.7.2M83.9,120c-.2,0-.4,0-.6,0,.1-.9.5-1.5.3-2.1.2,0,.4.2.6.2,0,.2-.3,1.1-.3,1.9M80,119.7c-.2,0-.3,0-.5,0-.1-.9-.2-1.8,1-3,.3.1.6.2.9.3,0,0,0,0,.1,0-.2.3-1.3,1.7-1.6,2.6M72.2,121.4c.5,1.1,0,1.5-.7,1.8-.2,0-.4.2-.5.3-.2-.9-.3-1.8-.3-2.7.4,0,.9,0,1.4,0,0,.2,0,.4,0,.7M65.8,121.2c.2,0,.5,0,.8-.1,0,.7.1,1.4.2,2-.3,0-.5,0-.8-.1-.1-.6-.2-1.2-.2-1.8M65.4,122.9c-1.2-.2-2-.5-2-.8s.7-.5,1.8-.7c0,.5.1,1.1.2,1.6M67.2,121.1c.5,0,1-.1,1.6-.2,0,.9,0,1.7.2,2.5-.6,0-1.1-.1-1.6-.2-.1-.7-.2-1.4-.2-2.2M69.2,120.8c.3,0,.6,0,1,0,0,1,.1,1.9.4,2.7-.4,0-.8,0-1.1,0-.1-.8-.2-1.7-.2-2.6M78.6,122.9c.8-.9,1-1.6,1-2.3.2,0,.3,0,.5,0,.3.6.5,1.3-.1,1.8-.3.3-.6.7-.9,1.3-.3,0-.7,0-1,0,.1-.3.3-.5.6-.8M83.3,120.9c0,0,0-.1,0-.1.3,0,.5,0,.8,0,0,0,0,.2.1.2.5.7.4,1.8-.3,2.5-.3,0-.6,0-1,0,.4-.7.6-1.6.4-2.6M85.3,123.4l.2-.7v-1.3c0-.1.2-.3.4-.5.3,0,.6,0,.9,0,0,.7-.2,1.5-.4,2.2-.3,0-.7,0-1.1.1M87.4,121.1c2.1.3,3.3.6,3.3,1s-1.4.8-3.8,1.1c.2-.7.3-1.4.4-2.1M87.4,120.5c0-.3,0-.6,0-.9.3.2.6.3.8.5.6.4,1.1.7,1.5,1.1-.6-.2-1.4-.5-2.4-.6M90.3,116.1c-1.2-.8-2.7-1.6-4.6-2.4-.5-1-1.1-1.9-2-2.7.6.8,1.1,1.5,1.4,2.4-.5-.2-1-.4-1.5-.6,0,0-.1,0-.2,0-.4-.8-.9-1.4-1.7-2,.5.6.9,1.1,1.2,1.9-8.3-3.2-8.7-4.1-8.4-5.1,0,0,0,0,0,0,.2,0,.4,0,.5,0v-4.1h.8c0,0,0,.6,0,.6,0,.1,0,.2.2.2s.2,0,.2-.2v-.7h1.1c.5,0,1,.2,1.3.3v3.9c.2,0,.4,0,.5,0,5.1.8,9.3,4.2,11,8.7M78.8,100.2c-.1,0-.2,0-.4,0-.8-.1-1.5-.2-2.1-.3v-.9l2.5-.3v1.5ZM75.9,99.8c-.3,0-.6,0-.8-.1v-.6h.8c0,0,0,.7,0,.7ZM74.4,99.5c-.5,0-.9-.2-1.1-.3h1.1c0-.1,0,.3,0,.3ZM74.4,106.5c-.3.4-.8,1.3-.4,2.1.4,1.1,2.4,2.2,9.7,4.9,3.5,1.3,11.6,4.1,9.9,9.4-.3,1-1.7,1.9-2.6,2.2,0,0,0-.1,0-.2h0c0,0,.1-.5.2-.9,0,0,.2,0,.3-.1.2-.1.2-.3.2-.4,0,0-.2-.1-.3,0,0-.3,0-.5,0-.5s0-.1,0-.2c.2.1.3.2.4,0,0,0,0-.1,0-.3,0,0,0,0,0,0,0,.1.3.1.5,0,.2-.1.2-.3,0-.5,0-.1-.3-.1-.5,0-.1,0-.2.2-.2.3,0,0,0-.2-.2-.3-.2-.3-.5-.4-.6-.3-.2-.3-.4-.6-.8-1,0,0,0,0,0,0,.2-.2.3-.5,0-.8-.2-.3-.6-.3-.8-.1,0,0-.1.1-.1.2-.2-.1-.4-.3-.6-.4,0,0,.2,0,.3-.1.3-.2.3-.6.2-.9-.2-.2-.6-.3-.9,0-.2.2-.3.4-.2.6-.3-.2-.6-.3-.9-.5,0,0,0-.2,0-.3,0,0,.2,0,.2,0,.1,0,.2-.2.2-.4.1,0,.2,0,.3,0,.1,0,.1-.3,0-.4-.1-.2-.3-.2-.4,0,0,0,0,0,0,0,0,0,0,0,0-.1-.3-.3-.7-.4-1-.2-.2.2-.2.5,0,.8,0,0,0,0,0,0,0,0,0,.1-.1.2-.5-.3-1-.5-1.6-.8,0-.2,0-.6-.4-.8-.3-.3-.8-.4-1.1-.2,0,0-.1.2-.1.3-.2,0-.3-.1-.5-.2,0-.1.1-.3,0-.4,0,0,0,0,0,0,.3-.2.3-.6,0-.8-.2-.3-.6-.4-.8-.2-.2.2-.3.6,0,.8,0,0-.1.2-.1.3h0c-.1,0-.2,0-.3-.1,0-.3-.1-.6-.4-.8-.2-.1-.3-.2-.5-.2,0,0,0,0,0,0,.1-.1.1-.3,0-.4,0,0,0,0,0,0,0,0,0,0,0,0,.2-.1.2-.4,0-.7-.2-.2-.5-.3-.7-.2-.2.1-.2.4,0,.7,0,0,.1.1.2.1,0,.1,0,.3,0,.4,0,0,0,0,.1,0-.1,0-.2,0-.3.2,0,0,0,.2,0,.3-.1,0-.3-.1-.4-.2,0-.3-.2-.6-.6-.9-.2-.1-.5-.2-.7-.2,0,0,.2,0,.2-.2.1-.2,0-.5-.2-.7-.3-.2-.6-.1-.7,0-.1.2,0,.5.2.7,0,0,.1,0,.2,0-.1,0-.2,0-.2.2,0,0,0,.1,0,.2-.3-.1-.6-.3-.9-.4,0-.2-.1-.4-.3-.6-.2-.2-.4-.4-.6-.4.2-.2.2-.6,0-.9-.2-.2-.4-.3-.6-.3,0,0,0,0,0,0,0-.1-.2-.2-.3-.2,0-.1,0-.3-.2-.4-.2-.3-.5-.3-.7-.2-.2.1-.2.5,0,.7.2.2.4.3.6.3,0,0,0,.1,0,.2,0,0,.1,0,.2.1,0,.2,0,.3.2.5.1.2.3.3.4.3,0,0,0,.2,0,.3-.4-.2-.8-.4-1.1-.6,0-.2-.1-.4-.3-.6-.3-.4-.7-.6-.9-.4,0,0,0,.1,0,.2-.5-.3-.9-.7-1.2-1,0-.2,0-.6-.3-.9-.3-.3-.6-.5-.8-.4,0-.2-.2-.3-.2-.5.1,0,.3-.2.3-.3.2-.3,0-.7-.2-.8-.1,0-.2,0-.3,0,0-.3,0-.5.1-.7,0,.2,0,.3.2.4.2.1.5,0,.7-.4.2-.3,0-.7-.1-.8-.2,0-.4,0-.6.3.2-.4.4-.8.7-1.1,0,.1.1.3.2.3.3.1.6,0,.7-.3.1-.3,0-.6-.2-.8.7-.6,1.5-1,2.2-1.2v2.5ZM61.8,125.8c-.1,0-.2,0-.2,0,0-.2,0-.4,0-.5,0,0,0,.1.1.1.1,0,.2-.1.2-.3s0-.3-.1-.3c.3-.7.8-.9.8-.9,0,0,0,0,0,.2-.1,0-.2.1-.2.3s.1.3.2.3.1,0,.2,0c.3.9,1,2.3,2.5,3.3,3.1,2.1,7.2,2.6,7.2,2.6-.8.2-1.6.2-2.4.2,0-.1-.3-.2-.6-.2h0c0-.2-.1-.4-.3-.4s-.3.1-.3.2h-.2c-.3,0-.5,0-.7,0,0,0,0-.1,0-.2,0-.2-.1-.3-.2-.3s-.2,0-.2.1c0,0-.2,0-.3,0s-.3,0-.4.1c0,0-.2-.2-.4-.2,0,0,0-.2,0-.3,0-.3-.1-.5-.2-.5s-.3.2-.3.5,0,0,0,0c-.1,0-.2,0-.4,0s-.2,0-.3,0c0,0,0-.2,0-.3,0-.3-.2-.6-.4-.6s-.2,0-.3.2c0,0-.2-.1-.3-.1s-.1,0-.2,0c0,0-.1,0-.2,0s-.2,0-.2,0c0-.2-.1-.3-.3-.3,0,0,0-.1,0-.2,0-.2,0-.4-.2-.6.1,0,.2-.2.2-.4s-.1-.4-.3-.4-.3.2-.3.4,0,.2,0,.2c-.1,0-.3,0-.3.2,0,0,0,0-.1,0-.1,0-.2,0-.2.1,0,0,0,0,0,0,0,0,.1-.3.1-.4s0-.2,0-.3c.2,0,.3-.2.3-.4s-.2-.4-.3-.4-.4.2-.4.4,0,.1,0,.2c0,0-.2,0-.2.1,0-.1-.1-.3-.1-.5,0,0,0-.2,0-.3,0,0,.1,0,.2,0,.2,0,.4-.2.4-.4s-.2-.4-.4-.4M76.3,134.8c.2,0,.3,0,.5,0-.9,1.9-1.7,5.3,2.1,7.7,3,1.9,6.5,2.9,9.7,2.9,5.1,0,9.3-2.2,9.3-2.2,0,0-5.6,4.1-12.8,2.4-12.8-3.1-9.4-9.7-8.8-10.8M86.1,144.6c-8-1.1-10.3-5.7-9.3-8.5.3-.6.4-1,.5-1.3,6.1-.1,11.3-3.8,13.4-8.9.5-.2,1.7-.6,2.6-1.6l5.6,13.6s.8,2.5-.8,3.9c-2.2,2.1-7.4,3.3-12.1,2.6M120.9,77.6l8.2,3.2h0c0,0,0,.2,0,.3l-2.7.2-4.5,1.6c-.4-1.8-.8-3.5-1.2-5.2M127.5,95.7h-3.7c-.1-1.7-.2-3.5-.4-5.2l7.2,2.1c0,1.2.1,2.5.2,3.7l-3.2-.7ZM137.2,84.4l.3,4-6.7-2.2h0s-.3-2.5-.3-2.5l-.2-2,7,2.7ZM130.1,86.8h.1c0,0,.6.1.6.1l6.1,2-2.8,1.8-2.9,1.2-.4.2h-.3c0,0-6.7-2.1-6.7-2.1l3.2-1.1,3-2ZM134.1,70.1l1.3,3.7-7.2-3-1-3.9,7,3.1ZM128,71.4l7.1,3.1-3.5,3.8-2.6,2-7.6-3.1,3.8-2.8,2.7-2.9ZM120.4,63.1l5.1,2.4-1.2,1.8-1.5.6-4.1,2.9c-.5-1.4-1.1-2.8-1.7-4.2l3.4-3.5ZM98.3,86.5l7-16.5,1.1-.2c2.8,6.3,4.8,14,5.6,22.3l-11.8-2.8c-.6-1-1.2-1.9-1.9-2.8M82.5,85.4h-.7c0,0-1.6-4-1.6-4,.2-.3.2-.6.2-1s0,0,0-.1l2.1,5.1ZM79.9,79.1c-.2-.3-.5-.5-.9-.6.1-.3.2-.5.2-.8s0-.2,0-.3l.7,1.8ZM78.6,77.7c0,.3,0,.5-.3.7h-2.9c-.1-.2-.2-.4-.2-.7,0-.6.4-1.1,1-1.1h1.3c.6,0,1,.5,1,1.1M74.1,80.5c0-.8.8-1.5,1.8-1.5h2.2c1,0,1.8.7,1.8,1.5s-.1.6-.3.9h0s-1.3-.5-2.5-.5-2.5.5-2.5.5h0c-.2-.2-.4-.5-.4-.8M75.1,81.9s.3-.2.8-.3v.4c0,.1,0,.2.2.2s.2,0,.2-.2v-.4c.2,0,.4,0,.6,0,1.2,0,1.9.4,1.9.4v4.1l-2.5.4v-.7c0-.1,0-.2-.2-.2s-.2,0-.2.2v.7h-.8c0,.1,0-4.5,0-4.5ZM43.2,101.8l27.3-13.9,12.7-1.9,9.6,2.2.9.2h.2c0,0,1.1.3,1.1.3h0s23,5.4,23,5.4l-74.8,7.7ZM56.5,149.9c-.1.2-.3.4-.6.6-1.3,1-3.7,1.6-6.5,1.6-4.1,0-7.4-1.4-7.4-3s3.3-3,7.4-3,2,0,2.9.2c.3,0,.6.1.9.2v.5c-.3,0-.7-.2-1.1-.2-.8-.1-1.6-.2-2.6-.2-3.2,0-5.8.8-5.8,1.8s2.6,1.8,5.8,1.8,3.2-.2,4.3-.6c.9-.3,1.5-.7,1.5-1.2s-.4-.8-1.2-1.1v-.5c1.3.4,2.2,1.1,2.5,1.8,0,.2.1.4.1.6,0,.3-.1.6-.3.9M51.3,148.2c-4.3-.7-6.4,0-6.9.3,0,0,0-.2,0-.2,0-.8,2.4-1.4,5.2-1.4s1.9,0,2.7.2c.4,0,.7.1,1,.2v2c-.9.3-2.2.4-3.7.4s-3.2-.2-4.2-.5c1-.8,4.9-.5,5.7-.6.8,0,.2-.4.2-.4M54.1,147.6c.4.2.7.4.7.7s-.3.5-.7.7v-1.4ZM61.9,149.7l-4.8.2c.2-.3.2-.5.2-.8s-.1-.6-.3-.9l.3-.4,1.6-2.5c1,1.4,2,2.8,3.1,4v.4ZM70,158.4l-6.7.7,2.1-2.6,1.2-2.6c1.2,1,2.5,2,3.9,2.8l-.4,1.8ZM79.9,164.8l-6,.7,1.2-3.1.5-3.4c1.5.6,3,1,4.5,1.3v4.4ZM84.5,168.2l.9-3v-4.2c.2,0,.2,0,.3,0,1.5,0,3-.1,4.5-.4l.5,3.7,1.3,3-7.6.9ZM85.7,150.2c-20.2,0-30.7-22.6-29.5-49.1l2.7-.3c-.6,2.2.1,3.8.1,4l15.1-1.3c-.5.2-1.2.5-1.8.9l-13.3,1.2c0,.8,0,1.7,0,2.5,0,5.8.9,11.4,2.5,16.4-.3.6-.4,1.4-.2,2.3.2,1.1,1,2,2.1,2.7,1,2.2,2.1,4.3,3.3,6.2l1.7-3.7c.4.2.3.2.5.3l-1.7,4.1s-.4,1.6,1.2,3.3c.7.7,1.2.7,1.6.6l2.6-6.3c.2,0,.3,0,.5.1l-2.6,6.5c4.6,5.2,10.2,8.2,15.8,8.2,3.5,0,7-1.3,10.2-3.6,1.4-1,2.8-2.3,4.1-3.6-4.2,5.2-9.3,8.4-14.7,8.4M101.1,158.5l-5.1.3c1.5-.6,2.9-1.4,4.3-2.3l.8,2.1ZM99,167.8l-3.2.4.9-.7,4.2-.3-2,.6ZM103.6,166.3l-5.4.6h-1.1c0,.1-.5.2-.5.2v-4.3l-.6-3.4,5.2-.3.8,2.1,1.9,3.2-.4,2ZM111,163.4l-5.5.5,2.3-1.7,5.7-.5-2.5,1.7ZM107.3,160.7c.3,0,.6.1.9.2.2,0,.4,0,.6.1.6.1,1.2.2,1.9.3l-2.9.2-.5-.8ZM122.3,156.8c0,2.2-4.3,3.9-9.6,3.9s-2.3,0-3.4-.3c-.2,0-.4,0-.6-.1-3.3-.6-5.6-2-5.6-3.5s4.3-3.9,9.5-3.9,2.1,0,3.1.2c.2,0,.5,0,.7.1.8.1,1.5.3,2.1.5v.7c-.7-.3-1.6-.5-2.7-.6-.2,0-.4,0-.7,0-.8,0-1.6-.1-2.5-.1-4.2,0-7.5,1-7.5,2.2s2.6,1.9,6.1,2.1c.2,0,.5,0,.7,0,.2,0,.5,0,.7,0,2.3,0,4.4-.3,5.8-.8.4-.1.7-.3.9-.4v-.9h0v-.5c.2,0,.3.2.5.5,0,0,0,.2.2.1.1,0,0-.6-.7-1.1h0v-.8c1.7.7,2.8,1.7,2.8,2.7M117,152.7h-.2s-.1-.5-.1-.5l-1-3.2-2.7-4.9,5.7-.2v8.6h-1.7ZM118.7,153v.3c-.3,0-.6-.2-.9-.2h.9ZM114.7,155.4c-.2,0-.4,0-.6-.1-.3,0-.7,0-1.1,0-3.1,0-5.6.6-6.3,1.3-.4-.2-.5-.4-.5-.7,0-1,3-1.8,6.7-1.8s1.4,0,2.1,0c.2,0,.5,0,.7,0,1.3.2,2.3.4,3,.7v1.8c-1.2.5-3.3.9-5.8.9h-.3c-.2,0-.5,0-.7,0-1.3,0-2.5-.2-3.4-.4-.4-.1-.6-.3-.6-.4,0-.5,2.6-1,5.8-1h.5c.1,0,.2,0,.3,0,.8,0,.9-.2.3-.4M121.9,155c-.6-.5-1.3-1-2.3-1.3v-.6h4.1c0-.1-1.8,2-1.8,2ZM123.1,147.6l1,4.7-4.5.2v-8.6h.8s.5,0,.5,0l.9,1.5,1.4,2.2ZM129,144.4l-6.5.2,1.5-3h6.8c0,0-1.7,2.8-1.7,2.8ZM129,136.9l1.6,4.1h-6.5c0,0-.6-.8-.6-.8l-1.7-2.7-2.3-2.6v8.6h0c0,0,0,0,0,0h0c0,0-.9-.8-.9-.8v.8l-6,.2c.9-1.4,1.8-3,2.6-4.5l3.3,3.4h.1c0,.1,0-8.8,0-8.8l.9,1.1v-1.2s6.8.3,6.8.3l2.7,3ZM134.1,131.3h-6.4c0-.1,0-.1,0-.1l1-3.6h0c0-.1,6.2.4,6.2.4l-.8,3.4ZM131.7,124.1l2.9,3.1-5.8-.3h-.1l-.5-.5-2.2-2.2-3.9-2.5,7.5.8,2.1,1.6ZM132.8,117.9l-2.3-.4.6-.3,3.6.6h-1.8ZM137.2,117.5l-6.5-.9.4-3.8,6.6,1.1-.6,3.6ZM134.1,111.5l2.8,1.8-5.8-.9-3.1-2.4,3.2.4,2.9,1Z"/>
      <polygon class="st2" points="108.6 101.4 109.6 101.3 110.2 100.4 109.3 100.4 108.6 101.4"/>
      <polygon class="st2" points="45.7 119.6 45.8 112.8 45.4 112.8 44.9 112.7 44.9 120.3 45.1 120 45.7 119.6"/>
      <path class="st2" d="M48.1,103.5l-.7.9h.7c0-.3,0-.6,0-.9"/>
      <polygon class="st2" points="42.9 122.9 43.9 126.9 44.9 127.2 44.9 120.3 42.9 122.9"/>
      <polygon class="st2" points="47.4 104.4 47.1 104.4 42 107.6 42.1 112 44.9 112.7 44.9 107.4 47.4 104.4"/>
      <path class="st2" d="M107.6,129c.3-.8.6-1.7.9-2.5l-.2-22.6h-.9c0,0,.2,25.1.2,25.1Z"/>
      <polygon class="st2" points="64.3 30.1 60 31.8 60 42 64.3 40.5 64.3 30.1"/>
      <polygon class="st2" points="64.3 76.8 60 77.7 60 88.4 64.3 87.7 64.3 76.8"/>
      <polygon class="st2" points="64.3 65.2 60 66.3 60 76.8 64.3 75.9 64.3 65.2"/>
      <polygon class="st2" points="64.3 41.5 60 43 60 53.5 64.3 52.3 64.3 41.5"/>
      <polygon class="st2" points="64.3 53.2 60 54.5 60 65.3 64.3 64.3 64.3 53.2"/>
      <polygon class="st2" points="59.1 66.6 55.5 67.5 55.5 77.7 59.1 77 59.1 66.6"/>
      <polygon class="st2" points="59.1 54.8 55.5 55.9 55.5 66.5 59.1 65.6 59.1 54.8"/>
      <polygon class="st2" points="59.1 77.9 55.5 78.7 55.5 89.2 59.1 88.6 59.1 77.9"/>
      <polygon class="st2" points="59.1 43.3 55.5 44.6 55.5 55 59.1 53.9 59.1 43.3"/>
      <polygon class="st2" points="59.1 32.2 55.5 33.7 55.5 43.6 59.1 42.4 59.1 32.2"/>
      <polygon class="st2" points="54.5 67.7 50.4 68.8 50.4 78.8 54.5 77.9 54.5 67.7"/>
      <polygon class="st2" points="54.5 44.9 50.4 46.4 50.4 56.5 54.5 55.3 54.5 44.9"/>
      <polygon class="st2" points="54.5 78.9 50.4 79.8 50.4 90 54.5 89.3 54.5 78.9"/>
      <polygon class="st2" points="54.5 34.1 50.4 35.8 50.4 45.4 54.5 44 54.5 34.1"/>
      <polygon class="st2" points="54.5 56.2 50.4 57.5 50.4 67.8 54.5 66.8 54.5 56.2"/>
      <polygon class="st2" points="70.8 75.5 65.3 76.6 65.3 87.6 70.8 86.7 70.8 75.5"/>
      <path class="st2" d="M71.9,88.5l5,8.6,4.4-10-9.4,1.4ZM74.4,88.7v2.9l-1.5-2.6,1.5-.2ZM76.8,95.6l-.5-.8v-.4c0-.1,0-.2-.2-.2s0,0-.1,0l-.8-1.5v-4.1h.8c0-.1,0,4,0,4,0,.1,0,.2.2.2s.2-.1.2-.2v-4.2l2.5-.4v3l-2,4.6Z"/>
      <path class="st2" d="M47.1,100.7l28.9-3.1-14.6-4.2-14.3,7.3ZM54.5,97.7l1-.5v2h-1c0,.1,0-1.5,0-1.5ZM59.1,95.3l1-.5v3.9h-1c0,.1,0-3.4,0-3.4ZM64.3,94.9l1,.3v3h-1c0,.1,0-3.2,0-3.2ZM70.8,97.6v-.8l1.9.6-1.9.2Z"/>
      <path class="st2" d="M92.6,88.9l-9.4-2.1h-1c0,.1-4.2,9.6-4.2,9.6l14.6-7.4ZM83.3,87.5l.2.6s1.2,0,2.4,0l1.6.4c0,.1.2,1.2,1,1.8l-1.4.7c-1.5-1.3-3.3-2.1-5.2-2.1h0c0-.1.8-.5.8-.5,0,0-.2-.5-.3-.8h.5c0,0,.2,0,.2,0Z"/>
      <path class="st2" d="M71.1,88.6h-.3s-8.4,4.3-8.4,4.3l13.5,3.9-4.8-8.3ZM74.5,95.8l-3.8-1.1v-5.3l3.8,6.4ZM64.3,92.7l1-.5v.9l-1-.3h0Z"/>
      <path class="st2" d="M93.7,89.2l-16.2,8.3,35.9-3.8-19.7-4.5ZM88.7,92.5l3-1.6c.5.8.9,1.7,1.3,2.7.2.5.3,1,.5,1.6l-3.2.3c-.4-1.1-.9-2.1-1.5-3M96.7,90.5l.8.2c.7,1.2,1.3,2.5,1.7,3.8h-.6c-.4-1.4-1.1-2.8-1.9-4M101.4,91.6l8.2,1.9-7.2.8c-.2-.9-.5-1.8-.9-2.6"/>
      <path class="st2" d="M70.3,99.7c-.2,0-.4.1-.4.3s.2.3.4.3.4-.1.4-.3-.2-.3-.4-.3"/>
      <path class="st2" d="M91,120c.2-.1.2-.3,0-.5,0-.1-.3-.1-.5,0-.2.1-.2.3-.1.5.1.1.3.1.5,0"/>
      <path class="st2" d="M90.9,121s0,0,.1.1c0,.1,0,.3,0,.4.2.2.5.3.6.1.2-.2.2-.5,0-.7,0,0-.2-.1-.3-.2,0-.1,0-.2,0-.3-.1-.2-.4-.2-.5,0-.2.1-.2.4,0,.5"/>
      <path class="st2" d="M71.4,108.1c-.3.1-.4.5-.2.8.1.3.5.5.8.4.3-.1.4-.5.2-.8-.1-.3-.5-.5-.7-.4"/>
      <path class="st2" d="M72.3,109.2c-.1.1-.2.4,0,.5.2.2.4.2.5.1.2-.1.2-.4,0-.5-.1-.2-.4-.2-.5-.1"/>
      <path class="st2" d="M72.6,110.5c-.2.1-.1.5,0,.8.2.3.5.4.7.3.2-.1.1-.5,0-.8-.2-.3-.5-.4-.7-.3"/>
      <path class="st2" d="M77.4,113.1c.1,0,.1-.3,0-.4-.1-.1-.3-.2-.4-.1-.1.1-.1.3,0,.4.1.1.3.2.4,0"/>
      <path class="st2" d="M79.2,113.2c.1,0,.1-.3,0-.4-.1-.1-.3-.2-.4,0,0,0,0,.3,0,.4,0,.1.3.1.4,0"/>
      <path class="st2" d="M83.8,115.4c0,0,0-.2,0-.3-.1-.1-.3-.2-.3-.1,0,0,0,.2,0,.4,0,.1.2.2.3,0"/>
      <path class="st2" d="M87.2,116.6c0,0,0-.1,0-.2,0,0-.2,0-.2,0,0,0,0,.2,0,.2,0,0,.1,0,.2,0"/>
      <path class="st2" d="M85.8,117.1c.2-.2.2-.6-.1-.9-.3-.3-.7-.3-.9,0-.2.2-.2.6.1.9.3.3.7.3.9,0"/>
      <path class="st2" d="M76.5,101.7c.1,0,.2,0,.2-.2s-.1-.2-.2-.2-.2,0-.2.2.1.2.2.2"/>
      <path class="st2" d="M71.5,101.9c0,0-.2,0-.2.1s0,.1.2.1.2,0,.2-.1,0-.1-.2-.1"/>
      <path class="st2" d="M78.7,101.6c.1,0,.2,0,.2-.2s-.1-.2-.2-.2-.2,0-.2.2,0,.2.2.2"/>
      <path class="st2" d="M81.4,104c.2,0,.3,0,.3-.2s-.1-.2-.3-.2-.3.1-.3.2.1.2.3.2"/>
      <path class="st2" d="M80.4,103.5s0,0,0,0c-.1,0-.2,0-.2.2s0,.2.2.2.2,0,.2-.1c0,0,.1,0,.1-.1s0-.1-.2-.1,0,0-.1,0"/>
      <path class="st2" d="M80.1,102.7c.1,0,.2,0,.2-.2s-.1-.2-.2-.2-.2,0-.2.2,0,.2.2.2"/>
      <path class="st2" d="M77.6,102c0,0,0,.1.2.1s.2,0,.2-.2,0-.1,0-.1h0c0-.1-.1-.2-.3-.2s-.3,0-.3.2.1.2.2.2"/>
      <path class="st2" d="M74.8,101.3c.1,0,.2,0,.2-.2s-.1-.2-.2-.2-.2,0-.2.2.1.2.2.2"/>
      <path class="st2" d="M62.5,125.7c.1,0,.2-.1.2-.3s0-.3-.2-.3-.2.1-.2.3,0,.3.2.3"/>
      <path class="st2" d="M63.9,128.7c.2,0,.3-.1.3-.3s-.1-.3-.3-.3-.3.1-.3.3.1.3.3.3"/>
      <path class="st2" d="M64.7,128.7c0,0,.1-.1.1-.2s0-.3-.1-.3-.2.1-.2.3,0,.2.2.2"/>
      <path class="st2" d="M76.1,104.4c-.1,0-.2,0-.2.2v.4c0,.1,0,.2.2.2s.2,0,.2-.2v-.4c0-.1,0-.2-.2-.2"/>
      <path class="st2" d="M76.1,105.5c-.1,0-.2,0-.2.2v.2c0,.1,0,.2.2.2s.2,0,.2-.2v-.2c0-.1,0-.2-.2-.2"/>
      <path class="st2" d="M76.1,106.3c-.1,0-.2.1-.2.2v.2c0,.1,0,.2.2.2s.2,0,.2-.2v-.2c0-.1,0-.2-.2-.2"/>
      <path class="st2" d="M76.1,84.4c.1,0,.2,0,.2-.2v-1.3c0-.1,0-.2-.2-.2s-.2.1-.2.2v1.3c0,.1,0,.2.2.2"/>
    </g>
    <g>
      <g>
        <path class="st0" d="M158.5,137.4h-8v-2l2.3-.9v-13.5l-2.3-.9v-2h8v2l-2.3.9v13.5l2.3.9v2Z"/>
        <path class="st0" d="M168.9,122.6c1.6,0,2.9.4,3.8,1.3s1.4,2.2,1.4,4.1v9.4h-3.4v-8.8c0-1.1-.2-1.9-.6-2.4s-1.1-.8-2-.8c-1.4,0-2.3.4-2.8,1.3s-.7,2.1-.7,3.7v7.1h-3.4v-14.5h2.6l.5,1.9h.2c.3-.5.7-.9,1.2-1.2.5-.3,1-.6,1.6-.7.6-.2,1.2-.2,1.8-.2Z"/>
        <path class="st0" d="M187.6,133.2c0,1-.2,1.8-.7,2.4-.5.7-1.1,1.2-2,1.5-.9.3-2,.5-3.3.5s-1.9,0-2.6-.2-1.4-.4-2.1-.7v-2.9c.7.3,1.5.6,2.4.9s1.7.3,2.4.3,1.6-.1,2-.4c.4-.3.6-.7.6-1.2s0-.5-.2-.8c-.2-.2-.5-.5-.9-.7-.5-.3-1.2-.6-2.1-1-.9-.4-1.7-.7-2.3-1.1-.6-.4-1.1-.8-1.4-1.4-.3-.5-.5-1.2-.5-2,0-1.3.5-2.3,1.6-3,1-.7,2.4-1,4.1-1s1.7,0,2.5.3c.8.2,1.6.4,2.4.8l-1.1,2.5c-.7-.3-1.3-.5-2-.7s-1.3-.3-2-.3-1.3.1-1.7.3c-.4.2-.6.5-.6.9s0,.6.3.8c.2.2.5.4,1,.7.5.2,1.1.5,2,.9.9.3,1.6.7,2.2,1.1.6.4,1.1.8,1.4,1.4.3.5.5,1.2.5,2Z"/>
        <path class="st0" d="M196,135c.4,0,.8,0,1.2-.1.4,0,.8-.2,1.1-.3v2.5c-.4.2-.8.3-1.4.4-.6.1-1.2.2-1.8.2s-1.6-.1-2.2-.4c-.7-.3-1.2-.8-1.6-1.4-.4-.7-.6-1.6-.6-2.8v-7.5h-2v-1.5l2.1-1.2,1.1-3.1h2.1v3.2h4.1v2.5h-4.1v7.5c0,.7.2,1.2.5,1.5.4.3.8.5,1.4.5Z"/>
        <path class="st0" d="M202.4,117.3c.5,0,.9.1,1.3.4s.6.7.6,1.4-.2,1.1-.6,1.4-.8.4-1.3.4-1-.1-1.3-.4c-.4-.3-.5-.7-.5-1.4s.2-1.1.5-1.4c.4-.3.8-.4,1.3-.4ZM204.1,122.9v14.5h-3.4v-14.5h3.4Z"/>
        <path class="st0" d="M213.5,135c.4,0,.8,0,1.2-.1.4,0,.8-.2,1.1-.3v2.5c-.4.2-.8.3-1.4.4-.6.1-1.2.2-1.8.2s-1.6-.1-2.2-.4c-.7-.3-1.2-.8-1.6-1.4-.4-.7-.6-1.6-.6-2.8v-7.5h-2v-1.5l2.1-1.2,1.1-3.1h2.1v3.2h4.1v2.5h-4.1v7.5c0,.7.2,1.2.5,1.5.4.3.8.5,1.4.5Z"/>
        <path class="st0" d="M231.1,122.9v14.5h-2.6l-.5-1.9h-.2c-.3.5-.7.9-1.2,1.2-.5.3-1,.5-1.6.7-.6.2-1.2.2-1.8.2-1.1,0-2-.2-2.8-.6-.8-.4-1.4-.9-1.8-1.7s-.6-1.8-.6-3v-9.5h3.4v8.8c0,1.1.2,1.9.6,2.4s1.1.8,2,.8,1.6-.2,2.1-.6c.5-.4.9-.9,1.1-1.7.2-.7.3-1.6.3-2.7v-7.1h3.4Z"/>
        <path class="st0" d="M240.5,135c.4,0,.8,0,1.2-.1.4,0,.8-.2,1.1-.3v2.5c-.4.2-.8.3-1.4.4-.6.1-1.2.2-1.8.2s-1.6-.1-2.2-.4c-.7-.3-1.2-.8-1.6-1.4-.4-.7-.6-1.6-.6-2.8v-7.5h-2v-1.5l2.1-1.2,1.1-3.1h2.1v3.2h4.1v2.5h-4.1v7.5c0,.7.2,1.2.5,1.5.4.3.8.5,1.4.5Z"/>
        <path class="st0" d="M258.2,130.1c0,1.2-.2,2.3-.5,3.2s-.8,1.7-1.4,2.4c-.6.7-1.3,1.1-2.2,1.5-.9.3-1.8.5-2.9.5s-1.9-.2-2.8-.5c-.8-.3-1.6-.8-2.2-1.5-.6-.7-1.1-1.4-1.4-2.4-.3-.9-.5-2-.5-3.2s.3-3,.8-4.1c.6-1.1,1.4-2,2.4-2.5s2.3-.9,3.7-.9,2.5.3,3.6.9,1.8,1.4,2.4,2.5c.6,1.1.9,2.5.9,4.1ZM247.8,130.1c0,1,.1,1.9.4,2.6s.6,1.3,1.1,1.6c.5.4,1.2.6,2,.6s1.5-.2,2-.6c.5-.4.9-.9,1.1-1.6.2-.7.3-1.6.3-2.6s-.1-1.9-.4-2.6-.6-1.2-1.1-1.6c-.5-.4-1.2-.5-2-.5-1.2,0-2.1.4-2.6,1.2-.5.8-.8,2-.8,3.5Z"/>
        <path class="st0" d="M273.6,118.3c2.5,0,4.3.5,5.4,1.6,1.1,1,1.7,2.5,1.7,4.3s-.1,1.6-.4,2.3c-.2.7-.7,1.4-1.3,2-.6.6-1.4,1.1-2.3,1.4-1,.3-2.1.5-3.5.5h-1.9v7h-3.4v-19.1h5.7ZM273.4,121.1h-2.1v6.4h1.6c.9,0,1.7-.1,2.4-.3.7-.2,1.1-.6,1.5-1.1.3-.5.5-1.1.5-1.9s-.3-1.8-.9-2.4c-.6-.5-1.6-.8-2.9-.8Z"/>
        <path class="st0" d="M296.6,130.1c0,1.2-.2,2.3-.5,3.2-.3.9-.8,1.7-1.4,2.4-.6.7-1.3,1.1-2.2,1.5-.9.3-1.8.5-2.9.5s-1.9-.2-2.8-.5c-.8-.3-1.6-.8-2.2-1.5-.6-.7-1.1-1.4-1.4-2.4-.3-.9-.5-2-.5-3.2s.3-3,.8-4.1,1.4-2,2.4-2.5,2.3-.9,3.7-.9,2.5.3,3.6.9c1,.6,1.8,1.4,2.4,2.5.6,1.1.9,2.5.9,4.1ZM286.2,130.1c0,1,.1,1.9.4,2.6.2.7.6,1.3,1.1,1.6.5.4,1.2.6,2,.6s1.5-.2,2-.6.9-.9,1.1-1.6.3-1.6.3-2.6-.1-1.9-.4-2.6c-.2-.7-.6-1.2-1.1-1.6-.5-.4-1.2-.5-2-.5-1.2,0-2.1.4-2.6,1.2-.5.8-.8,2-.8,3.5Z"/>
        <path class="st0" d="M302.9,137.4h-3.4v-20.3h3.4v20.3Z"/>
        <path class="st0" d="M308.4,117.3c.5,0,.9.1,1.3.4.4.3.6.7.6,1.4s-.2,1.1-.6,1.4c-.4.3-.8.4-1.3.4s-1-.1-1.3-.4c-.4-.3-.5-.7-.5-1.4s.2-1.1.5-1.4c.4-.3.8-.4,1.3-.4ZM310.1,122.9v14.5h-3.4v-14.5h3.4Z"/>
        <path class="st0" d="M319.5,135c.4,0,.8,0,1.2-.1.4,0,.8-.2,1.1-.3v2.5c-.4.2-.8.3-1.4.4-.6.1-1.2.2-1.8.2s-1.6-.1-2.2-.4c-.7-.3-1.2-.8-1.6-1.4-.4-.7-.6-1.6-.6-2.8v-7.5h-2v-1.5l2.1-1.2,1.1-3.1h2.1v3.2h4.1v2.5h-4.1v7.5c0,.7.2,1.2.5,1.5s.8.5,1.4.5Z"/>
        <path class="st0" d="M330,122.6c1.3,0,2.4.3,3.4.8.9.5,1.7,1.3,2.2,2.2.5,1,.8,2.2.8,3.5v1.7h-9.6c0,1.3.4,2.3,1.1,3.1s1.7,1.1,2.9,1.1,1.8,0,2.5-.3c.7-.2,1.5-.5,2.3-.8v2.7c-.7.3-1.5.6-2.2.7-.8.2-1.7.2-2.8.2s-2.7-.3-3.8-.8-2-1.4-2.6-2.5c-.6-1.1-.9-2.5-.9-4.1s.3-3.1.8-4.2c.6-1.1,1.3-2,2.3-2.6s2.2-.9,3.5-.9ZM330,125.1c-.9,0-1.6.3-2.2.9s-.9,1.4-1,2.6h6.2c0-.7-.1-1.3-.3-1.8s-.6-.9-1-1.2-1-.4-1.7-.4ZM334.9,117.2c-.2.2-.5.6-.9.9-.4.4-.8.7-1.2,1.1-.4.4-.9.8-1.3,1.1s-.8.6-1.1.9h-2.2v-.3c.3-.3.6-.7,1-1.2.4-.5.7-.9,1.1-1.4.3-.5.6-.9.8-1.3h3.9v.3Z"/>
        <path class="st0" d="M345.1,137.7c-1.4,0-2.6-.3-3.6-.8-1-.5-1.8-1.3-2.3-2.4-.5-1.1-.8-2.5-.8-4.2s.3-3.2.9-4.3c.6-1.1,1.4-1.9,2.5-2.5,1.1-.5,2.3-.8,3.6-.8s1.7,0,2.4.3c.7.2,1.3.4,1.8.6l-1,2.6c-.6-.2-1.1-.4-1.7-.5s-1.1-.2-1.6-.2c-.8,0-1.5.2-2,.5s-.9.9-1.2,1.6-.4,1.6-.4,2.7.1,1.9.4,2.6c.3.7.6,1.2,1.2,1.6.5.3,1.2.5,1.9.5s1.5,0,2.2-.3,1.2-.5,1.8-.8v2.9c-.6.3-1.1.6-1.8.7-.6.2-1.4.2-2.4.2Z"/>
        <path class="st0" d="M359.9,122.6c1.6,0,2.9.4,3.8,1.3s1.4,2.2,1.4,4.1v9.4h-3.4v-8.8c0-1.1-.2-1.9-.6-2.4s-1.1-.8-2-.8c-1.4,0-2.3.4-2.8,1.3-.5.8-.7,2.1-.7,3.7v7.1h-3.4v-14.5h2.6l.5,1.9h.2c.3-.5.7-.9,1.2-1.2s1-.6,1.6-.7c.6-.2,1.2-.2,1.8-.2Z"/>
        <path class="st0" d="M370.5,117.3c.5,0,.9.1,1.3.4.4.3.6.7.6,1.4s-.2,1.1-.6,1.4c-.4.3-.8.4-1.3.4s-1-.1-1.3-.4c-.4-.3-.5-.7-.5-1.4s.2-1.1.5-1.4c.4-.3.8-.4,1.3-.4ZM372.2,122.9v14.5h-3.4v-14.5h3.4Z"/>
        <path class="st0" d="M381.8,137.7c-1.4,0-2.6-.3-3.6-.8-1-.5-1.8-1.3-2.3-2.4-.5-1.1-.8-2.5-.8-4.2s.3-3.2.9-4.3c.6-1.1,1.4-1.9,2.5-2.5,1.1-.5,2.3-.8,3.6-.8s1.7,0,2.4.3c.7.2,1.3.4,1.8.6l-1,2.6c-.6-.2-1.1-.4-1.7-.5s-1.1-.2-1.6-.2c-.8,0-1.5.2-2,.5s-.9.9-1.2,1.6-.4,1.6-.4,2.7.1,1.9.4,2.6c.3.7.6,1.2,1.2,1.6.5.3,1.2.5,1.9.5s1.5,0,2.2-.3,1.2-.5,1.8-.8v2.9c-.6.3-1.1.6-1.8.7-.6.2-1.4.2-2.4.2Z"/>
        <path class="st0" d="M401.8,130.1c0,1.2-.2,2.3-.5,3.2-.3.9-.8,1.7-1.4,2.4-.6.7-1.3,1.1-2.2,1.5-.9.3-1.8.5-2.9.5s-1.9-.2-2.8-.5c-.8-.3-1.6-.8-2.2-1.5-.6-.7-1.1-1.4-1.4-2.4-.3-.9-.5-2-.5-3.2s.3-3,.8-4.1,1.4-2,2.4-2.5,2.3-.9,3.7-.9,2.5.3,3.6.9c1,.6,1.8,1.4,2.4,2.5.6,1.1.9,2.5.9,4.1ZM391.4,130.1c0,1,.1,1.9.4,2.6.2.7.6,1.3,1.1,1.6.5.4,1.2.6,2,.6s1.5-.2,2-.6.9-.9,1.1-1.6.3-1.6.3-2.6-.1-1.9-.4-2.6c-.2-.7-.6-1.2-1.1-1.6-.5-.4-1.2-.5-2-.5-1.2,0-2.1.4-2.6,1.2-.5.8-.8,2-.8,3.5Z"/>
        <path class="st0" d="M427.8,137.4h-4.3l-9-15h-.1c0,.5,0,1.1,0,1.7,0,.6,0,1.2,0,1.8,0,.6,0,1.2,0,1.9v9.6h-3.1v-19.1h4.2l9,14.9h0c0-.5,0-1,0-1.6,0-.6,0-1.2,0-1.8s0-1.2,0-1.8v-9.7h3.1v19.1Z"/>
        <path class="st0" d="M437.7,122.6c1.9,0,3.3.4,4.3,1.2,1,.8,1.5,2.1,1.5,3.8v9.7h-2.4l-.7-2h-.1c-.4.5-.8.9-1.3,1.3s-.9.6-1.5.7-1.2.2-2,.2-1.6-.2-2.3-.5c-.7-.3-1.2-.8-1.6-1.5-.4-.7-.6-1.5-.6-2.5,0-1.5.5-2.6,1.6-3.4,1.1-.8,2.8-1.2,5-1.2h2.5v-.8c0-.9-.2-1.6-.7-2-.4-.4-1.1-.6-1.9-.6s-1.4.1-2.1.3c-.7.2-1.3.5-2,.7l-1.1-2.4c.7-.4,1.5-.7,2.4-.9.9-.2,1.9-.3,2.9-.3ZM438.3,130.6c-1.5,0-2.5.3-3.1.8-.6.5-.9,1.1-.9,1.8s.2,1.2.6,1.5c.4.3.9.5,1.6.5,1,0,1.8-.3,2.5-.8.7-.6,1-1.4,1-2.5v-1.2h-1.8Z"/>
        <path class="st0" d="M453,137.7c-1.4,0-2.6-.3-3.6-.8-1-.5-1.8-1.3-2.3-2.4-.5-1.1-.8-2.5-.8-4.2s.3-3.2.9-4.3c.6-1.1,1.4-1.9,2.5-2.5,1.1-.5,2.3-.8,3.6-.8s1.7,0,2.4.3c.7.2,1.3.4,1.8.6l-1,2.6c-.6-.2-1.1-.4-1.7-.5s-1.1-.2-1.6-.2c-.8,0-1.5.2-2,.5s-.9.9-1.2,1.6-.4,1.6-.4,2.7.1,1.9.4,2.6c.3.7.6,1.2,1.2,1.6.5.3,1.2.5,1.9.5s1.5,0,2.2-.3,1.2-.5,1.8-.8v2.9c-.6.3-1.1.6-1.8.7-.6.2-1.4.2-2.4.2Z"/>
        <path class="st0" d="M461.7,117.3c.5,0,.9.1,1.3.4.4.3.6.7.6,1.4s-.2,1.1-.6,1.4c-.4.3-.8.4-1.3.4s-1-.1-1.3-.4c-.4-.3-.5-.7-.5-1.4s.2-1.1.5-1.4c.4-.3.8-.4,1.3-.4ZM463.4,122.9v14.5h-3.4v-14.5h3.4Z"/>
        <path class="st0" d="M480.1,130.1c0,1.2-.2,2.3-.5,3.2-.3.9-.8,1.7-1.4,2.4-.6.7-1.3,1.1-2.2,1.5-.9.3-1.8.5-2.9.5s-1.9-.2-2.8-.5c-.8-.3-1.6-.8-2.2-1.5-.6-.7-1.1-1.4-1.4-2.4-.3-.9-.5-2-.5-3.2s.3-3,.8-4.1,1.4-2,2.4-2.5,2.3-.9,3.7-.9,2.5.3,3.6.9c1,.6,1.8,1.4,2.4,2.5.6,1.1.9,2.5.9,4.1ZM469.8,130.1c0,1,.1,1.9.4,2.6.2.7.6,1.3,1.1,1.6.5.4,1.2.6,2,.6s1.5-.2,2-.6.9-.9,1.1-1.6.3-1.6.3-2.6-.1-1.9-.4-2.6c-.2-.7-.6-1.2-1.1-1.6-.5-.4-1.2-.5-2-.5-1.2,0-2.1.4-2.6,1.2-.5.8-.8,2-.8,3.5Z"/>
        <path class="st0" d="M490.8,122.6c1.6,0,2.9.4,3.8,1.3s1.4,2.2,1.4,4.1v9.4h-3.4v-8.8c0-1.1-.2-1.9-.6-2.4s-1.1-.8-2-.8c-1.4,0-2.3.4-2.8,1.3-.5.8-.7,2.1-.7,3.7v7.1h-3.4v-14.5h2.6l.5,1.9h.2c.3-.5.7-.9,1.2-1.2s1-.6,1.6-.7c.6-.2,1.2-.2,1.8-.2Z"/>
        <path class="st0" d="M505.5,122.6c1.9,0,3.3.4,4.3,1.2,1,.8,1.5,2.1,1.5,3.8v9.7h-2.4l-.7-2h-.1c-.4.5-.8.9-1.3,1.3-.4.3-.9.6-1.5.7s-1.2.2-2,.2-1.6-.2-2.3-.5c-.7-.3-1.2-.8-1.6-1.5-.4-.7-.6-1.5-.6-2.5,0-1.5.5-2.6,1.6-3.4,1.1-.8,2.8-1.2,5-1.2h2.5v-.8c0-.9-.2-1.6-.7-2-.4-.4-1.1-.6-1.9-.6s-1.4.1-2.1.3c-.7.2-1.3.5-2,.7l-1.1-2.4c.7-.4,1.5-.7,2.4-.9.9-.2,1.9-.3,2.9-.3ZM506.1,130.6c-1.5,0-2.5.3-3.1.8-.6.5-.9,1.1-.9,1.8s.2,1.2.6,1.5c.4.3.9.5,1.6.5,1,0,1.8-.3,2.5-.8.7-.6,1-1.4,1-2.5v-1.2h-1.8Z"/>
        <path class="st0" d="M518.3,137.4h-3.4v-20.3h3.4v20.3Z"/>
      </g>
      <g>
        <path class="st0" d="M177.6,146.9c-.1.5-.2,1.1-.4,1.7-.1.6-.3,1.2-.4,1.7-.1.6-.2,1.1-.3,1.5h-2.4v-.2c0-.5.1-1,.3-1.5.2-.5.4-1.1.6-1.6.2-.5.4-1.1.6-1.5h1.8ZM181.8,146.9c-.1.5-.2,1.1-.4,1.7-.1.6-.3,1.2-.4,1.7-.1.6-.2,1.1-.3,1.5h-2.4v-.2c0-.5.1-1,.3-1.5.2-.5.4-1.1.6-1.6.2-.5.4-1.1.6-1.5h1.8Z"/>
        <path class="st0" d="M183.5,161.2v-14.3h2.6v12.1h6v2.2h-8.5Z"/>
        <path class="st0" d="M198.2,150.1c1.4,0,2.5.3,3.2.9.7.6,1.1,1.6,1.1,2.8v7.3h-1.8l-.5-1.5h0c-.3.4-.6.7-.9,1s-.7.4-1.1.6c-.4.1-.9.2-1.5.2s-1.2-.1-1.7-.4c-.5-.2-.9-.6-1.2-1.1-.3-.5-.4-1.1-.4-1.9,0-1.1.4-2,1.2-2.5s2.1-.9,3.7-.9h1.9v-.6c0-.7-.2-1.2-.5-1.5-.3-.3-.8-.4-1.4-.4s-1.1,0-1.6.2-1,.3-1.5.6l-.8-1.8c.5-.3,1.1-.5,1.8-.7.7-.2,1.4-.3,2.1-.3ZM198.7,156.1c-1.1,0-1.9.2-2.3.6-.4.3-.6.8-.6,1.4s.2.9.5,1.1.7.3,1.2.3c.7,0,1.4-.2,1.9-.6.5-.4.8-1,.8-1.9v-.9h-1.3Z"/>
        <path class="st0" d="M215.5,161.2h-2.6v-12.1h-4.1v-2.2h10.8v2.2h-4.1v12.1Z"/>
        <path class="st0" d="M224.1,150.1c1,0,1.8.2,2.5.6.7.4,1.2,1,1.6,1.7.4.7.6,1.6.6,2.6v1.3h-7.2c0,1,.3,1.7.8,2.3.5.5,1.2.8,2.2.8s1.3,0,1.9-.2c.6-.1,1.1-.3,1.7-.6v2c-.5.3-1.1.4-1.7.6-.6.1-1.3.2-2.1.2s-2-.2-2.8-.6c-.8-.4-1.5-1-1.9-1.8-.5-.8-.7-1.9-.7-3.1s.2-2.3.6-3.1c.4-.8,1-1.5,1.7-1.9.7-.4,1.6-.6,2.6-.6ZM224.1,152c-.7,0-1.2.2-1.6.6-.4.4-.7,1.1-.7,1.9h4.7c0-.5,0-1-.2-1.3-.2-.4-.4-.7-.7-.9-.3-.2-.8-.3-1.3-.3ZM227.7,146.1c-.2.2-.4.4-.6.7s-.6.5-.9.8c-.3.3-.6.6-1,.8-.3.3-.6.5-.8.6h-1.7v-.3c.2-.3.5-.5.7-.9.3-.3.5-.7.8-1.1s.5-.7.6-1h2.9v.2Z"/>
        <path class="st0" d="M235.3,161.4c-1,0-1.9-.2-2.7-.6-.8-.4-1.3-1-1.7-1.8-.4-.8-.6-1.9-.6-3.1s.2-2.4.7-3.2c.4-.8,1.1-1.4,1.8-1.8.8-.4,1.7-.6,2.7-.6s1.3,0,1.8.2c.5.1,1,.3,1.4.5l-.7,2c-.4-.2-.8-.3-1.2-.4s-.8-.2-1.2-.2c-.6,0-1.1.1-1.5.4s-.7.7-.9,1.2c-.2.5-.3,1.2-.3,2s0,1.4.3,1.9c.2.5.5.9.9,1.2.4.3.9.4,1.4.4s1.2,0,1.6-.2c.5-.1.9-.3,1.3-.6v2.2c-.4.3-.9.4-1.3.5-.5.1-1.1.2-1.8.2Z"/>
        <path class="st0" d="M246.4,150.1c1.2,0,2.2.3,2.8.9.7.6,1,1.6,1,3v7.1h-2.5v-6.6c0-.8-.2-1.4-.5-1.8s-.8-.6-1.5-.6c-1,0-1.7.3-2.1.9-.4.6-.6,1.5-.6,2.7v5.3h-2.5v-10.8h1.9l.4,1.4h.1c.2-.4.5-.7.9-.9.3-.2.7-.4,1.2-.5.4-.1.9-.2,1.3-.2Z"/>
        <path class="st0" d="M254.3,146.2c.4,0,.7,0,1,.3.3.2.4.5.4,1s-.1.8-.4,1c-.3.2-.6.3-1,.3s-.7-.1-1-.3c-.3-.2-.4-.5-.4-1s.1-.8.4-1c.3-.2.6-.3,1-.3ZM255.5,150.3v10.8h-2.5v-10.8h2.5Z"/>
        <path class="st0" d="M262.8,161.4c-1,0-1.9-.2-2.7-.6-.8-.4-1.3-1-1.7-1.8-.4-.8-.6-1.9-.6-3.1s.2-2.4.7-3.2c.4-.8,1.1-1.4,1.8-1.8.8-.4,1.7-.6,2.7-.6s1.3,0,1.8.2c.5.1,1,.3,1.4.5l-.7,2c-.4-.2-.8-.3-1.2-.4-.4-.1-.8-.2-1.2-.2-.6,0-1.1.1-1.5.4s-.7.7-.9,1.2c-.2.5-.3,1.2-.3,2s0,1.4.3,1.9c.2.5.5.9.9,1.2.4.3.9.4,1.4.4s1.2,0,1.6-.2c.5-.1.9-.3,1.3-.6v2.2c-.4.3-.9.4-1.3.5-.5.1-1.1.2-1.8.2Z"/>
        <path class="st0" d="M272.3,150.1c1.4,0,2.5.3,3.2.9.7.6,1.1,1.6,1.1,2.8v7.3h-1.8l-.5-1.5h0c-.3.4-.6.7-.9,1s-.7.4-1.1.6c-.4.1-.9.2-1.5.2s-1.2-.1-1.7-.4c-.5-.2-.9-.6-1.2-1.1-.3-.5-.4-1.1-.4-1.9,0-1.1.4-2,1.2-2.5s2.1-.9,3.7-.9h1.9v-.6c0-.7-.2-1.2-.5-1.5-.3-.3-.8-.4-1.4-.4s-1.1,0-1.6.2-1,.3-1.5.6l-.8-1.8c.5-.3,1.1-.5,1.8-.7.7-.2,1.4-.3,2.1-.3ZM272.8,156.1c-1.1,0-1.9.2-2.3.6-.4.3-.6.8-.6,1.4s.2.9.5,1.1c.3.2.7.3,1.2.3.7,0,1.4-.2,1.9-.6.5-.4.8-1,.8-1.9v-.9h-1.3Z"/>
        <path class="st0" d="M288.5,150.1c1.4,0,2.5.3,3.2.9.7.6,1.1,1.6,1.1,2.8v7.3h-1.8l-.5-1.5h0c-.3.4-.6.7-.9,1-.3.3-.7.4-1.1.6-.4.1-.9.2-1.5.2s-1.2-.1-1.7-.4c-.5-.2-.9-.6-1.2-1.1-.3-.5-.4-1.1-.4-1.9,0-1.1.4-2,1.2-2.5s2.1-.9,3.7-.9h1.9v-.6c0-.7-.2-1.2-.5-1.5s-.8-.4-1.4-.4-1.1,0-1.6.2c-.5.2-1,.3-1.5.6l-.8-1.8c.5-.3,1.1-.5,1.8-.7.7-.2,1.4-.3,2.1-.3ZM289,156.1c-1.1,0-1.9.2-2.3.6-.4.3-.6.8-.6,1.4s.2.9.5,1.1.7.3,1.2.3c.7,0,1.4-.2,1.9-.6.5-.4.8-1,.8-1.9v-.9h-1.3Z"/>
        <path class="st0" d="M298.1,161.2h-2.5v-15.2h2.5v15.2Z"/>
        <path class="st0" d="M314.3,157.3c0,.8-.2,1.6-.6,2.2-.4.6-1,1.1-1.8,1.4s-1.7.5-2.8.5-1,0-1.5,0c-.5,0-.9-.2-1.3-.3-.4-.1-.8-.3-1.2-.4v-2.4c.6.3,1.3.5,2,.7.7.2,1.5.3,2.2.3s1,0,1.4-.2.6-.4.8-.6c.2-.3.3-.6.3-.9s-.1-.7-.3-1c-.2-.3-.6-.5-1-.8-.4-.2-1-.5-1.6-.8-.4-.2-.9-.4-1.3-.6-.4-.2-.8-.5-1.1-.8-.3-.3-.6-.7-.8-1.2-.2-.5-.3-1-.3-1.6s.2-1.5.6-2.1c.4-.6.9-1,1.7-1.3s1.5-.5,2.5-.5,1.5,0,2.1.2,1.3.4,2,.7l-.8,2.1c-.6-.3-1.2-.5-1.7-.6-.5-.1-1.1-.2-1.7-.2s-.8,0-1.2.2c-.3.1-.6.3-.7.6-.2.3-.2.5-.2.9s0,.7.3,1c.2.3.5.5.9.8.4.2,1,.5,1.6.8.8.3,1.4.7,2,1,.5.4.9.8,1.2,1.3.3.5.4,1.1.4,1.9Z"/>
        <path class="st0" d="M320.7,150.1c1,0,1.8.2,2.5.6.7.4,1.2,1,1.6,1.7.4.7.6,1.6.6,2.6v1.3h-7.2c0,1,.3,1.7.8,2.3.5.5,1.2.8,2.2.8s1.3,0,1.9-.2c.6-.1,1.1-.3,1.7-.6v2c-.5.3-1.1.4-1.7.6-.6.1-1.3.2-2.1.2s-2-.2-2.8-.6c-.8-.4-1.5-1-1.9-1.8-.5-.8-.7-1.9-.7-3.1s.2-2.3.6-3.1c.4-.8,1-1.5,1.7-1.9.7-.4,1.6-.6,2.6-.6ZM320.7,152c-.7,0-1.2.2-1.6.6-.4.4-.7,1.1-.7,1.9h4.7c0-.5,0-1-.2-1.3-.2-.4-.4-.7-.7-.9s-.8-.3-1.3-.3Z"/>
        <path class="st0" d="M333.3,150.1c.2,0,.3,0,.6,0,.2,0,.4,0,.5,0l-.2,2.3c-.1,0-.3,0-.5,0-.2,0-.4,0-.5,0-.4,0-.8,0-1.1.2-.4.1-.7.3-1,.6-.3.2-.5.6-.7.9-.2.4-.2.8-.2,1.4v5.6h-2.5v-10.8h1.9l.4,1.9h.1c.2-.4.5-.7.8-1,.3-.3.7-.6,1.1-.7.4-.2.9-.3,1.3-.3Z"/>
        <path class="st0" d="M338.5,161.2l-4.1-10.8h2.7l2.2,6.3c0,.3.2.5.3.8s.2.6.2.9c0,.3,0,.5.1.8h0c0-.2,0-.5.1-.8,0-.3.1-.6.2-.9s.2-.6.2-.8l2.2-6.3h2.7l-4.1,10.8h-2.7Z"/>
        <path class="st0" d="M347.8,146.2c.4,0,.7,0,1,.3.3.2.4.5.4,1s-.1.8-.4,1c-.3.2-.6.3-1,.3s-.7-.1-1-.3c-.3-.2-.4-.5-.4-1s.1-.8.4-1c.3-.2.6-.3,1-.3ZM349,150.3v10.8h-2.5v-10.8h2.5Z"/>
        <path class="st0" d="M356.2,161.4c-1,0-1.9-.2-2.7-.6s-1.3-1-1.7-1.8-.6-1.9-.6-3.1.2-2.4.7-3.2,1.1-1.4,1.8-1.8c.8-.4,1.7-.6,2.7-.6s1.3,0,1.8.2c.5.1,1,.3,1.4.5l-.7,2c-.4-.2-.8-.3-1.2-.4s-.8-.2-1.2-.2c-.6,0-1.1.1-1.5.4-.4.3-.7.7-.9,1.2s-.3,1.2-.3,2,0,1.4.3,1.9c.2.5.5.9.9,1.2.4.3.9.4,1.4.4s1.2,0,1.6-.2c.5-.1.9-.3,1.3-.6v2.2c-.4.3-.9.4-1.3.5-.5.1-1.1.2-1.8.2Z"/>
        <path class="st0" d="M362.8,146.2c.4,0,.7,0,1,.3.3.2.4.5.4,1s-.1.8-.4,1c-.3.2-.6.3-1,.3s-.7-.1-1-.3c-.3-.2-.4-.5-.4-1s.1-.8.4-1c.3-.2.6-.3,1-.3ZM364,150.3v10.8h-2.5v-10.8h2.5Z"/>
        <path class="st0" d="M376.5,155.7c0,.9-.1,1.7-.4,2.4-.2.7-.6,1.3-1,1.8-.4.5-1,.9-1.6,1.1s-1.4.4-2.1.4-1.4-.1-2.1-.4c-.6-.2-1.2-.6-1.6-1.1-.5-.5-.8-1.1-1.1-1.8-.3-.7-.4-1.5-.4-2.4s.2-2.2.6-3c.4-.8,1-1.5,1.8-1.9.8-.4,1.7-.6,2.8-.6s1.9.2,2.7.6c.8.4,1.4,1.1,1.8,1.9.4.8.7,1.8.7,3ZM368.8,155.7c0,.8,0,1.4.3,1.9.2.5.5.9.8,1.2.4.3.9.4,1.5.4s1.1-.1,1.5-.4c.4-.3.7-.7.8-1.2.2-.5.3-1.2.3-1.9s0-1.4-.3-1.9c-.2-.5-.5-.9-.8-1.2-.4-.3-.9-.4-1.5-.4-.9,0-1.6.3-2,.9-.4.6-.6,1.5-.6,2.6Z"/>
        <path class="st0" d="M387.1,161.4c-1.3,0-2.3-.5-3-1.4s-1.2-2.3-1.2-4.2.4-3.3,1.2-4.2c.8-1,1.8-1.4,3.1-1.4s1,0,1.4.2.8.3,1,.6c.3.2.5.5.7.8h.1c0-.2,0-.5-.1-.9s0-.7,0-1.1v-3.8h2.5v15.2h-2l-.5-1.4h-.1c-.2.3-.4.6-.7.8s-.6.4-1,.6-.9.2-1.4.2ZM387.9,159.3c.9,0,1.6-.3,2-.8.4-.5.6-1.3.6-2.4v-.3c0-1.2-.2-2.1-.5-2.7-.4-.6-1-.9-2-.9s-1.3.3-1.8.9c-.4.6-.6,1.5-.6,2.7s.2,2,.6,2.6c.4.6,1,.9,1.8.9Z"/>
        <path class="st0" d="M400.1,150.1c1,0,1.8.2,2.5.6.7.4,1.2,1,1.6,1.7.4.7.6,1.6.6,2.6v1.3h-7.2c0,1,.3,1.7.8,2.3.5.5,1.2.8,2.2.8s1.3,0,1.9-.2c.6-.1,1.1-.3,1.7-.6v2c-.5.3-1.1.4-1.7.6-.6.1-1.3.2-2.1.2s-2-.2-2.8-.6c-.8-.4-1.5-1-1.9-1.8-.5-.8-.7-1.9-.7-3.1s.2-2.3.6-3.1c.4-.8,1-1.5,1.7-1.9.7-.4,1.6-.6,2.6-.6ZM400.1,152c-.7,0-1.2.2-1.6.6-.4.4-.7,1.1-.7,1.9h4.7c0-.5,0-1-.2-1.3-.2-.4-.4-.7-.7-.9s-.8-.3-1.3-.3Z"/>
        <path class="st0" d="M414.3,161.2h-2.5v-15.2h2.5v15.2Z"/>
        <path class="st0" d="M421.4,150.1c1.4,0,2.5.3,3.2.9.7.6,1.1,1.6,1.1,2.8v7.3h-1.8l-.5-1.5h0c-.3.4-.6.7-.9,1-.3.3-.7.4-1.1.6-.4.1-.9.2-1.5.2s-1.2-.1-1.7-.4c-.5-.2-.9-.6-1.2-1.1-.3-.5-.4-1.1-.4-1.9,0-1.1.4-2,1.2-2.5s2.1-.9,3.7-.9h1.9v-.6c0-.7-.2-1.2-.5-1.5s-.8-.4-1.4-.4-1.1,0-1.6.2c-.5.2-1,.3-1.5.6l-.8-1.8c.5-.3,1.1-.5,1.8-.7.7-.2,1.4-.3,2.1-.3ZM421.9,156.1c-1.1,0-1.9.2-2.3.6-.4.3-.6.8-.6,1.4s.2.9.5,1.1.7.3,1.2.3c.7,0,1.4-.2,1.9-.6.5-.4.8-1,.8-1.9v-.9h-1.3Z"/>
        <path class="st0" d="M437.8,146.9c1.9,0,3.2.4,4,1.2.8.8,1.3,1.8,1.3,3.2s0,1.2-.3,1.7c-.2.6-.5,1-.9,1.5-.4.4-1,.8-1.7,1-.7.3-1.6.4-2.6.4h-1.4v5.3h-2.6v-14.3h4.3ZM437.6,149h-1.5v4.8h1.2c.7,0,1.3,0,1.8-.2.5-.2.9-.4,1.1-.8.3-.4.4-.8.4-1.4s-.2-1.4-.7-1.8c-.5-.4-1.2-.6-2.2-.6Z"/>
        <path class="st0" d="M449.6,150.1c1.4,0,2.5.3,3.2.9.7.6,1.1,1.6,1.1,2.8v7.3h-1.8l-.5-1.5h0c-.3.4-.6.7-.9,1-.3.3-.7.4-1.1.6-.4.1-.9.2-1.5.2s-1.2-.1-1.7-.4c-.5-.2-.9-.6-1.2-1.1-.3-.5-.4-1.1-.4-1.9,0-1.1.4-2,1.2-2.5s2.1-.9,3.7-.9h1.9v-.6c0-.7-.2-1.2-.5-1.5s-.8-.4-1.4-.4-1.1,0-1.6.2c-.5.2-1,.3-1.5.6l-.8-1.8c.5-.3,1.1-.5,1.8-.7.7-.2,1.4-.3,2.1-.3ZM450.1,156.1c-1.1,0-1.9.2-2.3.6-.4.3-.6.8-.6,1.4s.2.9.5,1.1.7.3,1.2.3c.7,0,1.4-.2,1.9-.6.5-.4.8-1,.8-1.9v-.9h-1.3Z"/>
        <path class="st0" d="M460.8,159.4c.3,0,.6,0,.9,0,.3,0,.6-.1.8-.2v1.9c-.3.1-.6.2-1,.3-.4,0-.9.1-1.3.1s-1.2-.1-1.7-.3c-.5-.2-.9-.6-1.2-1.1-.3-.5-.5-1.2-.5-2.1v-5.6h-1.5v-1.1l1.6-.9.8-2.3h1.6v2.4h3.1v1.9h-3.1v5.6c0,.5.1.9.4,1.1.3.2.6.4,1,.4Z"/>
        <path class="st0" d="M470.1,150.1c.2,0,.3,0,.6,0,.2,0,.4,0,.5,0l-.2,2.3c-.1,0-.3,0-.5,0-.2,0-.4,0-.5,0-.4,0-.8,0-1.1.2-.4.1-.7.3-1,.6-.3.2-.5.6-.7.9-.2.4-.2.8-.2,1.4v5.6h-2.5v-10.8h1.9l.4,1.9h.1c.2-.4.5-.7.8-1,.3-.3.7-.6,1.1-.7.4-.2.9-.3,1.3-.3Z"/>
        <path class="st0" d="M474,146.2c.4,0,.7,0,1,.3.3.2.4.5.4,1s-.1.8-.4,1c-.3.2-.6.3-1,.3s-.7-.1-1-.3c-.3-.2-.4-.5-.4-1s.1-.8.4-1c.3-.2.6-.3,1-.3ZM475.3,150.3v10.8h-2.5v-10.8h2.5Z"/>
        <path class="st0" d="M482.5,150.1c1.4,0,2.5.3,3.2.9.7.6,1.1,1.6,1.1,2.8v7.3h-1.8l-.5-1.5h0c-.3.4-.6.7-.9,1-.3.3-.7.4-1.1.6-.4.1-.9.2-1.5.2s-1.2-.1-1.7-.4c-.5-.2-.9-.6-1.2-1.1-.3-.5-.4-1.1-.4-1.9,0-1.1.4-2,1.2-2.5s2.1-.9,3.7-.9h1.9v-.6c0-.7-.2-1.2-.5-1.5s-.8-.4-1.4-.4-1.1,0-1.6.2c-.5.2-1,.3-1.5.6l-.8-1.8c.5-.3,1.1-.5,1.8-.7.7-.2,1.4-.3,2.1-.3ZM482.9,156.1c-1.1,0-1.9.2-2.3.6-.4.3-.6.8-.6,1.4s.2.9.5,1.1.7.3,1.2.3c.7,0,1.4-.2,1.9-.6.5-.4.8-1,.8-1.9v-.9h-1.3Z"/>
        <path class="st0" d="M491.5,147.1c-.1.5-.3,1-.5,1.5-.2.5-.4,1.1-.6,1.6-.2.5-.4,1.1-.6,1.5h-1.8c0-.4.2-.8.3-1.2,0-.4.2-.9.3-1.3,0-.4.2-.9.2-1.3,0-.4.1-.8.2-1.1h2.4v.2ZM495.7,147.1c-.1.5-.3,1-.5,1.5-.2.5-.4,1.1-.6,1.6-.2.5-.4,1.1-.6,1.5h-1.8c.1-.5.3-1.1.4-1.6.1-.6.2-1.1.3-1.7.1-.6.2-1.1.3-1.5h2.4v.2Z"/>
      </g>
    </g>
  </g>
</svg>