<svg xmlns="http://www.w3.org/2000/svg" viewBox="0 0 106.73 106.73" fill="#7B1A2E"><path d="M75.98,52.14c.79,.14,2.23,.36,4.16,.36,1.27,0,2.55-.25,3.12-.58-.89-1.66-3.97-3.15-4.48-3.36,2.55-.17,4.13-.97,4.32-2.89-2.28,.66-3.98,.48-6.22,.42,2.23-.64,4.64-1.37,5.93-2.83-.82-.7-2.3-1.17-3.81-1.34,1.26-.74,2.17-1.77,1.98-3.22-1.09,.72-3.37,1.36-4.13,1.53,2.03-1.39,3.13-2.84,3.68-4.1-1.15-.21-2.55-.24-3.93-.03,.86-.98,1.46-2,1.21-3.39-1.16,.88-2.13,1.59-4.59,3.13,1.53-1.3,2.94-3.05,3.08-4.64-1.21,0-1.88,.14-4.16,.89,.98-1.04,1.74-2.14,1.65-3.09-1.65-.06-4.16,.5-7.76,2.64-3.58,2.13-7.01,5.43-7.01,9.24,0,.88,.21,1.71,.7,2.32,.51,.68,1.35,1.28,2.46,1.24-.23,1.26-1.16,2.31-2.71,2.39,.02-.69-.16-1.4-.36-1.86,.18-.18,.24-.4,.31-.63-.92-.49-1.43-2.26-1.36-3.1,.18-.02,.37-.08,.47-.22-.21-.34-.22-.61-.22-.83,0-1.14,.25-3.19,.25-4.32,0-.84-.06-1.95-.54-2.81,1.16-.57,1.33-1.46,1.23-2.36-.51,.31-.94,.59-1.42,.55,.44-.43,.53-.98,.53-1.24,0-.22-.05-.53-.12-.73-.44,.25-.89,.46-1.37,.59l1.72-4.83c-.85-.15-1.62,.07-2.07,.79-.27,.02-.48,.13-.63,.28-.18-.53-.55-.75-.94-.85-.18-.63-.58-1.08-1.16-1.37-.59,.27-1.02,.72-1.17,1.37-.47,.11-.79,.4-.95,.87-.21-.21-.41-.32-.8-.31-.45-.63-1.06-.72-1.91-.63,.73,1.72,1.09,2.65,1.8,4.55-.66,.24-1.1,.73-1.33,1.42-.11,0-.21-.02-.32-.02-.89,0-1.79,.51-1.79,1.6,0,.63,.27,1.24,.66,1.81,.38-.52,1.02-.88,1.49-.88,.21,0,.42,.07,.63,.18-.58,.24-1.4,.97-2.3,.97-.43,0-.77-.37-.99-.4,0,.63,.49,1.24,1.26,1.24,.63,0,1.06-.14,1.95-.57-.03,.1-.05,.21-.05,.34,0,.27,.07,.54,.14,.67l.34-.2c.35-.21,.83-.47,1.18-.47,.69,0,1.15,.65,1.15,1.33,0,1.8-1.42,2.85-2.93,4.03,.18,.23,.51,.4,.79,.5-.96,.85-1.42,2.89-2.81,2.48,.07,.36,.29,.72,.53,1.05-.25,.76-.36,1.15-.29,2.03-1.62-.04-2.59-1.11-2.82-2.39,1.11,.05,1.94-.56,2.46-1.24,.49-.61,.7-1.44,.7-2.32,0-3.81-3.42-7.11-7.01-9.24-3.6-2.14-6.12-2.7-7.76-2.64-.08,.95,.67,2.05,1.65,3.09-2.28-.75-2.95-.89-4.16-.89,.14,1.59,1.56,3.34,3.08,4.64-2.46-1.54-3.43-2.26-4.59-3.13-.25,1.39,.35,2.41,1.21,3.39-1.39-.21-2.78-.18-3.93,.03,.56,1.25,1.65,2.71,3.68,4.1-.76-.18-3.04-.82-4.13-1.53-.2,1.45,.72,2.48,1.98,3.22-1.51,.17-2.99,.64-3.81,1.34,1.28,1.46,3.69,2.19,5.93,2.83-2.24,.06-3.94,.24-6.22-.42,.19,1.92,1.76,2.72,4.32,2.89-.51,.21-3.59,1.69-4.48,3.36,.57,.33,1.85,.58,3.12,.58,1.93,0,3.38-.22,4.16-.36-2.07,1.41-4.52,2.71-6.22,2.85-.12,1.16,1.11,1.6,2.21,1.6,1.43,0,2.87-.65,3.63-1.02-2.47,3.33-3.05,5.39-3.02,7.08,1.41,.03,4.04-.65,7.31-3.55-1.16,2.34-2.61,5.18-4.33,5.87,.27,.49,.9,.69,1.4,.69,1.61,0,3.45-2.07,4.19-3.08-.64,3.91-.56,5.71-.17,7.02,1.65-.76,3.87-4.04,5.43-7.79-.18,.92-.4,1.84-.7,2.74,1.23,.18,2.6-1.14,3.23-4.35,.11,.13,.18,.18,.25,.27,1.79-1.29,2.68-3.68,3.07-6.59,.63,.62,1.91,1.03,3.06,0,.16,.35,.29,.73,.4,1.13-.27-.08-.58-.14-.88-.14-.9,0-2.1,.45-2.75,2.31-.4,1.14-1.48,3.24-3.06,4.08,.21,.12,.49,.27,.85,.34-.28,.29-.72,.58-1.3,.81,.22,.23,.46,.41,.7,.55-.43,.38-.92,.6-1.56,.92,.23,.24,.47,.43,.72,.59-.39,.32-.84,.56-1.36,.77,.55,.72,1.41,1.12,2.25,1.16-.5,.64-.82,1.07-1.62,1.52,.03,.12,.15,.16,.2,.28-.26,.27-.72,.57-1.1,.79,.02,.1,.08,.23,.15,.31-.25,.21-.54,.37-1.14,.72,.04,.12,.11,.24,.21,.37-.45,.28-.78,.43-1.1,.59l.26,.43c-.25,.28-.68,.63-1.06,.63-.55,0-1.27-.21-1.82-.21-.39,0-.81,.03-1.06,.09-.3-.48-.69-.72-1.16-.72-.52,0-1.09,.24-1.32,1.02-.59,.27-.92,.79-.96,1.34-.04,.63,.23,1.17,.83,1.54,.14-.43,.34-1.04,.99-1.32,.39,.09,.92,.08,1.33-.31l.88,.11c-.48,.18-.83,.3-1.11,.51-.16-.05-.25-.06-.4-.06-.85,0-1.68,.82-1.25,2.01-.49,1.13,.51,2.52,2.08,2.07-.3-.39-.38-.85-.38-.99,0-.18,.02-.37,.22-.47,.44-.24,.7-.63,.73-1.14,.39-.23,.77-.43,1.19-.58-.24,.27-.41,.56-.59,.86-.66,.22-.98,.77-.98,1.33,0,.47,.23,.92,.7,1.2,.16,.74,.81,1.17,1.56,1.17,.85,0,1.36-.5,1.59-1.05-.67,0-1.08-.29-1.25-.65,.11-.23,.16-.46,.16-.69s-.05-.45-.17-.66l.92-1.11c.3-.36,.79-.67,1.3-.67,.28,0,.69,.14,.77,.36,.08,.19,.21,.35,.35,.49,.05,.05,.07,.11,.07,.17-.03,.5-.25,.92-.84,1.16,.24,.22,.73,.39,1.21,.39,1.11,0,1.56-.87,1.48-1.72,.37-.39,.38-.72,.38-1.02,0-.87-.69-1.38-1.39-1.38-.41,0-.84,.24-.87,.27-.2-.14-.17-.41,.24-.88,2.73-3.19,3.58-4.17,4.42-5.16,.75,.78,1.88,1.18,2.54,1.02-.07-.31-.14-1.01-.09-1.41,.22,.08,.57,.16,.88,.14-.11-.53-.18-1.05-.18-1.55,0-1.65,.67-3.05,1.13-3.82,.03,3.4-.17,5.34-1.43,6.63,.26,.32,.94,.35,1.51,.11-.56,1.19-1.21,1.85-1.93,1.85-.53,0-1.15-.56-1.27-.62-.18,.33-.27,.66-.27,.97,0,1.21,1.23,2.22,2.35,2.22h.37c-.69,.69-1.49,.98-2.01,.98-.58,0-.92-.37-.92-.72,0-.37,.25-.8,.51-.95-1.65-.19-3.08,.6-3.08,2.17,0,.65,.22,1.76,1.38,2.32-1.2,.21-1.88,1.2-1.88,2.24,0,1.29,1.01,2.64,3.09,2.64,1.33,0,2.71-.53,3.9-2,.27,2.25,.75,3.66,1.66,4.45,1.11-.97,1.56-2.87,1.64-4.41,1.06,1.37,2.57,1.96,3.84,1.96,2.23,0,3.14-1.48,3.14-2.62,0-1.04-.62-2.01-1.89-2.25,1.01-.57,1.39-1.29,1.39-2.34,0-1.84-1.62-2.18-3.14-2.2,.4,.37,.58,.77,.58,1.01,0,.47-.55,.7-.92,.7-.5,0-1.24-.24-2.06-1.01,1.04,.22,2.76-.54,2.76-2.36,0-.21-.05-.56-.26-.82-.31,.33-.75,.65-1.27,.65-.84,0-1.67-1.08-1.86-1.86,.55,.28,1.28,.14,1.4-.11-1.53-1.85-1.4-5.62-1.32-6.47,.45,.79,1.04,2.12,1.04,3.67,0,.5-.07,1.01-.18,1.55,.31,.02,.66-.06,.88-.14,.05,.4-.02,1.1-.09,1.41,.66,.16,1.78-.24,2.54-1.02,.85,.98,1.69,1.97,4.42,5.16,.4,.47,.43,.75,.24,.88-.03-.04-.46-.27-.87-.27-.7,0-1.39,.51-1.39,1.38,0,.31,.02,.63,.38,1.02-.08,.85,.37,1.72,1.48,1.72,.48,0,.97-.17,1.21-.39-.59-.24-.81-.66-.84-1.16,0-.06,.02-.12,.07-.17,.14-.14,.27-.3,.35-.49,.08-.22,.49-.36,.77-.36,.52,0,1.01,.31,1.3,.67l.92,1.11c-.11,.21-.17,.43-.17,.66s.05,.46,.16,.69c-.17,.36-.58,.65-1.25,.65,.23,.56,.74,1.05,1.59,1.05,.75,0,1.4-.43,1.56-1.17,.47-.28,.7-.74,.7-1.2,0-.56-.33-1.11-.98-1.33-.18-.31-.35-.59-.59-.86,.42,.14,.8,.35,1.19,.58,.03,.52,.29,.91,.73,1.14,.2,.11,.22,.3,.22,.47,0,.14-.08,.6-.38,.99,1.57,.46,2.57-.94,2.08-2.07,.43-1.19-.4-2.01-1.25-2.01-.14,0-.24,0-.4,.06-.27-.21-.63-.34-1.11-.51l.88-.11c.41,.4,.95,.4,1.33,.31,.65,.28,.85,.89,.99,1.32,.6-.37,.87-.91,.83-1.54-.05-.56-.37-1.08-.96-1.34-.23-.78-.8-1.02-1.32-1.02-.47,0-.86,.24-1.16,.72-.25-.06-.67-.09-1.06-.09-.55,0-1.27,.21-1.82,.21-.38,0-.81-.35-1.06-.63l.26-.43c-.32-.15-.65-.31-1.1-.59,.1-.12,.17-.24,.21-.37-.6-.34-.89-.51-1.14-.72,.07-.08,.14-.21,.15-.31-.38-.21-.84-.52-1.1-.79,.05-.12,.17-.16,.2-.28-.8-.45-1.12-.88-1.62-1.52,.84-.04,1.7-.44,2.25-1.16-.52-.21-.97-.45-1.36-.77,.24-.15,.49-.34,.72-.59-.65-.31-1.13-.53-1.56-.92,.24-.14,.48-.32,.7-.55-.57-.23-1.01-.52-1.3-.81,.36-.07,.63-.21,.85-.34-1.58-.84-2.66-2.94-3.06-4.08-.65-1.86-1.85-2.31-2.75-2.31-.21,0-.43,.03-.63,.07,.07-.31,.19-.62,.31-.94,.97,.9,2.3,.47,2.9-.13,.38,2.91,1.27,5.3,3.07,6.59,.08-.1,.14-.14,.25-.27,.63,3.21,2.01,4.53,3.23,4.35-.3-.9-.53-1.82-.7-2.74,1.56,3.75,3.77,7.03,5.43,7.79,.39-1.31,.47-3.11-.17-7.02,.75,1.01,2.59,3.08,4.19,3.08,.5,0,1.12-.2,1.4-.69-1.72-.69-3.17-3.53-4.33-5.87,3.26,2.9,5.89,3.58,7.31,3.55,.03-1.69-.55-3.74-3.02-7.08,.76,.37,2.2,1.02,3.63,1.02,1.11,0,2.33-.44,2.21-1.6-1.7-.14-4.15-1.44-6.22-2.85Zm6.73-.38c-.53,.24-1.48,.36-2.64,.36-2.23,0-5.28-.42-7.69-1.04-.3-1.26-1.12-2.18-1.89-2.84,4.26,1.3,6.32,2.01,6.87,2.01-.39-.29-2.41-.98-6.89-2.43,1.41-.12,2.06-.47,2.74-1.05,1.41,.5,2.94,1.01,4.32,1.62,2.65,1.17,4.49,2.32,5.19,3.37Zm-16.31-.37c.47-.22,.72-.43,.97-.92,.75,1.15,1.2,2.31,.9,4.45-1.43-.29-2.53-1.24-3.33-2.74,.11-.21,.18-.44,.22-.69,.2,.07,.59,.08,.88,0,.38,.56,.88,1.49,1.13,1.62-.04-.32-.69-1.58-.76-1.73Zm1.09-1.37c.04-.23,.08-.44,.02-.73,.18-.02,.4-.13,.54-.17,.07,.02,1.78,1.14,2.17,1.15-.19-.27-.96-.81-1.81-1.39,.38-.3,.62-.72,.7-1.15,1.52,.82,2.71,2.26,2.91,3.54-.85,.34-3.44,.21-4.54-1.25Zm1.64-4.18c.31-.27,.56-.68,.61-1.17,.11-.03,.21-.05,.32-.08,.66,.17,2.36,.83,3.03,1.85-.85,.85-2.67,1.19-3.94,1.01,.02-.48-.14-.95-.48-1.3,.62,.08,2.37,.24,2.56,.13-.14-.18-1.06-.25-2.1-.43Zm-.45-3.03c.24-.46,.28-.86,.17-1.33,.72-.17,2.51-.11,3.74,.62-.42,1.05-1.63,1.83-2.86,2.19-.05-.48-.27-.94-.65-1.2,.69-.15,1.75-.4,1.88-.54-.21-.11-1.83,.22-2.28,.27Zm-1.64-2.84c-.16,0-.39,.02-.56,.05-.11-.24-.27-.46-.43-.66,1.32-1.17,3.22-1.76,4.47-1.33-.24,1.18-.63,2.1-1.79,3.07-.2-.49-.64-.86-1.18-1.04,.55-.37,1.59-.87,1.65-1.07-.26,0-1.19,.44-2.16,.98Zm-4.28,.68c-.52,.14-.91,.35-1.24,.85,.14-1.67,1.11-3.69,2.9-5.09,.66-.51,1.37-.82,2.15-.94,.14,1.16-.27,2.52-.86,3.63-.47-.31-1.06-.43-1.74-.17,.48-.72,1.37-1.85,1.42-2.01-.17,0-2.33,1.88-2.63,3.71Zm19.84,5.55c-.37,1.17-1.56,1.95-4.45,2.07-1.46-.66-2.76-1.17-4.09-1.61,.59-.1,1.21-.21,1.81-.33,1.7,.19,4.64,.37,6.73-.14Zm-.37-2.9c-1.42,1.59-7.02,2.79-8.79,3.08-.55-.99-1.44-1.43-2.48-1.9,2.33-.24,6.27-.48,6.41-.7-.24-.2-5.91,.31-6.24,.34,.43-.24,.83-.55,1.17-.89,.33-.33,.59-.74,.75-1.17,2.62-.14,7.3-.08,9.18,1.24Zm-1.63-3.97c-.03,.85-.9,1.87-2.25,2.5-1.4-.17-2.8-.2-3.84-.19,.56-.28,1.08-.59,1.57-.89,1.14-.23,3.13-.72,4.52-1.42Zm-.63-2.9c-.58,1.14-1.84,2.52-4.06,3.96-.7,.46-1.43,.88-2.19,1.26-.32,.04-.68,.04-1.01,.08-.38-.18-1.69-.68-2.9-.66,1.72-.75,5.12-2.04,5.33-2.32-.37-.08-4.45,1.58-5.54,2.03,.28-.35,.59-.76,.79-1.16,.23-.45,.38-.93,.43-1.44,.21-.08,2.84-1.14,5.47-1.62,1.33-.25,2.67-.25,3.68-.12Zm-2.46-3.04c-.05,1.06-.6,1.8-1.56,2.84-1.48,.29-2.97,.79-4.8,1.41,.09-.08,.53-.41,1.04-.83,2.17-1.08,3.49-2.04,5.32-3.42Zm-1.66-1.81c-.42,1.86-3.61,4.85-5.37,6.09-.92-.22-2.15-.19-3.72,.75,2.09-1.87,5.12-3.94,5.18-4.16-.32-.02-4,2.59-5.38,3.87,.43-1.2,.43-2.27,.33-2.81,1.08-.92,2.91-1.91,4.76-2.63,1.55-.61,3.1-1.02,4.21-1.1Zm-16.46,9.31c0-3.71,3.34-6.8,6.86-8.95,2.99-1.82,6.22-2.65,7.11-2.58,0,.92-1.43,2.36-1.83,2.82-.11,.13-.24,.22-.4,.28-1.67,.68-3.23,1.57-4.64,2.68-.41,.04-.82,.14-1.17,.31,1.64-1.4,4.04-3.27,4.1-3.47-.5,.13-3.61,2.52-4.83,3.63-2.48,2.26-3.44,4.19-3.44,6.12,0,1.07,.18,1.77,.81,2.38-.92-.03-2.55-.95-2.55-3.23Zm.02,6.35c1.77-.15,2.89-1.24,3.15-2.77,.18,.07,.34,.1,.52,.09-.05,.31-.02,.63,.09,.98,.36,.14,.69,.18,1.01,.14-.44,1.37-1.2,2.29-2.14,2.86-.93,.57-2.04,.82-3.26,.82,.08-.36,.18-.69,.24-1.04,.02-.08,.07-.17,.13-.27,.15-.24,.22-.5,.27-.81Zm4.75-3.99l.75,.31c-.53,.55-1.06,1.11-1.52,1.7-.15-.34,.05-1.43,.77-2.01Zm-.97-.34c.12-.17,.36-.32,.58-.37,.02,.17,.06,.35,.12,.53-.14,.14-.27,.28-.38,.43-.17-.17-.27-.36-.32-.59Zm2.97-.19c.98,.14,1.53,.78,1.65,1.3-.57-.19-1.2-.38-2.12-.66l.47-.63Zm0-.83c.3-.08,.5-.07,.72,0,.06,.22,.07,.47,0,.7-.17-.08-.35-.13-.55-.18-.05-.19-.11-.37-.17-.53Zm-24.9,.83l.47,.63c-.92,.28-1.55,.47-2.12,.66,.13-.52,.68-1.15,1.65-1.3Zm-.71-.83c.22-.07,.42-.08,.72,0-.06,.16-.11,.34-.17,.53-.2,.05-.38,.1-.55,.18-.07-.23-.06-.48,0-.7Zm3.49,3.36c-.46-.59-.99-1.15-1.52-1.7l.75-.31c.72,.58,.92,1.66,.77,2.01Zm-.5-2.19c.06-.18,.1-.36,.12-.53,.22,.05,.46,.21,.58,.37-.05,.23-.15,.42-.32,.59-.11-.15-.24-.3-.38-.43Zm6.06,2.54c.14,.04,.25,.05,.4,.08,0,.47,.12,.91,.27,1.36-.47,.37-.96,.74-1.53,.97-.27-.69-.31-1.07-.31-1.48,0-.48,.04-.97,.23-1.43,.19,.15,.38,.28,.62,.39-.08,.38-.26,.75-.24,1.15,.18-.2,.37-.69,.56-1.04Zm2.14,1.6c.13-.3-.13-1.96,.66-2.46,.14,.72,.02,1.2-.27,1.79,.27,.06,.6,.1,.96,.06,.14,.25,.29,.5,.5,.7-.9,.67-.64,.55-1.84,1.49-.84-.93-1.27-1.84-1.41-3.09,.09,0,.68-.11,1.27-.43-.16,.59-.11,1.52,.14,1.93Zm3.5-1.2c.47,.26,.95,.52,1.5,.65-.14,.75-.49,1.44-.92,2.07-.84-.85-2.03-1.51-2.35-2.17,.46-.11,.92-.36,1.3-.83,.24,.57,.5,1.27,.83,1.63-.02-.3-.24-.89-.37-1.34Zm-4.83,1.4c.3,.69,.72,1.27,1.32,1.9,1.69-1.49,.37-.34,2.13-1.74,.47,.46,1.03,.69,2.04,1.72,.44-.69,.9-1.36,1.11-2.17,.25,.37,1.3,1.11,1.65,1.35-.07,.29-.13,.6-.24,.9-.73-.04-1.25-.21-1.69-.43-.4,1.01-2.01,1.43-3.07,.69-1.06,.74-2.57,.32-3.05-.75-.44,.23-1,.43-1.56,.48-.11-.33-.2-.66-.23-1.01,.59-.15,1.14-.59,1.61-.94Zm15.21-2.45c-.02,.25-.07,.5-.12,.73-.45,2.01-1.53,3.2-2.88,3.97-1.33,.75-2.85,1-4.2,.88,.08-.29,.2-.56,.28-.86,.06,0,.13,0,.2,0,1.04,0,2.27-.22,3.29-.83,1.06-.63,1.9-1.67,2.37-3.23,.35-.12,.74-.37,1.06-.66Zm-2.11,.38c.59-.43,1.12-.96,1.7-1.51l.34,.76c-.58,.6-1.14,.88-2.04,.75Zm-14.73,4.34c.09,.28,.19,.57,.31,.85-1.36,.13-2.9-.12-4.23-.88-1.35-.76-2.43-1.96-2.88-3.97-.05-.24-.1-.48-.12-.73,.32,.3,.71,.54,1.06,.66,.47,1.56,1.31,2.6,2.37,3.23,1.02,.61,2.25,.83,3.29,.83,.07,0,.14,0,.21,0Zm-6.86-5.09l.34-.76c.58,.55,1.11,1.08,1.7,1.51-.89,.13-1.46-.14-2.04-.75Zm1.33-1.62l-.82,.18c.02-.16,.34-1.46,.45-2.18,.55,.5,.55,1.4,.37,2.01Zm-1.2,.09l-.65-.48c.11-.8,.71-1.49,1.34-1.65-.25,.69-.47,1.41-.69,2.13Zm-.18,.66l-.11,.83c-.59,.24-1.59,.2-2.09-.35,.71-.13,1.46-.31,2.2-.48Zm-.35,1.2c.05,.28,.08,.58,.13,.86,.42,1.99,1.58,3.33,3,4.13,1.43,.82,3.1,1.08,4.57,.95,.14,.34,.28,.66,.43,.96-.14,0-.29,0-.44,0-1.98,0-3.72-.37-5.12-1.13-2.06-1.11-3.39-3.04-3.63-5.77,.28,.08,.72,.05,1.08-.02Zm7.6,4.73c.53-.05,.98-.19,1.32-.36,.59,.97,2.1,1.37,3.21,.71,.99,.61,2.56,.32,3.22-.64,.41,.16,.87,.28,1.45,.32-.37,1.06-.38,1.08-.83,2.12-.7-.06-1.34-.27-1.98-.66-.84,.87-2.59,.89-3.45,0-.69,.43-1.35,.6-2.02,.66-.36-.7-.66-1.41-.92-2.15Zm9.15,1.22c1.46,.13,3.12-.14,4.54-.95,1.42-.8,2.58-2.14,3-4.13,.05-.28,.08-.58,.13-.86,.36,.06,.79,.09,1.08,.02-.24,2.73-1.57,4.65-3.63,5.77-1.4,.76-3.15,1.13-5.12,1.13-.13,0-.26,0-.39,0,.14-.32,.26-.63,.4-.95Zm7.42-6.32l-.11-.83c.74,.17,1.49,.35,2.2,.48-.5,.55-1.49,.59-2.09,.35Zm-.29-1.49c-.22-.72-.44-1.43-.69-2.13,.63,.15,1.23,.85,1.34,1.65l-.65,.48Zm-.38,.08l-.82-.18c-.18-.61-.18-1.5,.37-2.01,.11,.72,.43,2.02,.45,2.18Zm-5.9,3.46c.02,.42-.05,1.04-.39,1.51-.82-.53-1.39-1.04-1.63-1.44,.34-.29,.6-.64,.69-1.08,.19,.33,.39,.79,.58,.99,.02-.23-.13-.74-.28-1.1,.27-.03,.53-.11,.75-.26,.17,.44,.28,.9,.28,1.38Zm-3.44-19.2c.08,.15,.18,.3,.34,.43-.12,.17-.26,.21-.41,.21-.19,0-.34-.08-.43-.28,.19-.08,.37-.22,.5-.36Zm-3.73,.03c.15,.13,.31,.24,.48,.32-.22,.38-.61,.36-.8,.07,.15-.11,.24-.24,.32-.39Zm-2.45-1.92c.53-.07,.94,.24,1.24,.7,.51-.13,.94,.24,.95,.75,0,.19-.08,.37-.25,.53-.08-.26-.21-.48-.4-.6-.07,.63,.27,1.49,.98,1.49,.87-.02,1.1-1.14,.73-1.72-.14,.19-.19,.42-.18,.75-.37-.16-.59-.49-.59-.87,0-.56,.47-.98,.95-.97,.1-.58,.4-1.01,.88-1.29,.49,.29,.77,.72,.88,1.29,.48,0,.94,.4,.94,.95,0,.4-.21,.72-.56,.88,.02-.27-.05-.55-.19-.75-.36,.65-.12,1.74,.74,1.74,.72,0,1.14-.88,1.02-1.52-.22,.13-.34,.37-.41,.64-.19-.15-.28-.37-.28-.59,0-.55,.4-.81,.82-.77,.4-.61,.8-.88,1.36-.8-.38,.94-1.62,4.44-1.67,4.58-.85,.32-3.67-.4-4.57-.4-.24,0-.5,.03-.75,.08-1.06-2.75-.63-1.6-1.62-4.12Zm-1.42,9.83c-.36,0-.66-.14-.86-.43,.33,.18,.44,.21,.67,.21,1.27,0,2.23-1.3,3.62-1.28,.32,0,.66,.06,.96,.21-.17-.04-.33-.04-.5-.04-1.35,0-2.46,1.33-3.9,1.34Zm3.88-.34c-.56,0-1.17,.18-1.63,.5-.04-.8,1.13-1.24,1.88-1.24,.34,0,.72,.04,1.06,.18-.25-.67-1.22-1.02-2.15-1.02-.21,0-.65,.05-.68,.05-.11,.02-.21,0-.31-.04-.21-.08-.43-.11-.66-.11-.63,0-1.08,.27-1.41,.62-.21-.39-.34-.79-.35-1.23,0-.89,.84-1.22,1.45-1.22,1.17,0,1.82,.74,2.14,1.47,1.04,.14,2.7,.69,2.63,1.82,0,.35-.31,.46-.59,.46-.36,0-.68-.24-1.37-.24Zm-.82,6.39c.61,.07,1.4-.1,2.02-.6,.76-.62,1.25-1.37,1.49-2.35,.09-.38,.21-.89,.17-1.25-.14,.38-.24,.86-.37,1.21-.4,1.14-1.02,1.74-1.5,2.08-.75,.55-1.66,.74-2.46,.29,1.24-.91,2.68-2.1,2.67-4.05,0-.48-.17-.91-.53-1.28,.24,.03,.47,.13,.72,.13,.36,0,.88-.18,.9-.77,.08-1.35-1.56-1.91-2.74-2.15-.36-.74-.91-1.24-1.68-1.43,.29-.92,1.06-1.3,2.06-1.3,.78,0,2.47,.49,3.93,.49,.7,0,1.52-.27,2.13-.56,.06,.55-.21,1.2-.85,1.33,.18,.34,.53,.47,.85,.47s.73-.12,.95-.31c0,.91-.74,1.41-1.49,1.46,.75,1.15,.77,2.14,.77,3.06,0,1.64-.24,2.78-.24,4.42,0,.22,.05,.43,.14,.64-.53,.16-.82-.26-.92-.72-.24,.14-.02,.86,.53,.98-.1,1.03,.43,2.66,1.28,3.33-.27,.47-.7,.65-1.22,.57-.73-.82-1.11-1.46-1.11-2.33,0-.57,.16-1.24,.09-1.71-.21,.61-.35,1.3-.35,1.89,0,1.31,1.04,1.94,1.04,2.44,0,.31-.18,.63-.49,.94-1.38-.33-2.17-.93-2.17-2.28,0-2.58,1.98-3.81,1.97-7.3,0-.53-.11-1.33-.27-1.59-.02,.24,.07,.85,.06,1.59-.05,3.41-2.12,4.55-2.12,7.31,0,.41,.08,.8,.24,1.2-.47,.75-1.16,1.04-2.01,1.01,.19-.35,.23-.7,.14-1.46-.06-.56-.13-1.49,.53-2.59,.2-.33,.56-.72,.78-1.1-.36,.15-.69,.54-.94,.85-.46,.59-.67,1.3-.76,2.27-.63,.59-1.49,1.17-2.32,1.08-.69-.08-1.19-.36-1.66-1.15,1.29-.05,1.65-2.04,2.73-2.75Zm-3,5.86c.06,.33,.24,.63,.27,.96,.05,.36,.16,.82,.26,1.15-1.21,0-2.33-.24-3.26-.82-.95-.57-1.7-1.49-2.14-2.86,.31,.04,.65,0,1.01-.14,.11-.34,.14-.67,.09-.98,.18,0,.34-.02,.52-.09,.26,1.56,1.43,2.65,3.26,2.78Zm-14.06-17.88c.9-.07,4.13,.75,7.11,2.58,3.52,2.14,6.86,5.24,6.86,8.95,0,2.27-1.63,3.2-2.55,3.23,.63-.61,.81-1.31,.81-2.38,0-1.92-.96-3.85-3.44-6.12-1.22-1.11-4.34-3.5-4.83-3.63,.06,.2,2.46,2.07,4.1,3.47-.35-.17-.76-.27-1.17-.31-1.42-1.11-2.97-2.01-4.64-2.68-.16-.06-.29-.15-.4-.28-.4-.46-1.82-1.91-1.83-2.82Zm9.39,9.56c-.68-.27-1.27-.14-1.74,.17-.59-1.11-1.01-2.47-.86-3.63,.79,.12,1.49,.43,2.15,.94,1.78,1.4,2.76,3.42,2.9,5.09-.33-.5-.72-.72-1.24-.85-.3-1.83-2.46-3.72-2.63-3.71,.05,.16,.94,1.29,1.42,2.01Zm-3.57,1.12c-.54,.18-.98,.56-1.18,1.04-1.16-.98-1.56-1.89-1.79-3.07,1.25-.43,3.15,.17,4.47,1.33-.17,.2-.33,.41-.43,.66-.17-.04-.4-.06-.56-.05-.97-.53-1.9-.98-2.16-.98,.07,.2,1.11,.7,1.65,1.07Zm-1.54,3.03c-.37,.27-.59,.72-.65,1.2-1.23-.36-2.44-1.14-2.86-2.19,1.24-.73,3.03-.79,3.74-.62-.11,.47-.08,.87,.17,1.33-.45-.05-2.07-.38-2.28-.27,.13,.14,1.18,.39,1.88,.54Zm.42,3.05c-.34,.34-.5,.82-.48,1.3-1.27,.18-3.09-.15-3.94-1.01,.66-1.01,2.37-1.68,3.03-1.85,.11,.03,.21,.05,.32,.08,.05,.5,.3,.91,.61,1.17-1.04,.18-1.96,.25-2.1,.43,.19,.11,1.94-.05,2.56-.13Zm.61,2.98c.14,.04,.37,.14,.54,.17-.06,.29-.02,.5,.02,.73-1.1,1.46-3.68,1.59-4.54,1.25,.2-1.27,1.4-2.71,2.91-3.54,.08,.43,.32,.85,.7,1.15-.85,.58-1.62,1.12-1.81,1.39,.4-.02,2.1-1.13,2.17-1.15Zm2.02,2.37c.28,.08,.68,.07,.88,0,.05,.24,.11,.47,.22,.69-.8,1.49-1.91,2.45-3.33,2.74-.3-2.14,.15-3.29,.9-4.45,.25,.48,.5,.69,.97,.92-.08,.15-.72,1.41-.76,1.73,.25-.13,.75-1.06,1.13-1.62Zm-9.82-19.9c1.11,.08,2.66,.49,4.21,1.1,1.85,.72,3.68,1.72,4.76,2.63-.11,.53-.11,1.6,.33,2.81-1.38-1.28-5.06-3.89-5.38-3.87,.06,.22,3.09,2.3,5.18,4.16-1.57-.94-2.81-.97-3.72-.75-1.75-1.24-4.95-4.22-5.37-6.09Zm-1.66,1.81c1.84,1.38,3.15,2.34,5.32,3.42,.52,.42,.95,.75,1.04,.83-1.83-.63-3.32-1.12-4.8-1.41-.96-1.04-1.52-1.78-1.56-2.84Zm-2.46,3.04c1.01-.13,2.34-.13,3.68,.12,2.62,.49,5.25,1.54,5.47,1.62,.05,.51,.2,.99,.43,1.44,.2,.4,.5,.81,.79,1.16-1.09-.45-5.17-2.11-5.54-2.03,.21,.27,3.61,1.56,5.33,2.32-1.21-.02-2.52,.47-2.9,.66-.33-.04-.69-.04-1.01-.08-.75-.38-1.49-.8-2.19-1.26-2.22-1.44-3.48-2.82-4.06-3.96Zm-.63,2.9c1.4,.69,3.39,1.19,4.52,1.42,.5,.31,1.01,.61,1.57,.89-1.04,0-2.45,.02-3.84,.19-1.35-.63-2.22-1.65-2.25-2.5Zm-1.63,3.97c1.88-1.32,6.56-1.38,9.18-1.24,.16,.43,.42,.85,.75,1.17,.34,.34,.75,.66,1.17,.89-.33-.03-6-.54-6.24-.34,.14,.22,4.08,.46,6.41,.7-1.04,.47-1.93,.91-2.48,1.9-1.77-.29-7.37-1.49-8.79-3.08Zm-.37,2.9c2.08,.51,5.03,.33,6.73,.14,.59,.12,1.21,.23,1.81,.33-1.33,.44-2.63,.95-4.09,1.61-2.88-.12-4.08-.9-4.45-2.07Zm2.53,5.92c-1.16,0-2.1-.11-2.64-.36,.69-1.05,2.54-2.2,5.19-3.37,1.37-.6,2.91-1.11,4.32-1.62,.68,.59,1.33,.93,2.74,1.05-4.48,1.46-6.5,2.14-6.89,2.43,.55,0,2.62-.71,6.87-2.01-.77,.66-1.59,1.58-1.89,2.84-2.4,.62-5.45,1.04-7.69,1.04Zm.08,4.1c-.87,0-1.74-.31-1.84-.91,1.58-.12,4.42-1.72,6.64-3.28,.85-.15,1.7-.31,2.63-.55-1.01,.77-2.84,2.86-3.27,3.38-1.36,.75-2.89,1.36-4.16,1.36Zm.98,6.04c.02-1.9,1.53-4.67,3.42-7.09,1.09-1.39,2.3-2.66,3.44-3.57,1.12,.38,2.53,.11,3.41-.24-3.76,3.97-6.38,6.64-6.43,7.07,.4-.08,4.46-4.52,7.02-7.21-.66,1.43-.59,2.6-.53,3.32-.9,1.4-1.97,2.7-3.15,3.81-2.5,2.41-5.57,3.97-7.18,3.9Zm3.87,3.05c-.29,0-.51-.08-.66-.21,2.1-1.08,4.37-6.58,4.44-6.66,1.04-1.04,1.96-2.2,2.8-3.41,.02,.07,.05,.16,.09,.26-1.15,2.3-1.75,4.57-2.15,6.31-1.71,2.74-3.51,3.72-4.52,3.72Zm4.38,3.74c-.41-1.56,.07-4.94,.44-6.92,.4-2.14,1.08-4.53,2.25-6.88,1.01-.27,1.83-.72,2.65-1.73-.72,2-2.84,8.53-2.75,8.65,.22,0,2.17-5.96,3.08-8.56-.07,1.23,.09,2.14,.75,3.14-.06,.25-.59,2.36-1.14,3.81-1.98,5.22-4.45,8.09-5.28,8.5Zm7.18-14.28c.21-.34,.34-1.13,.46-1.57,.23,0,.43-.05,.56-.1,.08,.18,.27,.49,.63,.74-.37,1.19-.95,2.34-2.03,2.84-.72-.99-.95-1.91-.74-4.13,.31,.34,.74,.56,1.24,.63-.02,.29-.15,1.15-.12,1.59Zm-2.22,9.42c.47-1.43,.58-2.58,.9-3.87,.24-.93,.5-1.94,.73-2.87,.18,.79,.43,1.68,.87,2.37-.53,2.8-1.62,4.23-2.5,4.37Zm3.06-4.22c-.63-.79-.93-1.89-1.11-2.92,.81-.48,1.23-.86,1.62-1.65-.09,.73-.44,2.94-.29,3.1,.24-.18,.62-2.91,.93-4.47,.38,.18,.84,.24,1.45,.05-.35,2.55-1.2,4.74-2.61,5.89Zm3.09-6.6c-.92,.87-2.3,.54-2.71-.79-1.1,.63-2.44,0-2.47-1.53-1.8,.56-2.64-.95-2.25-2.06-1.81-.07-2.18-2.2-.88-2.95-1.5-.35-2.01-2.22-.24-3.14-.5-.87-.31-1.64,.16-2.11,.47-.45,1.19-.62,1.78-.29,.29-1.01,1.19-1.3,1.59-1.3,1.15,0,1.64,1.07,1.56,1.75,.18,.02,.37,.07,.54,.14,1.74,.75,.83,3.23-.56,3.16-.05-.15-.11-.31-.2-.46,.28-.29,.42-.54,.45-.98-.22-.28-.5-.49-.86-.56,0-.71-.27-1.31-.78-1.69-.73,.14-1.19,.47-1.5,1.06-.42-.1-.72-.08-1.08,.04-.12,.4-.14,.68-.05,1.08-.54,.32-.91,.82-1.01,1.48,.21,.28,.5,.48,.82,.6,.26,2.93,1.66,4.98,3.84,6.16,1.46,.79,3.29,1.17,5.34,1.17,.18,0,.36,0,.54-.02,.22,.42,.53,.85,.82,1.42-.75,.83-2.1,.84-2.84-.21Zm-13.83,21.12c-.23-.24-.33-.55-.31-.88,.03-.4,.21-.7,.55-.93,.07,.36,.24,.65,.5,.88-.34,.22-.56,.51-.74,.93Zm.87,1.89c.31,.28,.67,.44,1.09,.41-.1,.37-.02,.67,.11,.99-.71,.07-1.32-.63-1.2-1.4Zm5.17,2.29c-.25,.28-.55,.43-.92,.43-.45,0-.8-.2-1.04-.62,.43,.04,.8-.08,1.14-.38,.2,.28,.47,.5,.83,.57Zm3.24-1.84c-.15,0-.3,0-.45-.09,.24-.29,.38-.6,.42-.97,.35,.12,.77,.11,1.12-.02,0,.34-.26,1.04-1.09,1.08Zm-.51-4.57c-.28,.33-.4,.53-.4,.87,0,.24,.17,.6,.52,.63,.1,0,.16-.06,.28-.13,.17-.12,.35-.18,.57-.18,.56,0,1.01,.4,1.01,1.02s-.53,1-.92,1c-.69,0-.9-.44-1.03-.66-.21-.36-.72-.63-1.34-.53-.23,.04-.21-.14-.14-.24,.05-.07,.1-.11,.11-.14-.31,.03-.76,.5-1.22,1.04-.48,.57-.96,1.17-1.19,1.45,.08,.12,.26,.4,.26,.69,0,.53-.43,1.01-1,1.01s-1.03-.46-1.03-1c0-.47,.33-.92,.86-1,.13-.26,.29-.52,.47-.75,.18-.24,.37-.49,.55-.74,.23-.32,.34-.5,.38-.69-.18-.05-.47,.24-.58,.35-.07,.08-.15,.12-.24,.15-.74,.22-1.28,.54-1.79,.87,.07,.72-.5,1.12-1.01,1.12-.37,0-.99-.28-.99-1.01s.56-1.01,.97-1.01c.18,0,.31,.02,.47,.1,.19-.19,.9-.52,1.18-.61,.31-.1,.82-.37,1.04-.59-.15-.08-.47-.08-.69-.08-.51,0-1.01-.05-1.49-.15-.22,.26-.47,.4-.78,.4-.61-.02-.95-.5-.95-.95,0-.53,.43-.95,.94-.95,.44,0,.83,.3,.93,.75,.52-.1,.96-.12,1.33-.12,.64,0,1.46,.21,1.81,.21,.55,0,.97-.37,1.37-.76,.24,.04,.59,.05,.78-.12-.44-.13-.65-.18-.79-.39l.93-.54c.26,.06,.53,0,.71-.21-.21-.05-.63-.04-.76-.24,.32-.18,.63-.38,.91-.6,.32,.07,.69,.05,.88-.21-.26-.04-.43-.05-.88-.14,.36-.24,.69-.5,1-.79,.31,.03,.63,0,.86-.24-.23-.05-.41-.06-.88-.12,.39-.27,1.18-1.2,1.56-1.64,.03,0,.07,0,.1-.02,.04,.5,.11,.93,.35,1.27,.51,.04,1.02-.16,1.43-.49-1.46,1.72-3.08,3.53-4.43,5.1Zm4.12-6.09c.05,.2,.12,.4,.23,.62-.31,.31-.77,.53-1.16,.53-.16-.26-.21-.79-.17-1,.3-.08,.54-.18,.77-.3-.05,.32-.21,.5-.24,.82,.25-.19,.39-.48,.56-.67Zm4.87-4.93c-.86,1.04-1.47,2.74-1.47,4.32,0,.37,.03,.75,.11,1.1-1.11-.27-1.3-1.55-1.37-2.39-.31,.89-.02,1.92,.56,2.42-.06,.59-.05,.97,.02,1.32-.95-.18-1.81-.69-2.2-1.52-.21-.41-.31-.88-.29-1.35-.52,.59-1.33,.9-2.03,.9s-1.33-.21-1.86-.67c.44-.21,.74-.4,1.11-.71,.18,.06,.36,.1,.6,.1,.49,0,1.08-.14,1.79-.66,.9,.22,1.91-.23,2.17-1.06-.53,.53-1.14,.78-1.86,.73-.9,.47-1.47,.59-1.93,.59-.4,0-.81-.09-1.19-.37,.47-.19,.88-.47,1.23-.84,.2,.06,.4,.1,.61,.1,.71,0,1.66-.31,2.4-1.27,.68,.23,1.75-.46,1.8-1.22-.42,.56-.96,.86-1.64,.88-.48,.53-1.51,1.2-2.53,1.2-.38,0-.76-.1-1.03-.32,.39-.2,.78-.49,1.14-.85,1.19,0,2.08-.66,2.49-1.42,.77,.18,1.73-.53,1.77-1.2-.43,.54-.97,.83-1.65,.85-.53,.88-1.6,1.37-2.55,1.37-.21,0-.4-.02-.59-.1,1.42-1.14,2.24-2.87,2.59-3.85,.37-1.06,1.06-2.06,2.42-2.06,.35,0,.66,.07,.97,.19,.41,1.72,.43,3.74,.43,5.8Zm-.83,6.95c1.14-1.11,1.2-4.28,1.22-4.78,.12,.31,.25,.64,.41,.92-.21,1.09-.26,2.21-.21,3.36-.35,.35-.82,.57-1.42,.5Zm-.02,4.29c-1.12,0-2.09-.78-2.09-1.82,0-.14,.02-.29,.07-.43,.3,.28,.73,.45,1.07,.45,1.25,0,2.13-1.49,2.36-2.4l.09-.09c.05,.61,.16,1.12,.3,1.64-.72,1.24-1.32,1.61-2.49,1.61,.55,.34,1.72,.03,2.33-.75-.08,.42-.16,.85-.18,1.27-.44,.34-.93,.53-1.46,.53Zm2.9-3.48c.09-.42,.2-1.83,.19-3.39,.31-.24,.55-.53,.79-.83,.26,3-.04,5.41-.98,6.63-1.07-1.33-1.29-4.24-.99-6.65,.24,.33,.49,.61,.79,.83,0,.75,.06,2.89,.2,3.4Zm-.86,1.55c.15,.43,.37,.83,.66,1.2,0,.66,.04,2.52,.21,3.84,.09-1.35,.18-3.02,.18-3.84,.3-.35,.5-.77,.68-1.2,.17,.88,.3,1.81,.24,3-.05,1.47-.37,3.26-1.14,4.16-.89-1.31-1.08-3.23-1.11-4.54,0-.83,.08-1.82,.27-2.63Zm-6.92,3.75c0-.92,.76-1.78,1.99-1.78-.5,.97,.21,1.66,1.13,1.66s1.93-.69,2.62-1.46c.19-.07,.37-.14,.56-.24,0,.22,0,.44-.02,.65-.4,.73-2.14,2.16-3.46,2.16-.79,0-1.3-.33-1.49-.96-.05,.92,.82,1.24,1.49,1.24,1.06,0,2.49-.66,3.49-1.73,.02,.3,.08,.6,.08,.9l-.08,.08c-.98,1.08-2.48,1.81-3.84,1.81-1.07,0-2.46-.71-2.46-2.32Zm5.64,1.59c-.69,1.13-2.07,2.27-3.19,2.27-.5,0-.81-.24-.81-.59,0-.23,.11-.42,.3-.6,.83,.07,2.11,0,3.7-1.08Zm-3.39,3.94c1.34,0,2.52-.83,3.9-2.39-.04,.36-.04,1.18-.04,1.46-1.7,2.36-3.48,2.26-3.86,2.26-1.67,0-2.75-.99-2.75-2.29,0-1.07,.88-1.91,2.05-1.91-.5,.43-.37,1.55,.9,1.55,1.57,0,3.14-1.64,3.97-3.29l.06,.14c-.11,.44-.18,.8-.23,1.14-1.27,2.02-2.87,3.04-4.1,3.04-.37,0-1.31-.14-1.41-1.22-.19,.31,.02,1.51,1.51,1.51Zm5.53,3.61c-1.01-1.16-1.3-3.4-1.3-5.08,0-.74,.09-1.47,.21-2.2,.2,.72,.43,1.38,.92,1.94,0,.43,.2,2.88,.2,2.88,0,0,.14-2.46,.16-2.89,.44-.53,.72-1.19,.92-1.86,.14,.82,.2,1.48,.2,2.31,0,1.11-.28,3.84-1.31,4.9Zm8.24-4.51c0,1.55-1.51,2.22-2.67,2.22-1.49,0-3.03-.79-3.89-2.2,0-.63-.02-1.12-.02-1.45,1.27,1.64,2.81,2.37,3.85,2.37,1.49,0,1.67-1.24,1.48-1.55-.1,1.08-1.01,1.26-1.38,1.26-1.23,0-2.89-1.06-4.06-3-.04-.33-.18-.89-.27-1.17l.04-.2c.77,1.65,2.3,3.29,3.93,3.29,1.17,0,1.43-.98,.92-1.54,1.34,.11,2.07,.87,2.07,1.97Zm-6.1-3.04c1.51,1.08,2.79,1.15,3.62,1.08,.18,.18,.29,.37,.29,.6,0,.35-.31,.59-.8,.59-1.12,0-2.49-1.14-3.11-2.28Zm2.5-1.71c1.04,0,1.64-.78,1.11-1.66,1.22,.16,2,.74,2,1.79,0,1.48-1.2,2.31-2.47,2.31-1.09,0-2.77-.59-3.88-1.84,.02-.37,.05-.63,.09-.9,.99,1.07,2.42,1.73,3.49,1.73,.66,0,1.54-.33,1.49-1.24-.18,.63-.69,.96-1.49,.96-1.32,0-3.07-1.43-3.47-2.16,0-.22-.02-.45,0-.67,.15,.08,.31,.14,.48,.21,1.05,1.14,1.98,1.46,2.67,1.46Zm-.82-3.52c.4,0,.82-.13,1.12-.46,.18,.94-.51,2.28-2.08,2.28-.49,0-.96-.18-1.41-.49-.05-.39-.08-.76-.18-1.32,.51,.78,1.59,1.04,2.23,.75-1.03,0-1.75-.37-2.41-1.56,.13-.54,.24-1.12,.31-1.75l.1,.13c.3,1.14,1.2,2.41,2.31,2.41Zm-.91-2.41c-.56,.08-1.08-.21-1.46-.65,.07-1-.02-2.43-.18-3.25,.11-.27,.26-.47,.36-.91,.02,1.14,.34,3.86,1.28,4.8Zm-1.21-7.23c0,1.45-.46,3.27-1.69,4.29-1.27-.99-1.7-2.92-1.7-4.33,0-2.36-.06-4.99-.84-6.92,.92,.46,1.97,.37,2.67-.29,.62,.61,1.71,.73,2.49,.41-.71,2.06-.93,4.5-.93,6.85Zm9.2,15.71c-.15,.08-.3,.09-.45,.09-.83-.04-1.1-.74-1.09-1.08,.35,.13,.77,.14,1.12,.02,.04,.37,.18,.68,.42,.97Zm3.71,2.36c-.37,0-.67-.14-.92-.43,.36-.08,.63-.29,.83-.57,.34,.3,.7,.42,1.14,.38-.24,.42-.59,.62-1.04,.62Zm3.04-1.31c.14-.32,.21-.63,.11-.99,.42,.03,.78-.13,1.09-.41,.11,.78-.5,1.47-1.2,1.4Zm1.83-5.11c.34,.23,.52,.53,.55,.93,.02,.34-.08,.64-.31,.88-.18-.42-.4-.71-.74-.93,.26-.24,.43-.53,.5-.88Zm-9.52-4.64c-.47,.06-.65,.07-.88,.12,.23,.24,.55,.27,.86,.24,.31,.29,.64,.55,1,.79-.44,.1-.62,.11-.88,.14,.18,.27,.56,.28,.88,.21,.28,.22,.59,.42,.91,.6-.14,.21-.55,.2-.76,.24,.18,.2,.45,.27,.71,.21l.93,.54c-.14,.21-.34,.26-.79,.39,.19,.18,.53,.16,.78,.12,.4,.39,.82,.76,1.37,.76,.34,0,1.17-.21,1.81-.21,.37,0,.82,.02,1.33,.12,.1-.46,.49-.75,.93-.75,.51,0,.94,.42,.94,.95,0,.44-.34,.92-.95,.95-.31,0-.56-.14-.78-.4-.49,.11-.98,.15-1.49,.15-.23,0-.54,0-.69,.08,.23,.22,.74,.5,1.04,.59,.28,.09,.99,.42,1.18,.61,.15-.08,.29-.1,.47-.1,.41,0,.97,.31,.97,1.01s-.63,1.01-.99,1.01c-.51,0-1.08-.4-1.01-1.12-.51-.33-1.05-.65-1.79-.87-.09-.03-.18-.08-.24-.15-.11-.11-.4-.4-.58-.35,.05,.18,.15,.37,.38,.69,.18,.25,.37,.5,.55,.74,.18,.24,.34,.5,.47,.75,.53,.08,.86,.53,.86,1,0,.54-.46,1-1.03,1s-1-.49-1-1.01c0-.3,.18-.57,.26-.69-.23-.28-.71-.88-1.19-1.45-.46-.54-.92-1.01-1.22-1.04,0,.03,.06,.08,.11,.14,.07,.1,.06,.27-.14,.24-.63-.08-1.04,.04-1.34,.53-.1,.16-.34,.66-1.03,.66-.39,0-.92-.35-.92-1s.44-1.02,1.01-1.02c.22,0,.4,.05,.57,.18,.12,.07,.18,.13,.28,.13,.35-.02,.52-.38,.52-.63,0-.34-.12-.54-.4-.87-1.35-1.57-2.97-3.39-4.43-5.1,.41,.33,.92,.53,1.43,.49,.24-.34,.31-.76,.35-1.27,.03,0,.07,0,.1,.02,.37,.44,1.17,1.37,1.56,1.64Zm-2.8-2.02c.23,.11,.47,.22,.77,.3,.05,.21,0,.74-.17,1-.39,0-.85-.22-1.16-.53,.11-.21,.18-.42,.23-.62,.18,.19,.31,.48,.56,.67-.03-.33-.19-.5-.24-.82Zm-3.8-10.76c1.36,0,2.04,1,2.42,2.06,.34,.98,1.17,2.71,2.59,3.85-.19,.08-.39,.1-.59,.1-.95,0-2.01-.48-2.55-1.37-.69-.02-1.22-.31-1.65-.85,.04,.68,1,1.39,1.77,1.2,.41,.75,1.3,1.42,2.49,1.42,.36,.36,.75,.65,1.14,.85-.27,.22-.65,.32-1.03,.32-1.02,0-2.05-.67-2.53-1.2-.68-.02-1.22-.33-1.64-.88,.05,.76,1.12,1.45,1.8,1.22,.74,.95,1.69,1.27,2.4,1.27,.21,0,.41-.04,.61-.1,.35,.37,.76,.65,1.23,.84-.38,.28-.79,.37-1.19,.37-.46,0-1.03-.11-1.93-.59-.72,.05-1.33-.2-1.86-.73,.26,.83,1.27,1.28,2.17,1.06,.72,.53,1.3,.66,1.79,.66,.24,0,.42-.04,.6-.1,.37,.31,.66,.5,1.11,.71-.53,.46-1.19,.67-1.86,.67s-1.51-.31-2.03-.9c.02,.47-.08,.94-.29,1.35-.39,.82-1.25,1.33-2.2,1.52,.07-.35,.08-.73,.02-1.32,.59-.5,.88-1.53,.56-2.42-.06,.85-.26,2.12-1.37,2.39,.08-.35,.11-.72,.11-1.1,0-1.56-.59-3.21-1.42-4.26,0-1.62,.05-3.26,.6-5.95,.23-.07,.47-.11,.74-.11Zm-.63-1.47c-1.15,.54-2.14,.11-2.6-.56-.67,1.08-2.18,.94-2.88,.36-.33-.64-.58-.97-.84-1.44,.62-.07,1.25-.22,1.81-.56,.85,.66,2.37,.87,3.55,0,.51,.29,1.14,.48,1.81,.55-.26,.57-.55,1.11-.84,1.65Zm3.15-.41c-.69,1-1.94,1.04-2.71,.34,.25-.51,.52-1.01,.79-1.54,.15,0,.31,0,.45,0,2.05,0,3.87-.39,5.34-1.17,2.17-1.18,3.58-3.23,3.84-6.16,.33-.12,.61-.32,.82-.6-.11-.66-.47-1.16-1.01-1.48,.09-.4,.08-.68-.05-1.08-.36-.12-.66-.14-1.08-.04-.31-.59-.77-.92-1.5-1.06-.5,.37-.79,.98-.78,1.69-.36,.07-.64,.27-.86,.56,.03,.43,.17,.69,.45,.98-.08,.14-.15,.31-.2,.46-1.4,.07-2.3-2.41-.56-3.16,.18-.08,.36-.12,.54-.14-.08-.69,.41-1.75,1.56-1.75,.4,0,1.3,.29,1.59,1.3,.59-.33,1.31-.16,1.78,.29,.47,.47,.66,1.24,.16,2.11,1.76,.92,1.26,2.79-.24,3.14,1.3,.75,.92,2.88-.88,2.95,.39,1.11-.45,2.62-2.25,2.06-.03,1.54-1.37,2.17-2.47,1.53-.41,1.33-1.8,1.65-2.71,.79Zm3.81-.19c.5-.06,.93-.28,1.24-.63,.21,2.21-.02,3.13-.74,4.13-1.08-.5-1.66-1.65-2.03-2.84,.36-.25,.55-.56,.63-.74,.14,.05,.34,.09,.56,.1,.12,.44,.24,1.24,.46,1.57,.03-.44-.11-1.3-.12-1.59Zm-.72,6.79c-1.41-1.15-2.26-3.33-2.61-5.89,.61,.19,1.07,.12,1.45-.05,.31,1.56,.69,4.29,.93,4.47,.15-.17-.2-2.37-.29-3.1,.4,.79,.82,1.17,1.62,1.65-.18,1.03-.47,2.14-1.11,2.92Zm3.06,4.22c-.88-.14-1.97-1.57-2.5-4.37,.43-.69,.69-1.58,.87-2.37,.23,.93,.5,1.94,.73,2.87,.32,1.29,.43,2.44,.9,3.87Zm4.96,4.86c-.82-.4-3.3-3.27-5.28-8.5-.55-1.45-1.08-3.55-1.14-3.81,.66-1,.82-1.91,.75-3.14,.91,2.6,2.86,8.56,3.08,8.56,.09-.12-2.03-6.65-2.75-8.65,.82,1.01,1.64,1.46,2.65,1.73,1.17,2.35,1.85,4.74,2.25,6.88,.37,1.98,.85,5.36,.44,6.92Zm5.04-3.95c-.14,.14-.37,.21-.66,.21-1.01,0-2.81-.98-4.52-3.72-.4-1.74-1-4-2.15-6.31,.04-.1,.07-.19,.09-.26,.84,1.21,1.75,2.37,2.8,3.41,.07,.08,2.34,5.58,4.44,6.66Zm3.22-2.84c-1.61,.07-4.68-1.49-7.18-3.9-1.18-1.11-2.25-2.42-3.15-3.81,.06-.72,.14-1.9-.53-3.32,2.55,2.69,6.61,7.14,7.02,7.21-.05-.43-2.67-3.1-6.43-7.07,.88,.34,2.29,.62,3.41,.24,1.14,.91,2.35,2.18,3.44,3.57,1.9,2.42,3.4,5.19,3.42,7.09Zm.98-6.04c-1.27,0-2.81-.6-4.16-1.36-.43-.52-2.26-2.61-3.27-3.38,.93,.24,1.78,.4,2.63,.55,2.22,1.56,5.06,3.16,6.64,3.28-.1,.59-.97,.91-1.84,.91ZM52.38,54.92c.34,3.68,.27,5.85,.31,6.74,.04,.97,.43,1.98,1.04,2.62,.66-.69,1.04-1.78,1.06-2.89,0-.19-.05-2.79,.3-6.46-.97,.34-1.81,.4-2.71,0Zm2.06,6.5c0,1-.41,1.93-.7,2.3-.56-.79-.7-1.67-.72-2.48,0-.76-.15-4.48-.21-5.79,.74,.18,1.09,.14,1.86,.02-.14,1.24-.22,4.67-.24,5.96ZM55.9,31.44c.35-.08,.59-.21,.69-.3-.13,0-.39,.04-.72,.05-.3,.01-.66,.01-1.05-.02h0c-.34-.03-.68-.07-1.01-.16-.17-.04-.33-.09-.5-.13-.17-.05-.34-.1-.52-.15-.35-.09-.71-.18-1.09-.16-.19,.01-.39,.07-.57,.17-.18,.09-.34,.24-.46,.4l.29,.2c.07-.11,.17-.19,.28-.25,0,.18,.04,1.11,1.45,1.39,1.35,.27,2.81-.86,2.97-1,.08-.01,.16-.03,.24-.04Zm-3.01-.3c.06,.02,.13,.03,.2,.05,.01,0,.05,.01,.09,.02,0,.02,0,.03,0,.05,0,.1-.08,.17-.17,.17s-.17-.08-.17-.17c0-.05,.02-.09,.05-.12Zm-.14,1.07c-1.13-.23-1.2-.94-1.21-1.05,0,0-.03,0-.1-.04-.07-.04-.08-.11-.07-.11,.1-.04,.23-.06,.35-.06,.1,0,.24-.01,.37,0-.03,.1-.05,.2-.05,.3,0,.45,.31,.83,.72,.94,0,0,0,0,0,0Zm-.44-.95c0-.09,.02-.18,.05-.26,.05,0,.1,.02,.25,.06-.03,.06-.05,.13-.05,.2,0,.25,.2,.45,.45,.45s.43-.19,.45-.42c.1,.03,.19,.05,.25,.06-.04,.35-.34,.61-.69,.61-.39,0-.7-.32-.7-.7Zm.73,.98s0,0,0,0c.48-.02,.86-.37,.93-.83,.47,.07,.99,.12,1.09,.12-.8,.49-1.22,.66-2.03,.71ZM19.4,71.32l-5.97,3.6,.77,1.28-.39,.23-1.74-2.89,.05-.03c.45,.23,.9,.44,1.35,.68v.02s6.66-4.02,6.66-4.02l-.63-1.04,.39-.23,1.17,1.95-3.31,7.84,5.51-3.32-.77-1.28,.39-.23,1.74,2.89-.05,.03c-.45-.23-.9-.44-1.35-.68v-.02s-7.05,4.25-7.05,4.25l-.36-.6,3.59-8.43ZM26.03,78.71l.32-.32,1.65,1.65-3.84,8.38,.71,.71-.32,.32-2.67-2.67,.04-.04c.48,.11,.94,.22,1.42,.33l1.01-2.15-2.22-2.22-2.55,1.14,.78,.78-.32,.32-2.01-2.01,.04-.04,1.55,.28,7.01-3.12,.23-.5-.83-.83Zm-1.48,5.79l1.7-3.63-3.69,1.64,1.99,1.99ZM34.56,88.09c.61-1,.29-2.26-.57-2.78l-.95-.58-4.24,7,.99,.6-.24,.39-3.23-1.96,.03-.05h1.56s4.02-6.65,4.02-6.65l-1.04-.63,.24-.39,3.38,2.05c1.49,.9,2.07,2.44,1.28,3.74-.6,.98-1.8,1.34-3.17,.89l.4,2.63,.33,2.14,.72,.44-.24,.39-3.02-1.83,.24-.39,.87,.53-.24-1.7-.43-2.92,.27-.34c1.26,.73,2.33,.59,3.04-.58ZM37.2,91.84c.96-3.14,3.61-3.83,5.69-3.2,2.08,.64,3.88,2.7,2.91,5.84-.96,3.14-3.61,3.83-5.68,3.2-2.08-.64-3.88-2.7-2.91-5.84Zm3.05,5.4c1.45,.44,3.17-.26,4.08-3.21,.91-2.96-.12-4.5-1.57-4.95-1.45-.44-3.17,.26-4.08,3.21-.91,2.96,.12,4.5,1.57,4.95ZM47.39,99.15l1.38-.73,.5-7.74-1.03-.07,.03-.45,4.01,.26c2.18,.14,4.82,1.87,4.62,4.85-.19,2.92-2.9,4.37-5.21,4.22l-4.3-.28v-.06Zm3.8-.15l.53,.03c1.83,.12,3.42-.98,3.6-3.87,.2-3.02-1.37-4.19-3.08-4.3l-1.68-.11-.53,8.17,1.15,.07ZM59.18,95.19c-.79-3.19,1.13-5.14,3.23-5.66,2.11-.52,4.71,.32,5.5,3.51s-1.13,5.14-3.23,5.66c-2.11,.52-4.71-.32-5.5-3.51Zm5.39,3.07c1.47-.36,2.59-1.85,1.85-4.85-.74-3-2.42-3.8-3.89-3.44s-2.59,1.85-1.85,4.85c.74,3,2.42,3.8,3.89,3.44ZM68.23,88.52l-.96,.61-.25-.39,3.18-2.03,.03,.05-.6,1.29,5.39,4.42-1.42-5.1-1.53-1.3-.88,.56-.25-.39,3.18-2.03,.03,.05c-.22,.46-.43,.92-.64,1.37l5.19,4.39-1.96-6.94-1.25,.79-.25-.39,2.75-1.75,.03,.05c-.22,.46-.42,.92-.62,1.37l2.35,8.45-.66,.42-4.67-3.97,1.64,5.91-.72,.46-7.11-5.92ZM85.17,87.07l.27-1.54-5.77-5.18-.81,.9-.34-.3,4.64-5.17,2.16,1.72-.05,.16c-.93-.16-1.84-.29-2.78-.44l-1.96,2.18,2.75,2.47,1.26-1.4-.39-1.66,.11-.09,2.37,2.13-.07,.12-1.7-.2-1.25,1.39,3.02,2.71,.78-.87,1.36-1.51-.77-2.98,.15-.07,1.96,2.24-4.88,5.44-.05-.04ZM90.74,78.06c-.63-.35-.62-.96-.37-1.29l1.04,.2c.38,.05,.75,.12,1.13,.21,.16-.16,.28-.32,.41-.55,.36-.64,0-1.49-1.27-2.22l-5.33-3.02-.63,1.12-.4-.22,1.86-3.29,.05,.03,.12,1.45,4.84,2.74c1.73,.98,1.98,2.24,1.21,3.6-.6,1.07-1.76,1.75-2.66,1.24ZM17.53,60.9l-1-1.19-7.63,1.09,.16,1.14-.45,.06-.53-3.72h.06s1,1.18,1,1.18l7.63-1.09-.16-1.14,.45-.06,.53,3.72h-.06ZM9.52,52.9l6.92,.46,.1-1.48,.45,.03-.22,3.35h-.06c-.24-.45-.48-.88-.72-1.32h.01s-7.72-.52-7.72-.52l-.08,1.2-.45-.03,.15-2.26,7.16-4.51-6.38-.42-.1,1.48-.45-.03,.22-3.35h.06c.24,.45,.48,.88,.72,1.32h-.01s8.17,.55,8.17,.55l-.05,.69-7.72,4.84ZM18.08,43.52c.02,.42,.03,.83,.05,1.25l-.04,.05-3-.83v-.15c2.44-.38,3.31-1.3,3.59-2.13,.3-.88-.07-1.7-.98-2-2.49-.84-3.66,3.73-6.55,2.75-1.41-.48-1.73-1.83-1.32-3.04,.21-.61,.57-1.08,.99-1.49l-.07-1.1,.06-.03,2.88,.8v.16c-2.24,.35-3.14,.97-3.43,1.81-.23,.68-.01,1.36,.88,1.67,2.15,.73,3.51-3.84,6.48-2.83,1.5,.51,2.06,1.79,1.5,3.43-.25,.74-.66,1.26-1.03,1.69ZM21.19,36.3l.13-1.76-6.56-4.06-.93,1.49c.47,.88,.93,1.74,1.41,2.62l-.1,.09-2.58-1.87v-.06s.8-.86,.8-.86l2.74-4.42c.14-.37,.28-.76,.43-1.12l.04-.02,2.83,1.49-.03,.13-2.97-.1-.95,1.54,6.92,4.29,.73-1.19,.38,.24-2.24,3.62-.05-.03ZM26.26,29.12l.36-1.51-1.73-1.73-5.81-1.63-.68,.68-.32-.32,2.66-2.66,.04,.04-.31,1.32,4.57,1.25-1.47-4.81-.84,.84-.32-.32,2.09-2.09,.32,.32-.83,.83,1.74,5.56,2.1,2.1,.82-.82,.32,.32-2.66,2.66-.04-.04ZM32.24,23.76l.9-1.53-4.09-6.54-1.49,.93c.03,1,.07,1.97,.11,2.97l-.13,.03-1.5-2.81,.02-.06,1.1-.42,4.41-2.76c.29-.27,.58-.56,.88-.82h.05s1.89,2.59,1.89,2.59l-.09,.1-2.62-1.4-1.53,.96,4.32,6.9,1.18-.74,.24,.38-3.61,2.26-.03-.05ZM38.01,16.5l-1.58-4.8-1.11,.36-.14-.43,3.57-1.17,.02,.06c-.33,.4-.65,.78-.99,1.17l1.53,4.65c.6,1.84,1.94,2.07,3,1.72,.87-.29,2.07-1.26,1.39-3.34l-1.6-4.88h-.02s-1.41,.45-1.41,.45l-.14-.43,3.19-1.05,.02,.06c-.32,.38-.63,.78-.95,1.16l1.53,4.61c.76,2.35-.42,3.81-2,4.33-1.69,.56-3.4,.22-4.3-2.5ZM48.33,17.29l1.5-.94-.63-7.69-1.75,.14c-.43,.9-.85,1.78-1.27,2.69l-.13-.03-.03-3.19,.05-.04,1.17,.13,5.18-.43c.38-.11,.78-.23,1.16-.32l.04,.02,.49,3.16-.12,.05-1.69-2.44-1.8,.15,.67,8.11,1.39-.11,.04,.45-4.24,.35v-.06ZM69.11,13.41c.39-1.21-.29-2.35-1.32-2.69l-.97-.31-2.52,7.74,1.58,.51-.14,.43-4.05-1.32,.02-.06,1.51-.37,2.39-7.33-1.15-.37,.14-.43,3.65,1.19c1.73,.56,2.72,1.91,2.22,3.46-.5,1.55-2.32,2.26-4.44,1.24l.18-.39c1.38,.58,2.44,.13,2.9-1.29ZM75.03,13.78l.23-.39,2,1.18-1.63,9.02,.86,.51-.23,.39-3.23-1.91,.03-.05c.49-.02,.96-.02,1.45-.03l.44-2.32-2.69-1.59-2.18,1.73,.94,.56-.23,.39-2.43-1.44,.03-.05,1.56-.12,5.98-4.73,.1-.54-1.01-.6Zm0,5.94l.74-3.91-3.15,2.49,2.41,1.43ZM83.59,20.91l-5.25,4.86,1.01,1.09-.33,.31-2.28-2.46,.05-.04c.48,.13,.97,.25,1.45,.38l5.67-5.25-.82-.89,.33-.31,1.77,1.91-3.36,7.28,7.38-2.93,.15,.16,1.72,1.86-.05,.04-1.44-.38-5.67,5.25,.78,.84-.33,.31-2.55-2.76,.05-.04,1.5,.41h0s5.22-4.82,5.22-4.82l-7.96,3.16-.44-.47,3.41-7.52ZM84.85,34.28l1.35,.76,6.75-3.72-.56-1.01,.4-.22,1.81,3.29-.06,.03-1.35-.76-6.75,3.72,.56,1.01-.4,.22-1.81-3.29,.05-.03ZM87.52,39.04l1.17,1.01,7.36-2.31-.36-1.15,.43-.14,2.07,6.59-2.56,.98-.11-.12c.6-.72,1.19-1.42,1.79-2.15l-.87-2.78-3.51,1.1,.56,1.79,1.62,.51,.02,.14-3.02,.95-.07-.12,1.04-1.35-.56-1.77-3.85,1.21,.35,1.1,.61,1.93,2.94,.85v.16s-2.92,.54-2.92,.54l-.32-1.01c-.43-.17-.84-.09-1.08-.02-.54,.17-.8,.63-.59,1.32,.03,.08,.04,.13,.08,.21l-.1,.09c-.52-.11-.9-.49-1.07-1.01-.19-.61,.02-1.23,.76-1.46,.41-.13,1.14-.06,1.87,.47l-1.73-5.52,.06-.02ZM96.48,55.36l-.07-.15c1.89-1.02,2.68-2.13,2.61-3.51-.08-1.68-1.09-2.76-3.66-2.64-2.67,.13-4.57,1.39-4.47,3.52,.07,1.44,1.37,2.6,2.33,3.03l-.21,.4c-1.49-.59-2.84-1.95-2.92-3.76-.11-2.22,1.4-4.56,4.49-4.71,3.05-.15,4.79,1.99,4.9,4.3,.03,.59-.02,1.4-.26,2.19,.12,.32,.24,.63,.37,.95l-.05,.05-3.07,.31ZM90.25,57.05l.62,1.42,7.63,1.1,.16-1.14,.45,.06-.54,3.72h-.06s-.62-1.43-.62-1.43l-7.63-1.1-.16,1.14-.45-.06,.54-3.72h.06ZM105.36,56.4l1.37-3.89-1.34-1.57,.95-4.01-1.49-1.41,.53-4.1-1.63-1.25,.09-4.1-1.75-1.08-.33-4.11-1.84-.88-.76-4.05-1.96-.7-1.17-3.9-1.98-.48-1.59-3.84-2.05-.27-1.97-3.61-2.08-.06-2.33-3.38-2.05,.15-2.68-3.14-2.04,.38-2.97-2.82-1.99,.58-3.28-2.5-1.89,.78-3.53-2.15-1.79,.98-3.73-1.76-1.69,1.16-3.89-1.37-1.57,1.34-4-.95-1.41,1.49-4.1-.53-1.25,1.63-4.1-.09-1.08,1.75-4.11,.33-.88,1.84-4.05,.76-.7,1.95-3.92,1.16-.48,2.01-3.8,1.59-.28,2.03-3.62,1.97-.05,2.04-3.42,2.35,.15,2.06-3.1,2.67,.37,1.99-2.84,3.02,.59,2-2.51,3.26,.79,1.88-2.14,3.51,.99,1.81-1.79,3.74,1.17,1.7-1.37,3.88,1.34,1.57-.96,4,1.5,1.42-.54,4.08,1.62,1.24-.11,4.16,1.76,1.07,.33,4.1,1.86,.88,.76,4.06,1.94,.68,1.17,3.98,2.01,.48,1.58,3.79,2.03,.28,1.97,3.62,2.07,.05,2.34,3.4,2.03-.15,2.68,3.12,2.01-.38,3.02,2.85,1.99-.59,3.26,2.51,1.89-.79,3.52,2.14,1.8-.98,3.73,1.78,1.7-1.17,3.88,1.37,1.57-1.34,4.01,.97,1.42-1.5,4.08,.54,1.24-1.62,4.16,.11,1.07-1.76,4.1-.33,.88-1.86,4.06-.76,.68-1.94,3.96-1.18,.48-1.99,3.82-1.59,.27-2.05,3.61-1.97,.06-2.11,3.37-2.32-.15-2.02,3.15-2.69-.38-2.05,2.82-2.98-.58-1.97,2.5-3.27-.79-1.91,2.16-3.53-.97-1.79,1.76-3.72-1.16-1.69Zm-.33-.92c-.41-.52-.59-.84-.59-1.33,0-.73,.64-1.9,.73-2.88,.41,.52,.59,.84,.59,1.33,0,.73-.64,1.9-.73,2.88Zm-.07-5.42c-.46-.46-.66-.76-.71-1.26-.09-.73,.43-1.96,.41-2.95,.46,.48,.68,.78,.73,1.28,.07,.71-.43,1.96-.43,2.93Zm-.52-8.34c.16,.71-.23,1.99-.11,2.95-.52-.41-.75-.69-.85-1.17-.16-.71,.23-1.99,.11-2.97,.52,.43,.75,.69,.85,1.19Zm-1.49-5.28c.21,.69-.02,2.01,.2,2.97-.55-.36-.82-.62-.98-1.08-.21-.69,.02-2.01-.2-2.97,.55,.37,.82,.62,.98,1.08Zm-2.04-5.08c.3,.66,.2,1.99,.52,2.93-.59-.3-.89-.53-1.08-.98-.3-.68-.2-2.01-.5-2.93,.57,.3,.87,.52,1.07,.98Zm-2.56-4.84c.37,.62,.41,1.96,.82,2.86-.6-.25-.92-.44-1.17-.87-.37-.62-.39-1.97-.82-2.86,.62,.25,.92,.43,1.17,.87Zm-3.04-4.53c.43,.59,.59,1.92,1.1,2.76-.64-.18-.98-.34-1.26-.73-.43-.59-.6-1.92-1.1-2.76,.64,.18,.96,.32,1.26,.73Zm-3.52-4.23c.5,.53,.8,1.83,1.39,2.63-.64-.12-1-.23-1.33-.6-.48-.55-.8-1.85-1.39-2.63,.66,.11,1,.23,1.33,.6Zm-3.93-3.82c.53,.48,.98,1.74,1.65,2.47-.66-.05-1.01-.12-1.39-.46-.55-.48-1-1.74-1.65-2.47,.66,.04,1.01,.12,1.39,.46Zm-4.32-3.4c.59,.43,1.17,1.64,1.9,2.28-.66,.04-1.01-.02-1.42-.3-.59-.43-1.16-1.64-1.9-2.28,.66-.04,1.03,.02,1.42,.3Zm-4.64-2.92c.62,.36,1.32,1.49,2.13,2.06-.66,.09-1.03,.09-1.46-.16-.62-.36-1.33-1.51-2.13-2.06,.66-.11,1.01-.09,1.46,.16Zm-4.92-2.42c.66,.3,1.48,1.35,2.33,1.83-.62,.16-1,.2-1.46,0-.66-.3-1.48-1.37-2.33-1.85,.64-.16,1-.2,1.46,.02Zm-5.16-1.9c.69,.23,1.62,1.21,2.51,1.58-.6,.23-.96,.3-1.44,.16-.69-.23-1.62-1.21-2.52-1.58,.62-.23,.98-.3,1.46-.16Zm-5.33-1.33c.73,.14,1.74,1.01,2.67,1.3-.59,.3-.92,.41-1.42,.3-.71-.14-1.72-1.01-2.67-1.32,.59-.28,.94-.39,1.42-.28Zm-5.42-.78c.73,.07,1.83,.84,2.79,1.03-.55,.34-.89,.48-1.39,.44-.73-.09-1.83-.84-2.79-1.03,.55-.36,.89-.5,1.39-.44Zm-5.48-.21c.73,0,1.9,.64,2.88,.73-.52,.41-.84,.59-1.33,.59-.73,0-1.9-.64-2.88-.73,.52-.41,.84-.59,1.33-.59Zm-5.46,.37c.71-.07,1.96,.43,2.93,.43-.46,.46-.76,.66-1.26,.71-.73,.09-1.96-.43-2.95-.41,.48-.46,.78-.68,1.28-.73Zm-5.4,.94c.71-.16,1.99,.23,2.95,.11-.41,.52-.69,.75-1.17,.85-.71,.16-1.99-.23-2.97-.11,.43-.52,.69-.75,1.19-.85Zm-5.28,1.49c.69-.21,2.01,.02,2.97-.2-.36,.55-.62,.82-1.08,.98-.69,.21-2.01-.02-2.97,.2,.37-.55,.62-.82,1.08-.98Zm-5.08,2.04c.66-.3,1.99-.2,2.93-.52-.3,.59-.53,.89-.98,1.08-.68,.3-2.01,.2-2.93,.5,.3-.57,.52-.87,.98-1.07Zm-4.84,2.56c.62-.37,1.96-.41,2.86-.82-.25,.6-.44,.92-.87,1.17-.62,.37-1.97,.39-2.86,.82,.25-.62,.43-.92,.87-1.17Zm-4.55,3.04c.59-.43,1.92-.6,2.76-1.1-.18,.64-.32,.96-.73,1.26-.59,.43-1.92,.59-2.76,1.1,.18-.64,.34-.98,.73-1.26Zm-4.21,3.5c.55-.48,1.85-.8,2.63-1.39-.11,.66-.23,1-.6,1.33-.53,.5-1.83,.8-2.63,1.39,.12-.64,.23-1,.6-1.33Zm-3.82,3.93c.48-.55,1.74-1,2.47-1.65-.04,.66-.12,1.01-.46,1.39-.48,.53-1.74,.98-2.47,1.65,.05-.66,.12-1.01,.46-1.39Zm-3.41,4.3c.43-.59,1.64-1.16,2.28-1.9,.04,.66-.02,1.03-.3,1.42-.43,.59-1.64,1.17-2.28,1.9-.04-.66,.02-1.01,.3-1.42Zm-2.9,4.64c.36-.62,1.51-1.33,2.06-2.13,.11,.66,.09,1.01-.16,1.46-.36,.62-1.49,1.32-2.06,2.13-.09-.66-.09-1.03,.16-1.46Zm-2.44,4.91c.3-.66,1.37-1.48,1.85-2.33,.16,.64,.2,1-.02,1.46-.3,.66-1.35,1.48-1.83,2.33-.16-.62-.2-1,0-1.46Zm-1.88,5.17c.23-.69,1.21-1.62,1.58-2.52,.23,.62,.3,.98,.16,1.46-.23,.69-1.21,1.62-1.58,2.51-.23-.6-.3-.96-.16-1.44Zm-1.33,5.28c.14-.71,1.01-1.72,1.32-2.67,.28,.59,.39,.94,.28,1.42-.14,.73-1.01,1.74-1.3,2.67-.3-.59-.41-.92-.3-1.42Zm.23,2.67c.36,.55,.5,.89,.44,1.39-.07,.73-.84,1.83-1.03,2.79-.34-.55-.48-.89-.44-1.39,.09-.73,.84-1.83,1.03-2.79Zm-.5,5.39c.41,.52,.59,.84,.59,1.33,0,.73-.64,1.9-.73,2.88-.41-.52-.59-.84-.59-1.33,0-.73,.64-1.9,.73-2.88Zm.05,5.39c.46,.48,.68,.78,.73,1.28,.07,.71-.43,1.96-.43,2.93-.46-.46-.66-.76-.71-1.26-.09-.73,.43-1.96,.41-2.95Zm.52,8.36c-.16-.71,.23-1.99,.11-2.97,.52,.43,.75,.69,.85,1.19,.16,.71-.23,1.99-.11,2.95-.52-.41-.75-.69-.85-1.17Zm1.48,5.3c-.21-.69,.02-2.01-.2-2.97,.55,.37,.82,.62,.98,1.08,.21,.69-.02,2.01,.2,2.97-.55-.36-.82-.62-.98-1.08Zm2.04,5.08c-.3-.68-.2-2.01-.5-2.93,.57,.3,.87,.52,1.07,.98,.3,.66,.2,1.99,.52,2.93-.59-.3-.89-.53-1.08-.98Zm2.56,4.85c-.37-.62-.39-1.97-.82-2.86,.62,.25,.92,.43,1.17,.87,.37,.62,.41,1.96,.82,2.86-.6-.25-.92-.44-1.17-.87Zm3.06,4.59c-.43-.59-.6-1.92-1.1-2.76,.64,.18,.96,.32,1.26,.73,.43,.59,.59,1.92,1.1,2.76-.64-.18-.98-.34-1.26-.73Zm3.5,4.2c-.48-.55-.8-1.85-1.39-2.63,.66,.11,1,.23,1.33,.6,.5,.53,.8,1.83,1.39,2.63-.64-.12-1-.23-1.33-.6Zm3.93,3.82c-.55-.48-1-1.74-1.65-2.47,.66,.04,1.01,.12,1.39,.46,.53,.48,.98,1.74,1.65,2.47-.66-.05-1.01-.12-1.39-.46Zm4.32,3.4c-.59-.43-1.16-1.64-1.9-2.28,.66-.04,1.03,.02,1.42,.3,.59,.43,1.17,1.64,1.9,2.28-.66,.04-1.01-.02-1.42-.3Zm4.62,2.92c-.62-.36-1.33-1.51-2.13-2.06,.66-.11,1.01-.09,1.46,.16,.62,.36,1.32,1.49,2.13,2.06-.66,.09-1.03,.09-1.46-.16Zm4.92,2.44c-.66-.3-1.48-1.37-2.33-1.85,.64-.16,1-.2,1.46,.02,.66,.3,1.48,1.35,2.33,1.83-.62,.16-1,.2-1.46,0Zm5.16,1.88c-.69-.23-1.62-1.21-2.52-1.58,.62-.23,.98-.3,1.46-.16,.69,.23,1.62,1.21,2.51,1.58-.6,.23-.96,.3-1.44,.16Zm5.3,1.33c-.71-.14-1.72-1.01-2.67-1.32,.59-.28,.94-.39,1.42-.28,.73,.14,1.74,1.01,2.67,1.3-.59,.3-.92,.41-1.42,.3Zm5.44,.8c-.73-.09-1.83-.84-2.79-1.03,.55-.36,.89-.5,1.39-.44,.73,.07,1.83,.84,2.79,1.03-.55,.34-.89,.48-1.39,.44Zm5.48,.2c-.73,0-1.9-.64-2.88-.73,.52-.41,.84-.59,1.33-.59,.73,0,1.9,.64,2.88,.73-.52,.41-.84,.59-1.33,.59Zm5.48-.37c-.73,.09-1.96-.43-2.95-.41,.48-.46,.78-.68,1.28-.73,.71-.07,1.96,.43,2.93,.43-.46,.46-.76,.66-1.26,.71Zm5.4-.92c-.71,.16-1.99-.23-2.97-.11,.43-.52,.69-.75,1.19-.85,.71-.16,1.99,.23,2.95,.11-.41,.52-.69,.75-1.17,.85Zm5.3-1.48c-.69,.21-2.01-.02-2.97,.2,.37-.55,.62-.82,1.08-.98,.69-.21,2.01,.02,2.97-.2-.36,.55-.62,.82-1.08,.98Zm5.08-2.04c-.68,.3-2.01,.2-2.93,.5,.3-.57,.52-.87,.98-1.07,.66-.3,1.99-.2,2.93-.52-.3,.59-.53,.89-.98,1.08Zm4.85-2.56c-.62,.37-1.97,.39-2.86,.82,.25-.62,.43-.92,.87-1.17,.62-.37,1.96-.41,2.86-.82-.25,.6-.44,.92-.87,1.17Zm4.57-3.06c-.59,.43-1.92,.59-2.76,1.1,.18-.64,.34-.98,.73-1.26,.59-.43,1.92-.6,2.76-1.1-.18,.64-.32,.96-.73,1.26Zm4.21-3.52c-.53,.5-1.83,.8-2.63,1.39,.12-.64,.23-1,.6-1.33,.55-.48,1.85-.8,2.63-1.39-.11,.66-.23,1-.6,1.33Zm-2.74-.6l-.28,2.08-3.86,1.14-.49,2.05-3.97,.74-.71,1.98-4.02,.33-.9,1.88-4.01-.09-1.09,1.76-4.03-.52-1.27,1.66-3.92-.93-1.44,1.52-3.8-1.34-1.59,1.36-3.64-1.71-1.72,1.18-3.45-2.11-1.83,1-3.2-2.44-1.94,.8-2.91-2.76-2.01,.59-2.63-3.08-2.06,.38-2.27-3.3-2.09,.15-1.93-3.53-2.08-.06-1.54-3.72-2.09-.27-1.15-3.84-2.03-.49-.75-3.99-1.98-.71-.33-4.02-1.88-.9,.09-4.01-1.76-1.09,.52-4.03-1.66-1.27,.93-3.92-1.51-1.44,1.34-3.79-1.36-1.59,1.72-3.64-1.19-1.73,2.11-3.46-.99-1.82,2.43-3.19-.81-1.95,2.76-2.92-.59-2,3.07-2.62-.39-2.09,3.29-2.27-.15-2.06,3.55-1.94,.06-2.08,3.72-1.54,.27-2.08,3.85-1.15,.49-2.04,3.95-.74,.69-1.97,4.02-.33,.9-1.88,4.03,.1,1.1-1.81,3.97,.53,1.29-1.67,3.92,.95,1.44-1.53,3.79,1.34,1.6-1.36,3.63,1.74,1.73-1.19,3.44,2.1,1.84-1.01,3.2,2.46,1.93-.81,2.94,2.77,2.01-.59,2.62,3.04,2.07-.39,2.29,3.32,2.1-.16,1.92,3.53,2.1,.05,1.55,3.72,2.07,.28,1.14,3.88,2.06,.49,.73,3.93,1.97,.69,.33,4.02,1.88,.9-.1,4.03,1.81,1.1-.53,3.97,1.67,1.29-.95,3.92,1.54,1.45-1.34,3.8,1.36,1.6-1.74,3.63,1.19,1.72-2.09,3.43,1.01,1.85-2.47,3.21,.81,1.92-2.76,2.93,.6,2.02-3.05,2.62,.38,2.04-3.33,2.3,.16,2.12-3.52,1.91-.05,2.1-3.72,1.55Zm6.56-3.32c-.48,.53-1.74,.98-2.47,1.65,.05-.66,.12-1.01,.46-1.39,.48-.55,1.74-1,2.47-1.65-.04,.66-.12,1.01-.46,1.39Zm3.38-4.34c-.43,.59-1.64,1.17-2.28,1.9-.04-.66,.02-1.01,.3-1.42,.43-.59,1.64-1.16,2.28-1.9,.04,.66-.02,1.03-.3,1.42Zm2.93-4.62c-.36,.62-1.49,1.32-2.06,2.13-.09-.66-.09-1.03,.16-1.46,.36-.62,1.51-1.33,2.06-2.13,.11,.66,.09,1.01-.16,1.46Zm2.42-4.94c-.3,.66-1.35,1.48-1.83,2.33-.16-.62-.2-1,0-1.46,.3-.66,1.37-1.48,1.85-2.33,.16,.64,.2,1-.02,1.46Zm1.9-5.14c-.23,.69-1.21,1.62-1.58,2.51-.23-.6-.3-.96-.16-1.44,.23-.69,1.21-1.62,1.58-2.52,.23,.62,.3,.98,.16,1.46Zm1.33-5.35c-.14,.73-1.01,1.74-1.3,2.67-.3-.59-.41-.92-.3-1.42,.14-.71,1.01-1.72,1.32-2.67,.28,.59,.39,.94,.28,1.42Zm-.25-2.61c-.34-.55-.48-.89-.44-1.39,.09-.73,.84-1.83,1.03-2.79,.36,.55,.5,.89,.44,1.39-.07,.73-.84,1.83-1.03,2.79Z"/></svg>