<svg xmlns="http://www.w3.org/2000/svg" viewBox="0 0 220 52" width="220" height="52">
  <!-- Gear + recycling icon -->
  <g transform="translate(4,4)">
    <!-- Gear teeth -->
    <path d="M22,2 L24,8 L28,8 L30,2 Z M30,2 L34,6 L37,4 L35,10 Z M37,4 L42,10 L44,7 L41,14 Z M10,2 L8,8 L12,8 L14,2 Z M14,2 L10,6 L7,4 L9,10 Z M7,4 L2,10 L0,7 L3,14 Z" fill="#2d8a4e" opacity="0.9"/>
    <!-- Outer circle -->
    <circle cx="22" cy="22" r="18" fill="none" stroke="#2d8a4e" stroke-width="2.5"/>
    <!-- Inner circle -->
    <circle cx="22" cy="22" r="10" fill="none" stroke="#2d8a4e" stroke-width="1.5"/>
    <!-- Recycling arrows (simplified) -->
    <path d="M22,12 A10,10 0 0,1 32,22" fill="none" stroke="#2d8a4e" stroke-width="2.5" stroke-linecap="round"/>
    <polygon points="33,18 35,25 28,24" fill="#2d8a4e"/>
    <path d="M32,22 A10,10 0 0,1 17,30" fill="none" stroke="#2d8a4e" stroke-width="2.5" stroke-linecap="round"/>
    <polygon points="13,32 19,34 18,27" fill="#2d8a4e"/>
    <path d="M17,30 A10,10 0 0,1 22,12" fill="none" stroke="#2d8a4e" stroke-width="2.5" stroke-linecap="round"/>
    <polygon points="18,10 25,10 22,17" fill="#2d8a4e"/>
  </g>
  <!-- RECYMACH text -->
  <text x="56" y="34" font-family="'Arial Black', 'Arial', sans-serif" font-weight="900" font-size="22" fill="#ffffff" letter-spacing="1">RECYMACH</text>
</svg>
